<svg xmlns="http://www.w3.org/2000/svg" viewBox="0 0 1100 420" font-family="ui-monospace,SFMono-Regular,Menlo,Consolas,monospace">
<rect width="1100" height="420" fill="#fff"/>
<text x="550" y="22" font-size="14" font-weight="700" text-anchor="middle" fill="#222">Kernel-level breakdown · DSV4-Pro · BS=2048 · per-kernel us</text>
<text x="550" y="40" font-size="11" text-anchor="middle" fill="#666">DeepGEMM 把 8 段融成一个 mega kernel · 8 个 segment 用同色渲染表示「全部 fused」</text>
<text x="228" y="84.0" font-size="10.5" text-anchor="end" fill="#333">TRT-LLM NVFP4 (8 kernels)</text>
<text x="228" y="96.0" font-size="10.5" text-anchor="end" fill="#333">sum=6646 us · wall-clock=2.30 ms</text>
<rect x="240.0" y="60.0" width="179.5" height="52.0" fill="#1f77b4"/>
<text x="329.8" y="90.0" font-size="10" text-anchor="middle" fill="#fff">2782</text>
<rect x="419.5" y="60.0" width="98.2" height="52.0" fill="#ff7f0e"/>
<text x="468.6" y="90.0" font-size="10" text-anchor="middle" fill="#000">1522</text>
<rect x="517.7" y="60.0" width="16.2" height="52.0" fill="#d62728"/>
<rect x="533.9" y="60.0" width="35.9" height="52.0" fill="#2ca02c"/>
<text x="551.9" y="90.0" font-size="10" text-anchor="middle" fill="#fff">556</text>
<rect x="569.8" y="60.0" width="25.5" height="52.0" fill="#9467bd"/>
<rect x="595.3" y="60.0" width="31.1" height="52.0" fill="#8c564b"/>
<rect x="626.4" y="60.0" width="18.5" height="52.0" fill="#17becf"/>
<rect x="644.9" y="60.0" width="24.0" height="52.0" fill="#7f7f7f"/>
<text x="228" y="170.7" font-size="10.5" text-anchor="end" fill="#333">TRT-LLM W4A8 (8 kernels)</text>
<text x="228" y="182.7" font-size="10.5" text-anchor="end" fill="#333">sum=12862 us · wall-clock=2.84 ms</text>
<rect x="240.0" y="146.7" width="275.0" height="52.0" fill="#1f77b4"/>
<text x="377.5" y="176.7" font-size="10" text-anchor="middle" fill="#fff">4262</text>
<rect x="515.0" y="146.7" width="111.4" height="52.0" fill="#ff7f0e"/>
<text x="570.8" y="176.7" font-size="10" text-anchor="middle" fill="#000">1727</text>
<rect x="626.5" y="146.7" width="348.7" height="52.0" fill="#d62728"/>
<text x="800.8" y="176.7" font-size="10" text-anchor="middle" fill="#fff">5403</text>
<rect x="975.1" y="146.7" width="17.6" height="52.0" fill="#2ca02c"/>
<rect x="992.7" y="146.7" width="12.1" height="52.0" fill="#9467bd"/>
<rect x="1004.8" y="146.7" width="32.1" height="52.0" fill="#8c564b"/>
<rect x="1036.9" y="146.7" width="8.8" height="52.0" fill="#17becf"/>
<rect x="1045.7" y="146.7" width="24.3" height="52.0" fill="#7f7f7f"/>
<text x="228" y="257.3" font-size="10.5" text-anchor="end" fill="#333">DeepGEMM MegaMoE (1 kernel)</text>
<text x="228" y="269.3" font-size="10.5" text-anchor="end" fill="#333">sum=3082 us · wall-clock=1.07 ms</text>
<rect x="240.0" y="233.3" width="198.9" height="52.0" fill="#1f77b4"/>
<text x="339.4" y="263.3" font-size="10" text-anchor="middle" fill="#fff">3082</text>
<rect x="240.0" y="337" width="14" height="11" fill="#1f77b4"/>
<text x="258.0" y="346" font-size="10.5" fill="#333">cutlass GEMM (×2)</text>
<rect x="447.5" y="337" width="14" height="11" fill="#ff7f0e"/>
<text x="465.5" y="346" font-size="10.5" fill="#333">A2A combine</text>
<rect x="655.0" y="337" width="14" height="11" fill="#d62728"/>
<text x="673.0" y="346" font-size="10.5" fill="#333">A2A dispatch</text>
<rect x="862.5" y="337" width="14" height="11" fill="#2ca02c"/>
<text x="880.5" y="346" font-size="10.5" fill="#333">SwiGLU</text>
<rect x="240.0" y="355" width="14" height="11" fill="#9467bd"/>
<text x="258.0" y="364" font-size="10.5" fill="#333">NCCL AllReduce</text>
<rect x="447.5" y="355" width="14" height="11" fill="#8c564b"/>
<text x="465.5" y="364" font-size="10.5" fill="#333">finalize routing</text>
<rect x="655.0" y="355" width="14" height="11" fill="#17becf"/>
<text x="673.0" y="364" font-size="10.5" fill="#333">expand input</text>
<rect x="862.5" y="355" width="14" height="11" fill="#7f7f7f"/>
<text x="880.5" y="364" font-size="10.5" fill="#333">others</text>
</svg>