<svg viewBox="0 0 1000 360" xmlns="http://www.w3.org/2000/svg">
<defs>
  <marker id="arr" viewBox="0 0 10 10" refX="9" refY="5" markerWidth="7" markerHeight="7" orient="auto-start-reverse">
    <path d="M0,0 L10,5 L0,10 z" fill="#4a6fd3"/>
  </marker>
  <marker id="arrR" viewBox="0 0 10 10" refX="9" refY="5" markerWidth="7" markerHeight="7" orient="auto-start-reverse">
    <path d="M0,0 L10,5 L0,10 z" fill="#b85450"/>
  </marker>
  <marker id="arrG" viewBox="0 0 10 10" refX="9" refY="5" markerWidth="7" markerHeight="7" orient="auto-start-reverse">
    <path d="M0,0 L10,5 L0,10 z" fill="#5fa55f"/>
  </marker>
  <marker id="arrO" viewBox="0 0 10 10" refX="9" refY="5" markerWidth="7" markerHeight="7" orient="auto-start-reverse">
    <path d="M0,0 L10,5 L0,10 z" fill="#e0b300"/>
  </marker>
</defs>

<defs>
  <marker id="arrSm" viewBox="0 0 10 10" refX="9" refY="5" markerWidth="6" markerHeight="6" orient="auto-start-reverse">
    <path d="M0,0 L10,5 L0,10 z" fill="#55606b"/>
  </marker>
</defs>
<circle cx="120" cy="180" r="50" fill="#eef3ff" stroke="#4a6fd3" stroke-width="2"/>
<text x="120" y="178" text-anchor="middle" font-family="sans-serif" font-size="13" font-weight="700" fill="#1a2d55">user</text>
<text x="120" y="195" text-anchor="middle" font-family="sans-serif" font-size="11" fill="#1a2d55">提问 / 反馈</text>

<circle cx="380" cy="100" r="55" fill="#fff5f0" stroke="#b85450" stroke-width="2"/>
<text x="380" y="93" text-anchor="middle" font-family="sans-serif" font-size="13" font-weight="700" fill="#4a1515">assistant</text>
<text x="380" y="110" text-anchor="middle" font-family="sans-serif" font-size="11" fill="#4a1515">content</text>
<text x="380" y="124" text-anchor="middle" font-family="sans-serif" font-size="10" fill="#4a1515" font-style="italic">finish=stop</text>

<circle cx="380" cy="270" r="55" fill="#fff5f0" stroke="#b85450" stroke-width="2"/>
<text x="380" y="265" text-anchor="middle" font-family="sans-serif" font-size="13" font-weight="700" fill="#4a1515">assistant</text>
<text x="380" y="280" text-anchor="middle" font-family="sans-serif" font-size="11" fill="#4a1515">tool_calls</text>
<text x="380" y="294" text-anchor="middle" font-family="sans-serif" font-size="10" fill="#4a1515" font-style="italic">finish=tool_calls</text>

<circle cx="640" cy="270" r="50" fill="#f9eef8" stroke="#a33ea1" stroke-width="2"/>
<text x="640" y="268" text-anchor="middle" font-family="sans-serif" font-size="13" font-weight="700" fill="#4a1a48">tool</text>
<text x="640" y="285" text-anchor="middle" font-family="sans-serif" font-size="11" fill="#4a1a48">tool_result</text>

<circle cx="900" cy="180" r="50" fill="#fff8e7" stroke="#e0b300" stroke-width="2"/>
<text x="900" y="178" text-anchor="middle" font-family="sans-serif" font-size="13" font-weight="700" fill="#5a3f00">system</text>
<text x="900" y="195" text-anchor="middle" font-family="sans-serif" font-size="11" fill="#5a3f00">tools schema</text>

<line x1="170" y1="170" x2="325" y2="115" stroke="#55606b" stroke-width="1.8" marker-end="url(#arrSm)"/>
<line x1="170" y1="190" x2="325" y2="255" stroke="#55606b" stroke-width="1.8" marker-end="url(#arrSm)"/>
<line x1="380" y1="155" x2="380" y2="215" stroke="#55606b" stroke-width="1.5" stroke-dasharray="4,3"/>
<line x1="425" y1="285" x2="590" y2="275" stroke="#55606b" stroke-width="1.8" marker-end="url(#arrSm)"/>
<path d="M 640 220 Q 480 145 425 110" fill="none" stroke="#55606b" stroke-width="1.8" marker-end="url(#arrSm)"/>
<line x1="170" y1="180" x2="850" y2="180" stroke="#e0b300" stroke-width="1.2" stroke-dasharray="3,3"/>

<text x="240" y="125" text-anchor="middle" font-family="sans-serif" font-size="10" fill="#4a4a4a">提问</text>
<text x="240" y="240" text-anchor="middle" font-family="sans-serif" font-size="10" fill="#4a4a4a">提问</text>
<text x="510" y="265" text-anchor="middle" font-family="sans-serif" font-size="10" fill="#4a4a4a">执行 fn</text>
<text x="540" y="180" text-anchor="middle" font-family="sans-serif" font-size="10" fill="#4a4a4a">结果回灌后再生成</text>
<text x="900" y="115" text-anchor="middle" font-family="sans-serif" font-size="10" fill="#5a3f00" font-style="italic">每轮请求都带</text>

<rect x="60" y="40" width="200" height="40" rx="6" fill="#fff8e7" stroke="#e0b300" stroke-width="1"/>
<text x="160" y="65" text-anchor="middle" font-family="sans-serif" font-size="11.5" fill="#5a3f00" font-weight="600">每条 chat completion 请求</text>

</svg>