<svg viewBox="0 0 1000 340" xmlns="http://www.w3.org/2000/svg"><defs><marker id="arr" viewBox="0 0 10 10" refX="9" refY="5" markerWidth="7" markerHeight="7" orient="auto"><path d="M0,0 L10,5 L0,10 z" fill="#555"/></marker></defs>
<text x="500" y="22" text-anchor="middle" font-family="sans-serif" font-weight="700" font-size="14" fill="#1a3d1a">Contiguous Layout (M_sum × K) — 每 expert 按 128 对齐</text>
<g font-family="monospace" font-size="11">
  <!-- Expert 0 region -->
  <rect x="100" y="50" width="800" height="70" fill="#d5e8d4" stroke="#5fa55f"/>
  <text x="500" y="72" text-anchor="middle" font-weight="700" fill="#1a3d1a">Expert 0 · 128 rows (real=32, pad=96)</text>
  <rect x="100" y="90" width="200" height="30" fill="#a8d89a"/>
  <text x="200" y="110" text-anchor="middle">m_indices=0 (real)</text>
  <rect x="300" y="90" width="600" height="30" fill="#f8cecc" opacity="0.75"/>
  <text x="600" y="110" text-anchor="middle" fill="#4a1515">m_indices=-1 (padding — kernel 跳过)</text>

  <!-- Expert 1 region -->
  <rect x="100" y="130" width="800" height="70" fill="#d5e8d4" stroke="#5fa55f"/>
  <text x="500" y="152" text-anchor="middle" font-weight="700" fill="#1a3d1a">Expert 1 · 128 rows (real=45, pad=83)</text>
  <rect x="100" y="170" width="280" height="30" fill="#a8d89a"/>
  <text x="240" y="190" text-anchor="middle">m_indices=1 (real)</text>
  <rect x="380" y="170" width="520" height="30" fill="#f8cecc" opacity="0.75"/>
  <text x="640" y="190" text-anchor="middle" fill="#4a1515">m_indices=-1</text>

  <!-- Expert 3 region (expert 2 skipped) -->
  <rect x="100" y="210" width="800" height="70" fill="#d5e8d4" stroke="#5fa55f"/>
  <text x="500" y="232" text-anchor="middle" font-weight="700" fill="#1a3d1a">Expert 3 · 128 rows (real=128, pad=0)  (Expert 2 为空，长度 0，不占行)</text>
  <rect x="100" y="250" width="800" height="30" fill="#a8d89a"/>
  <text x="500" y="270" text-anchor="middle">m_indices=3 (real, 完全填满)</text>
</g>
<text x="20" y="50" font-family="monospace" font-size="11" fill="#555">row 0</text>
<text x="20" y="130" font-family="monospace" font-size="11" fill="#555">128</text>
<text x="20" y="210" font-family="monospace" font-size="11" fill="#555">256</text>

<text x="500" y="310" text-anchor="middle" font-family="sans-serif" font-size="12" fill="#333">kernel 读 grouped_layout[m_block_idx × BLOCK_M + m_offset] 判断是否跳过整 tile</text>
<text x="500" y="328" text-anchor="middle" font-family="sans-serif" font-size="12" fill="#333">同 expert 的行连续 → TMA load B[expert] 一次复用覆盖多行 → L2 cache 命中率高</text>
</svg>