<svg viewBox="0 0 1000 315" xmlns="http://www.w3.org/2000/svg"><defs><marker id="arr" viewBox="0 0 10 10" refX="9" refY="5" markerWidth="7" markerHeight="7" orient="auto"><path d="M0,0 L10,5 L0,10 z" fill="#555"/></marker></defs>
<text x="500" y="22" text-anchor="middle" font-family="sans-serif" font-weight="700" font-size="15" fill="#1f3a6f">DBO 时序：两 micro-batch 让 RDMA 藏在 GEMM 背后</text>

<g font-family="sans-serif" font-size="11">
  <rect x="50" y="60" width="900" height="55" fill="#eef3ff" stroke="#4a6fd3"/>
  <text x="25" y="92" font-weight="700" fill="#1f3a6f">Compute</text>

  <rect x="60"  y="70" width="110" height="35" fill="#a7bce0"/><text x="115" y="92" text-anchor="middle">MB0 Gate+Q</text>
  <rect x="175" y="70" width="110" height="35" fill="#a7bce0"/><text x="230" y="92" text-anchor="middle">MB1 Gate+Q</text>
  <rect x="290" y="70" width="170" height="35" fill="#5fa55f"/><text x="375" y="92" text-anchor="middle" fill="#fff">MB0 DeepGEMM</text>
  <rect x="465" y="70" width="170" height="35" fill="#5fa55f"/><text x="550" y="92" text-anchor="middle" fill="#fff">MB1 DeepGEMM</text>
  <rect x="640" y="70" width="140" height="35" fill="#a7bce0"/><text x="710" y="92" text-anchor="middle">MB0 Shared MLP</text>
  <rect x="785" y="70" width="140" height="35" fill="#a7bce0"/><text x="855" y="92" text-anchor="middle">MB1 Shared MLP</text>

  <rect x="50" y="140" width="900" height="55" fill="#fff5f0" stroke="#b85450"/>
  <text x="25" y="172" font-weight="700" fill="#4a1515">Comm</text>

  <rect x="175" y="150" width="115" height="35" fill="#e89a94"/><text x="232" y="172" text-anchor="middle" fill="#fff">MB0 HT Disp</text>
  <rect x="290" y="150" width="115" height="35" fill="#e89a94"/><text x="347" y="172" text-anchor="middle" fill="#fff">MB1 HT Disp</text>
  <rect x="465" y="150" width="165" height="35" fill="#b85450"/><text x="547" y="172" text-anchor="middle" fill="#fff">MB0 HT Combine (BF16)</text>
  <rect x="635" y="150" width="165" height="35" fill="#b85450"/><text x="717" y="172" text-anchor="middle" fill="#fff">MB1 HT Combine</text>
</g>

<g font-family="sans-serif" font-size="11" fill="#333">
  <text x="60"  y="235" text-anchor="start">• Dispatch 通信 ←→ 前一 micro-batch Gate/Quant 叠加</text>
  <text x="60"  y="255" text-anchor="start">• Combine 通信 ←→ 本 micro-batch DeepGEMM 叠加</text>
  <text x="60"  y="275" text-anchor="start">• Shared MLP 在主 stream 与 Combine drain 重叠，独立 aux stream</text>
  <text x="60"  y="295" text-anchor="start">• self.handles = [None, None]：两 ubatch 独立 handle，避免 race</text>
</g>
</svg>