<svg viewBox="0 0 1000 275" xmlns="http://www.w3.org/2000/svg"><defs><marker id="arr" viewBox="0 0 10 10" refX="9" refY="5" markerWidth="7" markerHeight="7" orient="auto"><path d="M0,0 L10,5 L0,10 z" fill="#555"/></marker></defs>
<text x="500" y="22" text-anchor="middle" font-family="sans-serif" font-weight="700" font-size="14" fill="#333">单层 MoE 延迟分解（60 层 DeepSeek-V3，2 节点 × 2 GPU）</text>

<g font-family="sans-serif" font-size="12">
  <!-- bars -->
  <rect x="120" y="60"  width="20"  height="25" fill="#e0b300"/>
  <text x="100" y="77" text-anchor="end" fill="#7a4e00">Gate/Quant 0.4 ms</text>

  <rect x="120" y="95"  width="235" height="25" fill="#e89a94"/>
  <text x="100" y="112" text-anchor="end" fill="#4a1515">Dispatch 4.7 ms</text>

  <rect x="120" y="130" width="300" height="25" fill="#5fa55f"/>
  <text x="100" y="147" text-anchor="end" fill="#1a3d1a">DeepGEMM 6.0 ms</text>

  <rect x="120" y="165" width="470" height="25" fill="#b85450"/>
  <text x="100" y="182" text-anchor="end" fill="#4a1515">Combine 9.4 ms ★</text>

  <rect x="120" y="200" width="140" height="25" fill="#a7bce0"/>
  <text x="100" y="217" text-anchor="end" fill="#1f3a6f">Shared MLP (overlap)</text>

  <line x1="120" y1="50" x2="120" y2="240" stroke="#333"/>
  <line x1="120" y1="240" x2="900" y2="240" stroke="#333"/>

  <g fill="#888" font-size="11">
    <text x="120" y="258" text-anchor="middle">0</text>
    <text x="270" y="258" text-anchor="middle">3</text>
    <text x="420" y="258" text-anchor="middle">6</text>
    <text x="570" y="258" text-anchor="middle">9</text>
    <text x="720" y="258" text-anchor="middle">12 ms</text>
  </g>

  <rect x="650" y="60" width="260" height="130" rx="6" fill="#fffcf1" stroke="#d9b860"/>
  <text x="780" y="80" text-anchor="middle" font-weight="700" fill="#7a4e00">合计（无 DBO）</text>
  <text x="780" y="102" text-anchor="middle" fill="#5a3f00">~20.5 ms / 层</text>
  <text x="780" y="124" text-anchor="middle" font-weight="700" fill="#7a4e00">启用 DBO</text>
  <text x="780" y="146" text-anchor="middle" fill="#5a3f00">~13-15 ms / 层</text>
  <text x="780" y="168" text-anchor="middle" fill="#5a3f00">60 层 Prefill：~0.85 s → ~0.60 s</text>
</g>
</svg>