<svg viewBox="0 0 1000 280" xmlns="http://www.w3.org/2000/svg"><defs><marker id="arr" viewBox="0 0 10 10" refX="9" refY="5" markerWidth="7" markerHeight="7" orient="auto"><path d="M0,0 L10,5 L0,10 z" fill="#555"/></marker></defs>
<text x="500" y="22" text-anchor="middle" font-family="sans-serif" font-weight="700" font-size="14" fill="#333">FP8 MoE Backend 决策 (Hopper, Prefill)</text>
<g font-family="sans-serif" font-size="11.5">
  <rect x="420" y="50" width="160" height="50" rx="4" fill="#f6f8fa" stroke="#d0d7de"/>
  <text x="500" y="70" text-anchor="middle" font-weight="700">select_fp8_moe_backend</text>
  <text x="500" y="88" text-anchor="middle" fill="#555">oracle/fp8.py</text>

  <rect x="100" y="150" width="160" height="50" rx="4" fill="#fff4e0" stroke="#e0b300"/>
  <text x="180" y="170" text-anchor="middle" font-weight="700">AITER</text>
  <text x="180" y="188" text-anchor="middle" fill="#5a3f00">AMD 专用</text>

  <rect x="280" y="150" width="170" height="50" rx="4" fill="#eef3ff" stroke="#4a6fd3"/>
  <text x="365" y="170" text-anchor="middle" font-weight="700">FlashInfer CUTLASS</text>
  <text x="365" y="188" text-anchor="middle" fill="#1f3a6f">Hopper + EP 首选</text>

  <rect x="470" y="150" width="170" height="50" rx="4" fill="#eef7ee" stroke="#5fa55f"/>
  <text x="555" y="170" text-anchor="middle" font-weight="700">DeepGEMM ★</text>
  <text x="555" y="188" text-anchor="middle" fill="#1a3d1a">VLLM_USE_DEEP_GEMM=1</text>

  <rect x="660" y="150" width="160" height="50" rx="4" fill="#f9eef8" stroke="#a33ea1"/>
  <text x="740" y="170" text-anchor="middle" font-weight="700">Triton</text>
  <text x="740" y="188" text-anchor="middle" fill="#4a1a48">默认 fallback</text>

  <g stroke="#999" stroke-width="1.2" fill="none">
    <line x1="460" y1="100" x2="180" y2="150" marker-end="url(#arr)"/>
    <line x1="470" y1="100" x2="365" y2="150" marker-end="url(#arr)"/>
    <line x1="500" y1="100" x2="555" y2="150" marker-end="url(#arr)" stroke="#5fa55f" stroke-width="2.5"/>
    <line x1="540" y1="100" x2="740" y2="150" marker-end="url(#arr)"/>
  </g>

  <text x="500" y="240" text-anchor="middle" fill="#333">选中 DeepGEMM → 初始化 DeepGemmExperts（HT 模式 · Contiguous 布局）</text>
  <text x="500" y="260" text-anchor="middle" fill="#333">→ quant_config.block_shape=[128,128] + float8_e4m3fn + N&gt;512 + K%128==0</text>
</g>
</svg>