<svg viewBox="0 0 1000 365" xmlns="http://www.w3.org/2000/svg">
<defs>
  <marker id="arrow" viewBox="0 0 10 10" refX="9" refY="5" markerWidth="7" markerHeight="7" orient="auto-start-reverse">
    <path d="M 0 0 L 10 5 L 0 10 z" fill="#24292f"/>
  </marker>
</defs>
<rect x="0" y="0" width="1000" height="365" fill="#ffffff"/>
<text x="500" y="38" text-anchor="middle" font-family="sans-serif" font-size="24" font-weight="700" fill="#24292f">Single-head attention forward graph</text>
<text x="500" y="64" text-anchor="middle" font-family="sans-serif" font-size="13" font-weight="400" fill="#57606a">three projections, one score matrix, one weighted value mix</text>
<rect x="70" y="135" width="120" height="62" rx="8" fill="#eef7ff" stroke="#4a6fd3" stroke-width="2"/>
<text x="130" y="162" text-anchor="middle" font-family="monospace" font-size="16" font-weight="700" fill="#24292f">X</text>
<text x="130" y="184" text-anchor="middle" font-family="sans-serif" font-size="11" font-weight="400" fill="#57606a">nT × d</text>
<line x1="192" y1="166" x2="282" y2="110" stroke="#24292f" stroke-width="2" marker-end="url(#arrow)"/>
<line x1="192" y1="166" x2="282" y2="166" stroke="#24292f" stroke-width="2" marker-end="url(#arrow)"/>
<line x1="192" y1="166" x2="282" y2="222" stroke="#24292f" stroke-width="2" marker-end="url(#arrow)"/>
<rect x="282" y="82" width="145" height="56" rx="8" fill="#f4faf4" stroke="#5fa55f" stroke-width="2"/>
<text x="354" y="113" text-anchor="middle" font-family="Georgia, Times New Roman, serif" font-size="14" font-style="italic" font-weight="700" fill="#24292f">Q = XW<tspan baseline-shift="-25%" font-size="9.8">q</tspan></text>
<rect x="282" y="138" width="145" height="56" rx="8" fill="#f4faf4" stroke="#5fa55f" stroke-width="2"/>
<text x="354" y="169" text-anchor="middle" font-family="Georgia, Times New Roman, serif" font-size="14" font-style="italic" font-weight="700" fill="#24292f">K = XW<tspan baseline-shift="-25%" font-size="9.8">k</tspan></text>
<rect x="282" y="194" width="145" height="56" rx="8" fill="#f4faf4" stroke="#5fa55f" stroke-width="2"/>
<text x="354" y="225" text-anchor="middle" font-family="Georgia, Times New Roman, serif" font-size="14" font-style="italic" font-weight="700" fill="#24292f">V = XW<tspan baseline-shift="-25%" font-size="9.8">v</tspan></text>
<line x1="428" y1="110" x2="520" y2="144" stroke="#24292f" stroke-width="2" marker-end="url(#arrow)"/>
<line x1="428" y1="166" x2="520" y2="144" stroke="#24292f" stroke-width="2" marker-end="url(#arrow)"/>
<rect x="520" y="116" width="150" height="64" rx="8" fill="#fff8e7" stroke="#e0b300" stroke-width="2"/>
<text x="595" y="144" text-anchor="middle" font-family="Georgia, Times New Roman, serif" font-size="14" font-style="italic" font-weight="700" fill="#24292f">S = QK<tspan baseline-shift="38%" font-size="9.8">T</tspan>/√d<tspan baseline-shift="-25%" font-size="9.8">h</tspan></text>
<text x="595" y="164" text-anchor="middle" font-family="sans-serif" font-size="11" font-weight="400" fill="#57606a">+ causal mask</text>
<line x1="672" y1="148" x2="760" y2="148" stroke="#24292f" stroke-width="2" marker-end="url(#arrow)"/>
<rect x="760" y="116" width="150" height="64" rx="8" fill="#fbf0fb" stroke="#a33ea1" stroke-width="2"/>
<text x="835" y="146" text-anchor="middle" font-family="Georgia, Times New Roman, serif" font-size="14" font-style="italic" font-weight="700" fill="#24292f">P = <tspan font-style="normal">softmax</tspan>(S)</text>
<line x1="835" y1="182" x2="835" y2="240" stroke="#24292f" stroke-width="2" marker-end="url(#arrow)"/>
<line x1="428" y1="222" x2="760" y2="270" stroke="#24292f" stroke-width="2" marker-end="url(#arrow)"/>
<rect x="760" y="240" width="150" height="64" rx="8" fill="#fff5f0" stroke="#b85450" stroke-width="2"/>
<text x="835" y="270" text-anchor="middle" font-family="Georgia, Times New Roman, serif" font-size="14" font-style="italic" font-weight="700" fill="#24292f">Y = PV</text>
</svg>
