<svg viewBox="0 0 1000 360" xmlns="http://www.w3.org/2000/svg">
  <defs>
    <marker id="arrfa" viewBox="0 0 10 10" refX="9" refY="5" markerWidth="7" markerHeight="7" orient="auto"><path d="M0,0 L10,5 L0,10 z" fill="#555"/></marker>
  </defs>
  <!-- TRADITIONAL -->
  <text x="500" y="22" text-anchor="middle" font-family="sans-serif" font-weight="700" font-size="15" fill="#b85450">传统实现：5 个独立 kernel + 4 次 HBM round-trip + 3 次同步</text>
  <g font-family="sans-serif" font-size="11">
    <rect x="20"  y="40" width="160" height="60" rx="4" fill="#f8cecc" stroke="#b85450"/><text x="100" y="64" text-anchor="middle" font-weight="700">① EP Dispatch</text><text x="100" y="82" text-anchor="middle" fill="#4a1515">NVLink pull, HBM→HBM</text>
    <rect x="200" y="40" width="160" height="60" rx="4" fill="#f8cecc" stroke="#b85450"/><text x="280" y="64" text-anchor="middle" font-weight="700">② Linear1 GEMM</text><text x="280" y="82" text-anchor="middle" fill="#4a1515">FP8·FP4 → BF16</text>
    <rect x="380" y="40" width="160" height="60" rx="4" fill="#f8cecc" stroke="#b85450"/><text x="460" y="64" text-anchor="middle" font-weight="700">③ SwiGLU</text><text x="460" y="82" text-anchor="middle" fill="#4a1515">BF16→FP8 quant</text>
    <rect x="560" y="40" width="160" height="60" rx="4" fill="#f8cecc" stroke="#b85450"/><text x="640" y="64" text-anchor="middle" font-weight="700">④ Linear2 GEMM</text><text x="640" y="82" text-anchor="middle" fill="#4a1515">FP8·FP4 → BF16</text>
    <rect x="740" y="40" width="160" height="60" rx="4" fill="#f8cecc" stroke="#b85450"/><text x="820" y="64" text-anchor="middle" font-weight="700">⑤ EP Combine</text><text x="820" y="82" text-anchor="middle" fill="#4a1515">NVLink push, topK-sum</text>
  </g>
  <g stroke="#b85450" stroke-width="2" fill="none">
    <line x1="180" y1="70" x2="200" y2="70" marker-end="url(#arrfa)"/>
    <line x1="360" y1="70" x2="380" y2="70" marker-end="url(#arrfa)"/>
    <line x1="540" y1="70" x2="560" y2="70" marker-end="url(#arrfa)"/>
    <line x1="720" y1="70" x2="740" y2="70" marker-end="url(#arrfa)"/>
  </g>
  <g font-family="sans-serif" font-size="10" fill="#b85450" text-anchor="middle">
    <text x="190" y="62">HBM</text><text x="370" y="62">HBM</text><text x="550" y="62">HBM</text><text x="730" y="62">HBM</text>
  </g>
  <text x="500" y="130" text-anchor="middle" font-family="sans-serif" font-size="12" fill="#721c24">5× launch overhead (~20 µs) · 4× HBM round-trip · 通信与计算串行</text>

  <!-- MEGA -->
  <text x="500" y="170" text-anchor="middle" font-family="sans-serif" font-weight="700" font-size="15" fill="#1a3d1a">Mega MoE：1 个 persistent kernel，五段在 SMEM/TMEM 流水式衔接</text>
  <rect x="20" y="190" width="880" height="92" rx="6" fill="#eef7ee" stroke="#5fa55f" stroke-width="2"/>
  <g font-family="sans-serif" font-size="11">
    <rect x="40"  y="210" width="150" height="52" rx="3" fill="#d5e8d4" stroke="#5fa55f"/><text x="115" y="230" text-anchor="middle" font-weight="700">① Dispatch</text><text x="115" y="248" text-anchor="middle" fill="#1a3d1a">warp 0-3</text>
    <rect x="200" y="210" width="150" height="52" rx="3" fill="#d5e8d4" stroke="#5fa55f"/><text x="275" y="230" text-anchor="middle" font-weight="700">② Linear1</text><text x="275" y="248" text-anchor="middle" fill="#1a3d1a">UMMA + TMEM</text>
    <rect x="360" y="210" width="150" height="52" rx="3" fill="#d5e8d4" stroke="#5fa55f"/><text x="435" y="230" text-anchor="middle" font-weight="700">③ SwiGLU</text><text x="435" y="248" text-anchor="middle" fill="#1a3d1a">in-register + amax</text>
    <rect x="520" y="210" width="150" height="52" rx="3" fill="#d5e8d4" stroke="#5fa55f"/><text x="595" y="230" text-anchor="middle" font-weight="700">④ Linear2</text><text x="595" y="248" text-anchor="middle" fill="#1a3d1a">UMMA + TMEM</text>
    <rect x="680" y="210" width="200" height="52" rx="3" fill="#d5e8d4" stroke="#5fa55f"/><text x="780" y="230" text-anchor="middle" font-weight="700">⑤ Combine</text><text x="780" y="248" text-anchor="middle" fill="#1a3d1a">NVLink push + weighted-sum</text>
  </g>
  <g stroke="#5fa55f" stroke-width="1.8" fill="none">
    <line x1="190" y1="236" x2="200" y2="236" marker-end="url(#arrfa)"/>
    <line x1="350" y1="236" x2="360" y2="236" marker-end="url(#arrfa)"/>
    <line x1="510" y1="236" x2="520" y2="236" marker-end="url(#arrfa)"/>
    <line x1="670" y1="236" x2="680" y2="236" marker-end="url(#arrfa)"/>
  </g>
  <g font-family="sans-serif" font-size="10" fill="#1f5d1f" text-anchor="middle">
    <text x="195" y="206">SMEM</text><text x="355" y="206">reg</text><text x="515" y="206">SMEM</text><text x="675" y="206">SMEM</text>
  </g>
  <text x="500" y="310" text-anchor="middle" font-family="sans-serif" font-size="12" fill="#1a3d1a" font-weight="600">1 次 launch · 无中间 HBM round-trip · 通信与 GEMM 重叠</text>
  <text x="500" y="330" text-anchor="middle" font-family="sans-serif" font-size="12" fill="#1a3d1a">DeepSeek V3 (T=2048, 8×B200) vs DeepEP+Grouped-GEMM：~1.5× 端到端加速</text>
</svg>