<svg viewBox="0 0 1000 260" xmlns="http://www.w3.org/2000/svg">
  <text x="500" y="22" text-anchor="middle" font-family="sans-serif" font-weight="700" font-size="14" fill="#1f3a6f">L1 Epilogue：FP32 TMEM → SwiGLU → amax → UE8M0 量化 → FP8 SMEM → TMA Store</text>
  <defs>
    <marker id="arrs" viewBox="0 0 10 10" refX="9" refY="5" markerWidth="7" markerHeight="7" orient="auto"><path d="M0,0 L10,5 L0,10 z" fill="#a33ea1"/></marker>
  </defs>
  <g font-family="sans-serif" font-size="11">
    <rect x="20"  y="50" width="150" height="80" rx="4" fill="#fff2cc" stroke="#e0b300"/>
    <text x="95"  y="70" text-anchor="middle" font-weight="700" fill="#5a3f00">TMEM 累加器</text>
    <text x="95"  y="90" text-anchor="middle" font-size="10.5" fill="#5a3f00">[BLOCK_M, 2I] fp32</text>
    <text x="95"  y="108" text-anchor="middle" font-size="10.5" fill="#666">gate half + up half</text>

    <rect x="200" y="50" width="150" height="80" rx="4" fill="#f8d4e8" stroke="#a33ea1"/>
    <text x="275" y="70" text-anchor="middle" font-weight="700" fill="#4a1a48">Register</text>
    <text x="275" y="90" text-anchor="middle" font-size="10.5" fill="#4a1a48">gate fp32 / up fp32</text>
    <text x="275" y="108" text-anchor="middle" font-size="10.5" fill="#666">load_tmem 批量 256 col</text>

    <rect x="380" y="50" width="160" height="80" rx="4" fill="#d5e8d4" stroke="#5fa55f"/>
    <text x="460" y="70" text-anchor="middle" font-weight="700" fill="#1f5d1f">SwiGLU fuse</text>
    <text x="460" y="90" text-anchor="middle" font-size="10.5" fill="#1f5d1f">silu(gate)·up·topk_w</text>
    <text x="460" y="108" text-anchor="middle" font-size="10.5" fill="#666">+ activation clamp</text>

    <rect x="570" y="50" width="160" height="80" rx="4" fill="#e1f0ff" stroke="#4a6fd3"/>
    <text x="650" y="70" text-anchor="middle" font-weight="700" fill="#1f3a6f">amax + UE8M0</text>
    <text x="650" y="90" text-anchor="middle" font-size="10.5" fill="#1f3a6f">per-32-col 块</text>
    <text x="650" y="108" text-anchor="middle" font-size="10.5" fill="#666">warp shfl reduce</text>

    <rect x="760" y="50" width="220" height="80" rx="4" fill="#fde2e4" stroke="#b85450"/>
    <text x="870" y="70" text-anchor="middle" font-weight="700" fill="#4a1515">FP8 quant + pack</text>
    <text x="870" y="90" text-anchor="middle" font-size="10.5" fill="#4a1515">x/s → e4m3 · __nv_fp8x4 ·</text>
    <text x="870" y="108" text-anchor="middle" font-size="10.5" fill="#4a1515">SMEM 128-bit 对齐写</text>
  </g>
  <g stroke="#a33ea1" stroke-width="2" fill="none">
    <line x1="170" y1="90" x2="198" y2="90" marker-end="url(#arrs)"/>
    <line x1="350" y1="90" x2="378" y2="90" marker-end="url(#arrs)"/>
    <line x1="540" y1="90" x2="568" y2="90" marker-end="url(#arrs)"/>
    <line x1="730" y1="90" x2="758" y2="90" marker-end="url(#arrs)"/>
  </g>

  <!-- SMEM + TMA store -->
  <rect x="340" y="160" width="320" height="60" rx="4" fill="#fff2cc" stroke="#e0b300"/>
  <text x="500" y="180" text-anchor="middle" font-family="sans-serif" font-weight="700" fill="#5a3f00">STSM 写 SMEM staging</text>
  <text x="500" y="200" text-anchor="middle" font-family="sans-serif" font-size="10.5" fill="#5a3f00">[STORE_BLOCK_M, BLOCK_N] FP8 +  SF</text>

  <rect x="700" y="160" width="260" height="60" rx="4" fill="#d5e8d4" stroke="#5fa55f"/>
  <text x="830" y="180" text-anchor="middle" font-family="sans-serif" font-weight="700" fill="#1f5d1f">TMA store → HBM</text>
  <text x="830" y="200" text-anchor="middle" font-family="sans-serif" font-size="10.5" fill="#1f5d1f">l1_acts / l1_acts_sf (symm buffer)</text>

  <g stroke="#888" stroke-width="2" fill="none" marker-end="url(#arrs2)">
    <line x1="500" y1="130" x2="500" y2="160"/>
    <line x1="660" y1="190" x2="700" y2="190"/>
  </g>
  <defs><marker id="arrs2" viewBox="0 0 10 10" refX="9" refY="5" markerWidth="6" markerHeight="6" orient="auto"><path d="M0,0 L10,5 L0,10 z" fill="#888"/></marker></defs>
</svg>