<svg viewBox="0 0 1000 350" xmlns="http://www.w3.org/2000/svg">
<defs>
  <marker id="arrow" viewBox="0 0 10 10" refX="9" refY="5" markerWidth="7" markerHeight="7" orient="auto-start-reverse">
    <path d="M 0 0 L 10 5 L 0 10 z" fill="#24292f"/>
  </marker>
  <style>
    .title{font:700 24px sans-serif;fill:#24292f}
    .sub{font:400 13px sans-serif;fill:#57606a}
    .mono{font:500 13px ui-monospace,Menlo,monospace;fill:#24292f}
  </style>
</defs>
<text x="500" y="38" text-anchor="middle" font-family="sans-serif" font-size="24" font-weight="700" fill="#24292f">Wave-level overlap timeline</text>
<text x="92" y="116" text-anchor="end" font-family="sans-serif" font-size="13" font-weight="700" fill="#4a6fd3">Dispatch</text>
<text x="92" y="166" text-anchor="end" font-family="sans-serif" font-size="13" font-weight="700" fill="#5fa55f">L1</text>
<text x="92" y="216" text-anchor="end" font-family="sans-serif" font-size="13" font-weight="700" fill="#e0b300">L2</text>
<text x="92" y="266" text-anchor="end" font-family="sans-serif" font-size="13" font-weight="700" fill="#a33ea1">Combine</text>
<rect x="140" y="96" width="82" height="28" rx="4" fill="#eef7ff" stroke="#4a6fd3" stroke-width="1.5"/>
<text x="181" y="115" text-anchor="middle" font-family="sans-serif" font-size="11" font-weight="700" fill="#4a6fd3">w0</text>
<rect x="182" y="146" width="100" height="28" rx="4" fill="#f4faf4" stroke="#5fa55f" stroke-width="1.5"/>
<text x="232" y="165" text-anchor="middle" font-family="sans-serif" font-size="11" font-weight="700" fill="#5fa55f">w0</text>
<rect x="232" y="196" width="100" height="28" rx="4" fill="#fff8e7" stroke="#e0b300" stroke-width="1.5"/>
<text x="282" y="215" text-anchor="middle" font-family="sans-serif" font-size="11" font-weight="700" fill="#e0b300">w0</text>
<rect x="282" y="246" width="90" height="28" rx="4" fill="#fbf0fb" stroke="#a33ea1" stroke-width="1.5"/>
<text x="327" y="265" text-anchor="middle" font-family="sans-serif" font-size="11" font-weight="700" fill="#a33ea1">w0</text>
<rect x="310" y="96" width="82" height="28" rx="4" fill="#eef7ff" stroke="#4a6fd3" stroke-width="1.5"/>
<text x="351" y="115" text-anchor="middle" font-family="sans-serif" font-size="11" font-weight="700" fill="#4a6fd3">w1</text>
<rect x="352" y="146" width="100" height="28" rx="4" fill="#f4faf4" stroke="#5fa55f" stroke-width="1.5"/>
<text x="402" y="165" text-anchor="middle" font-family="sans-serif" font-size="11" font-weight="700" fill="#5fa55f">w1</text>
<rect x="402" y="196" width="100" height="28" rx="4" fill="#fff8e7" stroke="#e0b300" stroke-width="1.5"/>
<text x="452" y="215" text-anchor="middle" font-family="sans-serif" font-size="11" font-weight="700" fill="#e0b300">w1</text>
<rect x="452" y="246" width="90" height="28" rx="4" fill="#fbf0fb" stroke="#a33ea1" stroke-width="1.5"/>
<text x="497" y="265" text-anchor="middle" font-family="sans-serif" font-size="11" font-weight="700" fill="#a33ea1">w1</text>
<rect x="480" y="96" width="82" height="28" rx="4" fill="#eef7ff" stroke="#4a6fd3" stroke-width="1.5"/>
<text x="521" y="115" text-anchor="middle" font-family="sans-serif" font-size="11" font-weight="700" fill="#4a6fd3">w2</text>
<rect x="522" y="146" width="100" height="28" rx="4" fill="#f4faf4" stroke="#5fa55f" stroke-width="1.5"/>
<text x="572" y="165" text-anchor="middle" font-family="sans-serif" font-size="11" font-weight="700" fill="#5fa55f">w2</text>
<rect x="572" y="196" width="100" height="28" rx="4" fill="#fff8e7" stroke="#e0b300" stroke-width="1.5"/>
<text x="622" y="215" text-anchor="middle" font-family="sans-serif" font-size="11" font-weight="700" fill="#e0b300">w2</text>
<rect x="622" y="246" width="90" height="28" rx="4" fill="#fbf0fb" stroke="#a33ea1" stroke-width="1.5"/>
<text x="667" y="265" text-anchor="middle" font-family="sans-serif" font-size="11" font-weight="700" fill="#a33ea1">w2</text>
<rect x="650" y="96" width="82" height="28" rx="4" fill="#eef7ff" stroke="#4a6fd3" stroke-width="1.5"/>
<text x="691" y="115" text-anchor="middle" font-family="sans-serif" font-size="11" font-weight="700" fill="#4a6fd3">w3</text>
<rect x="692" y="146" width="100" height="28" rx="4" fill="#f4faf4" stroke="#5fa55f" stroke-width="1.5"/>
<text x="742" y="165" text-anchor="middle" font-family="sans-serif" font-size="11" font-weight="700" fill="#5fa55f">w3</text>
<rect x="742" y="196" width="100" height="28" rx="4" fill="#fff8e7" stroke="#e0b300" stroke-width="1.5"/>
<text x="792" y="215" text-anchor="middle" font-family="sans-serif" font-size="11" font-weight="700" fill="#e0b300">w3</text>
<rect x="792" y="246" width="90" height="28" rx="4" fill="#fbf0fb" stroke="#a33ea1" stroke-width="1.5"/>
<text x="837" y="265" text-anchor="middle" font-family="sans-serif" font-size="11" font-weight="700" fill="#a33ea1">w3</text>
<rect x="300" y="86" width="390" height="204" rx="8" fill="#ffffff" stroke="#5fa55f" stroke-width="2" stroke-dasharray="7 6"/>
<text x="495" y="316" text-anchor="middle" font-family="sans-serif" font-size="13" font-weight="500" fill="#57606a">steady state: previous combine + current L2 + next L1 + later dispatch overlap</text>
</svg>
