<svg viewBox="0 0 1000 360" xmlns="http://www.w3.org/2000/svg">
<defs>
  <marker id="arrow" viewBox="0 0 10 10" refX="9" refY="5" markerWidth="7" markerHeight="7" orient="auto-start-reverse">
    <path d="M 0 0 L 10 5 L 0 10 z" fill="#24292f"/>
  </marker>
  <style>
    .title{font:700 24px sans-serif;fill:#24292f}
    .sub{font:400 13px sans-serif;fill:#57606a}
    .mono{font:500 13px ui-monospace,Menlo,monospace;fill:#24292f}
  </style>
</defs>
<text x="500" y="38" text-anchor="middle" font-family="sans-serif" font-size="24" font-weight="700" fill="#24292f">Batch-size envelope</text>
<line x1="110" y1="250" x2="880" y2="250" stroke="#57606a" stroke-width="2" marker-end="url(#arrow)"/>
<line x1="110" y1="250" x2="110" y2="82" stroke="#57606a" stroke-width="2" marker-end="url(#arrow)"/>
<text x="900" y="255" text-anchor="middle" font-family="sans-serif" font-size="14" font-weight="700" fill="#57606a">T</text>
<text x="96" y="76" text-anchor="middle" font-family="sans-serif" font-size="13" font-weight="700" fill="#57606a">throughput</text>
<path d="M120 235 C230 228, 330 180, 470 135 C620 105, 720 104, 840 125" fill="none" stroke="#5fa55f" stroke-width="4"/>
<path d="M120 220 C360 214, 600 210, 850 207" fill="none" stroke="#b85450" stroke-width="3" stroke-dasharray="7 6"/>
<rect x="110" y="265" width="160" height="42" rx="8" fill="#fff5f0" stroke="#b85450" stroke-width="1.5"/>
<text x="190" y="292" text-anchor="middle" font-family="sans-serif" font-size="13" font-weight="700" fill="#b85450">too small</text>
<rect x="270" y="265" width="150" height="42" rx="8" fill="#fff8e7" stroke="#e0b300" stroke-width="1.5"/>
<text x="345" y="292" text-anchor="middle" font-family="sans-serif" font-size="13" font-weight="700" fill="#e0b300">breakeven</text>
<rect x="420" y="265" width="280" height="42" rx="8" fill="#f4faf4" stroke="#5fa55f" stroke-width="1.5"/>
<text x="560" y="292" text-anchor="middle" font-family="sans-serif" font-size="13" font-weight="700" fill="#5fa55f">sweet spot</text>
<rect x="700" y="265" width="180" height="42" rx="8" fill="#eef7ff" stroke="#4a6fd3" stroke-width="1.5"/>
<text x="790" y="292" text-anchor="middle" font-family="sans-serif" font-size="13" font-weight="700" fill="#4a6fd3">buffer bound</text>
<text x="500" y="334" text-anchor="middle" font-family="sans-serif" font-size="13" font-weight="500" fill="#57606a">Fixed barrier cost dominates left; symmetric buffer capacity dominates right.</text>
</svg>
