<svg viewBox="0 0 1000 300" xmlns="http://www.w3.org/2000/svg">
  <text x="500" y="22" text-anchor="middle" font-family="sans-serif" font-weight="700" font-size="14" fill="#1f3a6f">Batch Size 与 Mega MoE 收益曲线（示意）</text>
  <!-- axes -->
  <line x1="80"  y1="240" x2="920" y2="240" stroke="#666"/>
  <line x1="80"  y1="60"  x2="80"  y2="240" stroke="#666"/>
  <text x="940" y="244" font-family="sans-serif" font-size="11" fill="#666">T (tokens / rank)</text>
  <text x="85"  y="54"  font-family="sans-serif" font-size="11" fill="#666">↑ 相对吞吐</text>
  <!-- x marks -->
  <g font-family="sans-serif" font-size="10" fill="#666">
    <text x="150" y="256">64</text>
    <text x="260" y="256">128</text>
    <text x="370" y="256">256</text>
    <text x="500" y="256">1024</text>
    <text x="630" y="256">2048</text>
    <text x="760" y="256">4096</text>
    <text x="870" y="256">8192</text>
  </g>
  <!-- curve: traditional baseline (horizontal-ish) -->
  <path d="M 150 210 L 260 205 L 370 198 L 500 185 L 630 180 L 760 178 L 870 178" stroke="#b85450" stroke-width="2" fill="none"/>
  <text x="880" y="174" font-family="sans-serif" font-size="11" fill="#b85450" font-weight="700">传统 5-kernel</text>
  <!-- curve: Mega MoE -->
  <path d="M 150 228 L 260 210 L 370 155 L 500 110 L 630 90 L 760 95 L 870 115" stroke="#5fa55f" stroke-width="2" fill="none"/>
  <text x="880" y="108" font-family="sans-serif" font-size="11" fill="#5fa55f" font-weight="700">Mega MoE</text>

  <!-- regions -->
  <g font-family="sans-serif" font-size="10.5">
    <rect x="80"  y="60" width="200" height="180" fill="#fde2e4" opacity=".35"/>
    <text x="180" y="78" text-anchor="middle" fill="#721c24" font-weight="700">❌ 不推荐</text>
    <text x="180" y="94" text-anchor="middle" fill="#721c24">T&lt;128 · 固定开销占主导</text>

    <rect x="280" y="60" width="170" height="180" fill="#fff2cc" opacity=".45"/>
    <text x="365" y="78" text-anchor="middle" fill="#5a3f00" font-weight="700">⚠ Breakeven</text>
    <text x="365" y="94" text-anchor="middle" fill="#5a3f00">128 ≤ T &lt; 256</text>

    <rect x="450" y="60" width="300" height="180" fill="#d5e8d4" opacity=".45"/>
    <text x="600" y="78" text-anchor="middle" fill="#1a3d1a" font-weight="700">✅ 最佳 · 256 ≤ T ≤ 2048</text>
    <text x="600" y="94" text-anchor="middle" fill="#1a3d1a">通信完全被 GEMM 隐藏</text>

    <rect x="750" y="60" width="170" height="180" fill="#f8d4e8" opacity=".45"/>
    <text x="835" y="78" text-anchor="middle" fill="#4a1a48" font-weight="700">⚠ 内存受限</text>
    <text x="835" y="94" text-anchor="middle" fill="#4a1a48">SymmBuf &gt;3 GB</text>
  </g>

  <!-- breakeven formula -->
  <rect x="80" y="268" width="840" height="28" fill="#fffcf1" stroke="#d9b860"/>
  <text x="500" y="287" text-anchor="middle" font-family="sans-serif" font-size="11.5" fill="#5a3f00">T_breakeven ≈ <tspan font-family="monospace">24 µs / (0.14 µs/token + 20 µs/T)</tspan>  ≈ 161 tokens/rank  （固定开销 24 µs = grid_sync ×8 + nvlink_barrier ×3）</text>
</svg>