<svg viewBox="0 0 1000 240" xmlns="http://www.w3.org/2000/svg">
  <text x="500" y="22" text-anchor="middle" font-family="sans-serif" font-weight="700" font-size="14" fill="#1f3a6f">Combine：远端 rank 计算出的 topk 副本 → 源 rank 做 weighted sum</text>
  <defs><marker id="arrv" viewBox="0 0 10 10" refX="9" refY="5" markerWidth="7" markerHeight="7" orient="auto"><path d="M0,0 L10,5 L0,10 z" fill="#4a6fd3"/></marker></defs>
  <g font-family="sans-serif" font-size="11">
    <rect x="40"  y="50" width="180" height="60" rx="4" fill="#fde2e4" stroke="#b85450"/>
    <text x="130" y="70" text-anchor="middle" font-weight="700" fill="#4a1515">Rank 0 · expert e₀</text>
    <text x="130" y="88" text-anchor="middle" font-size="10.5" fill="#4a1515">算出 token t 的 y₀ (BF16)</text>
    <rect x="40"  y="120" width="180" height="60" rx="4" fill="#fde2e4" stroke="#b85450"/>
    <text x="130" y="140" text-anchor="middle" font-weight="700" fill="#4a1515">Rank 3 · expert e₁</text>
    <text x="130" y="158" text-anchor="middle" font-size="10.5" fill="#4a1515">算出 token t 的 y₁ (BF16)</text>
    <text x="130" y="200" text-anchor="middle" font-size="10.5" fill="#666">… rank 5 e₂ / rank 7 e₃ …</text>

    <rect x="360" y="80" width="280" height="80" rx="6" fill="#fff2cc" stroke="#e0b300"/>
    <text x="500" y="100" text-anchor="middle" font-weight="700" fill="#5a3f00">Source rank 的 l2_acts[topk_slot]</text>
    <text x="500" y="118" text-anchor="middle" font-size="10.5" fill="#5a3f00">NVLink push 写到 topk_idx 对应的槽</text>
    <text x="500" y="138" text-anchor="middle" font-size="10.5" fill="#666">每 token K 个槽，双缓冲用 combine_barriers</text>

    <rect x="720" y="80" width="240" height="80" rx="6" fill="#d5e8d4" stroke="#5fa55f"/>
    <text x="840" y="100" text-anchor="middle" font-weight="700" fill="#1f5d1f">TMA load + 加权求和</text>
    <text x="840" y="118" text-anchor="middle" font-size="10.5" fill="#1f5d1f">y_t = Σ s_k · y_k</text>
    <text x="840" y="138" text-anchor="middle" font-size="10.5" fill="#666">vectorized add in register</text>
  </g>
  <g stroke="#4a6fd3" stroke-width="2" fill="none">
    <path d="M 220 80 Q 300 80 360 110" marker-end="url(#arrv)"/>
    <path d="M 220 150 Q 300 150 360 130" marker-end="url(#arrv)"/>
    <line x1="640" y1="120" x2="720" y2="120" marker-end="url(#arrv)"/>
  </g>
  <text x="500" y="220" text-anchor="middle" font-family="sans-serif" font-size="12" fill="#333">写入用 <tspan font-family="monospace">combine_barriers</tspan> 做双缓冲；读用 TMA。源 rank 自己只读 NVLink 本地副本，不主动发网络请求 → 反向 pull 模式</text>
</svg>