<svg viewBox="0 0 1000 240" xmlns="http://www.w3.org/2000/svg">
  <text x="500" y="22" text-anchor="middle" font-family="sans-serif" font-weight="700" font-size="14" fill="#1f3a6f">grid_sync 的 bit31-flip 技巧：多轮复用同一个 counter，不 reset</text>
  <defs><marker id="arrg" viewBox="0 0 10 10" refX="9" refY="5" markerWidth="6" markerHeight="6" orient="auto"><path d="M0,0 L10,5 L0,10 z" fill="#888"/></marker></defs>
  <!-- 32-bit layout -->
  <g font-family="monospace" font-size="11">
    <rect x="80" y="50" width="820" height="40" fill="#fffcf1" stroke="#d9b860"/>
    <line x1="170" y1="50" x2="170" y2="90" stroke="#d9b860"/>
    <text x="125" y="75" text-anchor="middle" fill="#b85450" font-weight="700">bit31 (phase)</text>
    <text x="540" y="75" text-anchor="middle" fill="#5a3f00">bits 0-30 : 到达计数 (≤ 2³⁰)</text>
  </g>

  <!-- Round 0 -->
  <g font-family="sans-serif" font-size="11">
    <rect x="60"  y="110" width="200" height="100" rx="4" fill="#d5e8d4" stroke="#5fa55f"/>
    <text x="160" y="128" text-anchor="middle" font-weight="700" fill="#1f5d1f">Round 0 · phase=0</text>
    <text x="160" y="148" text-anchor="middle" font-size="10.5" fill="#333">atom.add.release.gpu 1</text>
    <text x="160" y="164" text-anchor="middle" font-size="10.5" fill="#333">leader: ld.acq → =N</text>
    <text x="160" y="180" text-anchor="middle" font-size="10.5" fill="#333">leader 翻 bit31 → phase=1</text>
    <text x="160" y="200" text-anchor="middle" font-size="10.5" fill="#666">其余 CTA 自旋等 bit31=1</text>

    <rect x="290" y="110" width="200" height="100" rx="4" fill="#e1f0ff" stroke="#4a6fd3"/>
    <text x="390" y="128" text-anchor="middle" font-weight="700" fill="#1f3a6f">Round 1 · phase=1</text>
    <text x="390" y="148" text-anchor="middle" font-size="10.5" fill="#333">atom.add.release.gpu 1</text>
    <text x="390" y="164" text-anchor="middle" font-size="10.5" fill="#333">期望 counter = 2N</text>
    <text x="390" y="180" text-anchor="middle" font-size="10.5" fill="#333">leader 翻 bit31 → phase=0</text>
    <text x="390" y="200" text-anchor="middle" font-size="10.5" fill="#666">无需 reset counter</text>

    <rect x="520" y="110" width="200" height="100" rx="4" fill="#fff2cc" stroke="#e0b300"/>
    <text x="620" y="128" text-anchor="middle" font-weight="700" fill="#5a3f00">Round 2 · phase=0</text>
    <text x="620" y="148" text-anchor="middle" font-size="10.5" fill="#333">…</text>
    <text x="620" y="168" text-anchor="middle" font-size="10.5" fill="#333">直到 2³⁰ / N 轮才溢出</text>
    <text x="620" y="188" text-anchor="middle" font-size="10.5" fill="#333">Mega MoE 典型 &lt; 100 轮</text>

    <rect x="750" y="110" width="200" height="100" rx="4" fill="#fde2e4" stroke="#b85450"/>
    <text x="850" y="128" text-anchor="middle" font-weight="700" fill="#4a1515">收益</text>
    <text x="850" y="148" text-anchor="middle" font-size="10.5" fill="#4a1515">✓ 免 memset 重置</text>
    <text x="850" y="164" text-anchor="middle" font-size="10.5" fill="#4a1515">✓ 抗 ABA（phase 单调）</text>
    <text x="850" y="180" text-anchor="middle" font-size="10.5" fill="#4a1515">✓ ld.acq 一次即可</text>
    <text x="850" y="196" text-anchor="middle" font-size="10.5" fill="#4a1515">相比原 atomicSub 热轮询</text>
    <text x="850" y="212" text-anchor="middle" font-size="10.5" fill="#4a1515">省 ~2–3 µs / kernel</text>
  </g>
  <g stroke="#888" stroke-width="1.5" fill="none">
    <line x1="260" y1="160" x2="288" y2="160" marker-end="url(#arrg)"/>
    <line x1="490" y1="160" x2="518" y2="160" marker-end="url(#arrg)"/>
    <line x1="720" y1="160" x2="748" y2="160" marker-end="url(#arrg)"/>
  </g>
</svg>