<svg viewBox="0 0 1000 380" xmlns="http://www.w3.org/2000/svg">
  <text x="500" y="22" text-anchor="middle" font-family="sans-serif" font-weight="700" font-size="15" fill="#1f3a6f">B200 / Mega MoE 内存层级与数据走向</text>
  <defs>
    <marker id="arrm" viewBox="0 0 10 10" refX="9" refY="5" markerWidth="7" markerHeight="7" orient="auto"><path d="M0,0 L10,5 L0,10 z" fill="#1f3a6f"/></marker>
    <marker id="arrm2" viewBox="0 0 10 10" refX="9" refY="5" markerWidth="7" markerHeight="7" orient="auto"><path d="M0,0 L10,5 L0,10 z" fill="#b85450"/></marker>
  </defs>
  <g font-family="sans-serif">
    <!-- HBM -->
    <rect x="40"  y="50" width="180" height="280" rx="6" fill="#fde2e4" stroke="#b85450"/>
    <text x="130" y="72" text-anchor="middle" font-weight="700" font-size="13" fill="#4a1515">HBM3e</text>
    <text x="130" y="90" text-anchor="middle" font-size="11" fill="#4a1515">192 GB · 8 TB/s</text>
    <g font-size="10.5" fill="#666">
      <text x="50"  y="120">· 权重 L1/L2 (FP4)</text>
      <text x="50"  y="138">· 权重 SF (UE8M0)</text>
      <text x="50"  y="156">· Symmetric buffer</text>
      <text x="50"  y="174">  (x, x_sf, topk…)</text>
      <text x="50"  y="192">· Y 输出 (BF16)</text>
    </g>
    <text x="130" y="230" text-anchor="middle" font-size="10.5" fill="#4a1515" font-weight="600">通过 TMA load/store</text>
    <text x="130" y="248" text-anchor="middle" font-size="10.5" fill="#4a1515" font-weight="600">batch = 1 TMA 指令</text>
    <text x="130" y="272" text-anchor="middle" font-size="10.5" fill="#666">Mega MoE 只碰：</text>
    <text x="130" y="288" text-anchor="middle" font-size="10.5" fill="#666">1× 权重读 + 1× Y 写</text>
    <text x="130" y="304" text-anchor="middle" font-size="10.5" fill="#666" font-style="italic">(传统方案 ≥4 次)</text>

    <!-- L2 -->
    <rect x="240" y="50" width="160" height="280" rx="6" fill="#e1f0ff" stroke="#4a6fd3"/>
    <text x="320" y="72" text-anchor="middle" font-weight="700" font-size="13" fill="#1f3a6f">L2 Cache</text>
    <text x="320" y="90" text-anchor="middle" font-size="11" fill="#1f3a6f">126 MB · ~12 TB/s</text>
    <g font-size="10.5" fill="#666">
      <text x="248"  y="120">· 权重自然驻留</text>
      <text x="248"  y="138">  (重复读多 wave)</text>
      <text x="248"  y="156">· TMA multicast dest</text>
      <text x="248"  y="174">· per-block counter</text>
      <text x="248"  y="192">· grid_sync atomics</text>
    </g>
    <text x="320" y="230" text-anchor="middle" font-size="10.5" fill="#1f3a6f" font-weight="600">persistent cache hint</text>
    <text x="320" y="248" text-anchor="middle" font-size="10.5" fill="#1f3a6f" font-weight="600">(cudaAccessPolicy)</text>

    <!-- SMEM -->
    <rect x="420" y="50" width="160" height="280" rx="6" fill="#d5e8d4" stroke="#5fa55f"/>
    <text x="500" y="72" text-anchor="middle" font-weight="700" font-size="13" fill="#1a3d1a">SMEM</text>
    <text x="500" y="90" text-anchor="middle" font-size="11" fill="#1a3d1a">228 KB/CTA · ≥30 TB/s</text>
    <g font-size="10.5" fill="#666">
      <text x="428"  y="120">· 6-stage TMA buffer</text>
      <text x="428"  y="138">  (A + B + SFA + SFB)</text>
      <text x="428"  y="156">· L1/L2 shared TMEM</text>
      <text x="428"  y="174">  epi staging</text>
      <text x="428"  y="192">· amax reduce scratch</text>
      <text x="428"  y="210">· mbarrier 对象</text>
    </g>
    <text x="500" y="250" text-anchor="middle" font-size="10.5" fill="#1a3d1a" font-weight="600">一次装不下 W 权重</text>
    <text x="500" y="268" text-anchor="middle" font-size="10.5" fill="#1a3d1a" font-weight="600">→ 必须 K-pipeline</text>

    <!-- TMEM -->
    <rect x="600" y="50" width="160" height="280" rx="6" fill="#fff2cc" stroke="#e0b300"/>
    <text x="680" y="72" text-anchor="middle" font-weight="700" font-size="13" fill="#5a3f00">TMEM (Tensor Mem)</text>
    <text x="680" y="90" text-anchor="middle" font-size="11" fill="#5a3f00">512 col × 128 row/CTA</text>
    <g font-size="10.5" fill="#666">
      <text x="608"  y="120">· UMMA accumulator</text>
      <text x="608"  y="138">  (FP32 partial sum)</text>
      <text x="608"  y="156">· TMEM pipeline</text>
      <text x="608"  y="174">  L1 / L2 共享分区</text>
      <text x="608"  y="192">· UTCCP fast SF copy</text>
    </g>
    <text x="680" y="240" text-anchor="middle" font-size="10.5" fill="#5a3f00" font-weight="600">Blackwell 新增：</text>
    <text x="680" y="258" text-anchor="middle" font-size="10.5" fill="#5a3f00" font-weight="600">UMMA 读写不占 Register</text>
    <text x="680" y="276" text-anchor="middle" font-size="10.5" fill="#666">→ WGMMA→UMMA 省 reg</text>

    <!-- Register -->
    <rect x="780" y="50" width="180" height="280" rx="6" fill="#f8d4e8" stroke="#a33ea1"/>
    <text x="870" y="72" text-anchor="middle" font-weight="700" font-size="13" fill="#4a1a48">Register</text>
    <text x="870" y="90" text-anchor="middle" font-size="11" fill="#4a1a48">255 / thread</text>
    <g font-size="10.5" fill="#666">
      <text x="790"  y="120">· SwiGLU in-register</text>
      <text x="790"  y="138">  fp32 gate*silu*up</text>
      <text x="790"  y="156">· amax tree reduce</text>
      <text x="790"  y="174">· FP32→FP8 cast</text>
      <text x="790"  y="192">· UE8M0 scale pack</text>
      <text x="790"  y="210">· STSM / TMA store</text>
      <text x="790"  y="228">  src 缓冲</text>
    </g>
    <text x="870" y="268" text-anchor="middle" font-size="10.5" fill="#4a1a48" font-weight="600">warp-specialized:</text>
    <text x="870" y="286" text-anchor="middle" font-size="10.5" fill="#4a1a48" font-weight="600">dealloc/realloc</text>
    <text x="870" y="304" text-anchor="middle" font-size="10.5" fill="#666">48→168 / 168→48</text>
  </g>
  <!-- arrows forward -->
  <g stroke="#1f3a6f" stroke-width="2" fill="none">
    <line x1="220" y1="170" x2="240" y2="170" marker-end="url(#arrm)"/>
    <line x1="400" y1="170" x2="420" y2="170" marker-end="url(#arrm)"/>
    <line x1="580" y1="170" x2="600" y2="170" marker-end="url(#arrm)"/>
    <line x1="760" y1="170" x2="780" y2="170" marker-end="url(#arrm)"/>
  </g>
  <!-- arrows backward (store) -->
  <g stroke="#b85450" stroke-width="1.5" fill="none" stroke-dasharray="5,3">
    <line x1="780" y1="210" x2="760" y2="210" marker-end="url(#arrm2)"/>
    <line x1="600" y1="210" x2="580" y2="210" marker-end="url(#arrm2)"/>
    <line x1="420" y1="210" x2="400" y2="210" marker-end="url(#arrm2)"/>
    <line x1="240" y1="210" x2="220" y2="210" marker-end="url(#arrm2)"/>
  </g>
  <text x="500" y="360" text-anchor="middle" font-family="sans-serif" font-size="11" fill="#666">实线=forward load　　虚线=store / epilogue 回写　　Mega MoE 在 HBM 上只来回一次（入 + 出）</text>
</svg>