<svg viewBox="0 0 1000 310" xmlns="http://www.w3.org/2000/svg">
<defs>
  <marker id="arrow" viewBox="0 0 10 10" refX="9" refY="5" markerWidth="7" markerHeight="7" orient="auto-start-reverse">
    <path d="M 0 0 L 10 5 L 0 10 z" fill="#24292f"/>
  </marker>
  <style>
    .title{font:700 24px sans-serif;fill:#24292f}
    .sub{font:400 13px sans-serif;fill:#57606a}
    .mono{font:500 13px ui-monospace,Menlo,monospace;fill:#24292f}
  </style>
</defs>
<text x="500" y="38" text-anchor="middle" font-family="sans-serif" font-size="24" font-weight="700" fill="#24292f">6-stage software pipeline</text>
<text x="500" y="70" text-anchor="middle" font-family="sans-serif" font-size="14" font-weight="500" fill="#57606a">Same block, three staggered producer-consumer rows</text>
<text x="70" y="110" text-anchor="end" font-family="sans-serif" font-size="14" font-weight="700" fill="#4a6fd3">TMA</text>
<text x="70" y="165" text-anchor="end" font-family="sans-serif" font-size="14" font-weight="700" fill="#e0b300">UMMA</text>
<text x="70" y="220" text-anchor="end" font-family="sans-serif" font-size="14" font-weight="700" fill="#a33ea1">Epilogue</text>
<rect x="120" y="88" width="82" height="32" rx="5" fill="#eef7ff" stroke="#4a6fd3" stroke-width="1.5"/>
<text x="161" y="109" text-anchor="middle" font-family="sans-serif" font-size="12" font-weight="700" fill="#4a6fd3">K0</text>
<rect x="165" y="143" width="82" height="32" rx="5" fill="#fff8e7" stroke="#e0b300" stroke-width="1.5"/>
<text x="206" y="164" text-anchor="middle" font-family="sans-serif" font-size="12" font-weight="700" fill="#e0b300">K0</text>
<rect x="212" y="198" width="82" height="32" rx="5" fill="#fbf0fb" stroke="#a33ea1" stroke-width="1.5"/>
<text x="253" y="219" text-anchor="middle" font-family="sans-serif" font-size="12" font-weight="700" fill="#a33ea1">K0</text>
<line x1="202" y1="121" x2="165" y2="143" stroke="#57606a" stroke-width="1.5" marker-end="url(#arrow)" stroke-dasharray="7 6"/>
<line x1="247" y1="176" x2="212" y2="198" stroke="#57606a" stroke-width="1.5" marker-end="url(#arrow)" stroke-dasharray="7 6"/>
<rect x="240" y="88" width="82" height="32" rx="5" fill="#eef7ff" stroke="#4a6fd3" stroke-width="1.5"/>
<text x="281" y="109" text-anchor="middle" font-family="sans-serif" font-size="12" font-weight="700" fill="#4a6fd3">K1</text>
<rect x="285" y="143" width="82" height="32" rx="5" fill="#fff8e7" stroke="#e0b300" stroke-width="1.5"/>
<text x="326" y="164" text-anchor="middle" font-family="sans-serif" font-size="12" font-weight="700" fill="#e0b300">K1</text>
<rect x="332" y="198" width="82" height="32" rx="5" fill="#fbf0fb" stroke="#a33ea1" stroke-width="1.5"/>
<text x="373" y="219" text-anchor="middle" font-family="sans-serif" font-size="12" font-weight="700" fill="#a33ea1">K1</text>
<line x1="322" y1="121" x2="285" y2="143" stroke="#57606a" stroke-width="1.5" marker-end="url(#arrow)" stroke-dasharray="7 6"/>
<line x1="367" y1="176" x2="332" y2="198" stroke="#57606a" stroke-width="1.5" marker-end="url(#arrow)" stroke-dasharray="7 6"/>
<rect x="360" y="88" width="82" height="32" rx="5" fill="#eef7ff" stroke="#4a6fd3" stroke-width="1.5"/>
<text x="401" y="109" text-anchor="middle" font-family="sans-serif" font-size="12" font-weight="700" fill="#4a6fd3">K2</text>
<rect x="405" y="143" width="82" height="32" rx="5" fill="#fff8e7" stroke="#e0b300" stroke-width="1.5"/>
<text x="446" y="164" text-anchor="middle" font-family="sans-serif" font-size="12" font-weight="700" fill="#e0b300">K2</text>
<rect x="452" y="198" width="82" height="32" rx="5" fill="#fbf0fb" stroke="#a33ea1" stroke-width="1.5"/>
<text x="493" y="219" text-anchor="middle" font-family="sans-serif" font-size="12" font-weight="700" fill="#a33ea1">K2</text>
<line x1="442" y1="121" x2="405" y2="143" stroke="#57606a" stroke-width="1.5" marker-end="url(#arrow)" stroke-dasharray="7 6"/>
<line x1="487" y1="176" x2="452" y2="198" stroke="#57606a" stroke-width="1.5" marker-end="url(#arrow)" stroke-dasharray="7 6"/>
<rect x="480" y="88" width="82" height="32" rx="5" fill="#eef7ff" stroke="#4a6fd3" stroke-width="1.5"/>
<text x="521" y="109" text-anchor="middle" font-family="sans-serif" font-size="12" font-weight="700" fill="#4a6fd3">K3</text>
<rect x="525" y="143" width="82" height="32" rx="5" fill="#fff8e7" stroke="#e0b300" stroke-width="1.5"/>
<text x="566" y="164" text-anchor="middle" font-family="sans-serif" font-size="12" font-weight="700" fill="#e0b300">K3</text>
<rect x="572" y="198" width="82" height="32" rx="5" fill="#fbf0fb" stroke="#a33ea1" stroke-width="1.5"/>
<text x="613" y="219" text-anchor="middle" font-family="sans-serif" font-size="12" font-weight="700" fill="#a33ea1">K3</text>
<line x1="562" y1="121" x2="525" y2="143" stroke="#57606a" stroke-width="1.5" marker-end="url(#arrow)" stroke-dasharray="7 6"/>
<line x1="607" y1="176" x2="572" y2="198" stroke="#57606a" stroke-width="1.5" marker-end="url(#arrow)" stroke-dasharray="7 6"/>
<rect x="600" y="88" width="82" height="32" rx="5" fill="#eef7ff" stroke="#4a6fd3" stroke-width="1.5"/>
<text x="641" y="109" text-anchor="middle" font-family="sans-serif" font-size="12" font-weight="700" fill="#4a6fd3">K4</text>
<rect x="645" y="143" width="82" height="32" rx="5" fill="#fff8e7" stroke="#e0b300" stroke-width="1.5"/>
<text x="686" y="164" text-anchor="middle" font-family="sans-serif" font-size="12" font-weight="700" fill="#e0b300">K4</text>
<rect x="692" y="198" width="82" height="32" rx="5" fill="#fbf0fb" stroke="#a33ea1" stroke-width="1.5"/>
<text x="733" y="219" text-anchor="middle" font-family="sans-serif" font-size="12" font-weight="700" fill="#a33ea1">K4</text>
<line x1="682" y1="121" x2="645" y2="143" stroke="#57606a" stroke-width="1.5" marker-end="url(#arrow)" stroke-dasharray="7 6"/>
<line x1="727" y1="176" x2="692" y2="198" stroke="#57606a" stroke-width="1.5" marker-end="url(#arrow)" stroke-dasharray="7 6"/>
<rect x="720" y="88" width="82" height="32" rx="5" fill="#eef7ff" stroke="#4a6fd3" stroke-width="1.5"/>
<text x="761" y="109" text-anchor="middle" font-family="sans-serif" font-size="12" font-weight="700" fill="#4a6fd3">K5</text>
<rect x="765" y="143" width="82" height="32" rx="5" fill="#fff8e7" stroke="#e0b300" stroke-width="1.5"/>
<text x="806" y="164" text-anchor="middle" font-family="sans-serif" font-size="12" font-weight="700" fill="#e0b300">K5</text>
<rect x="812" y="198" width="82" height="32" rx="5" fill="#fbf0fb" stroke="#a33ea1" stroke-width="1.5"/>
<text x="853" y="219" text-anchor="middle" font-family="sans-serif" font-size="12" font-weight="700" fill="#a33ea1">K5</text>
<line x1="802" y1="121" x2="765" y2="143" stroke="#57606a" stroke-width="1.5" marker-end="url(#arrow)" stroke-dasharray="7 6"/>
<line x1="847" y1="176" x2="812" y2="198" stroke="#57606a" stroke-width="1.5" marker-end="url(#arrow)" stroke-dasharray="7 6"/>
<rect x="780" y="92" width="70" height="26" rx="15" fill="#5fa55f" stroke="#5fa55f" stroke-width="1.5"/><text x="815.0" y="112" text-anchor="middle" font-family="sans-serif" font-size="12" font-weight="700" fill="#fff">full</text>
<rect x="780" y="147" width="86" height="26" rx="15" fill="#e0b300" stroke="#e0b300" stroke-width="1.5"/><text x="823.0" y="167" text-anchor="middle" font-family="sans-serif" font-size="12" font-weight="700" fill="#fff">commit</text>
<rect x="780" y="202" width="78" height="26" rx="15" fill="#4a6fd3" stroke="#4a6fd3" stroke-width="1.5"/><text x="819.0" y="222" text-anchor="middle" font-family="sans-serif" font-size="12" font-weight="700" fill="#fff">empty</text>
<text x="500" y="278" text-anchor="middle" font-family="sans-serif" font-size="13" font-weight="500" fill="#57606a">mbarrier does not remove waiting; it places waiting behind useful work.</text>
</svg>
