<svg viewBox="0 0 1000 300" xmlns="http://www.w3.org/2000/svg">
  <text x="500" y="22" text-anchor="middle" font-family="sans-serif" font-weight="700" font-size="14" fill="#1f3a6f">EP=8 NVLink Dispatch：rank 0 按 token 列表主动 PULL 远端 x/x_sf</text>
  <defs>
    <marker id="arrn" viewBox="0 0 10 10" refX="9" refY="5" markerWidth="7" markerHeight="7" orient="auto"><path d="M0,0 L10,5 L0,10 z" fill="#4a6fd3"/></marker>
  </defs>
  <g font-family="sans-serif" font-size="11">
    <rect x="40"  y="50" width="140" height="210" rx="6" fill="#d5e8d4" stroke="#5fa55f" stroke-width="2"/>
    <text x="110" y="72" text-anchor="middle" font-weight="700" font-size="13" fill="#1f5d1f">Rank 0 (本 GPU)</text>
    <text x="110" y="92" text-anchor="middle" font-size="10.5" fill="#1f5d1f">运行 Mega MoE</text>
    <g fill="#555" font-size="10.5">
      <text x="50" y="120">symm_buffer (自):</text>
      <text x="50" y="138">· x / x_sf / topk</text>
      <text x="50" y="156">· l1_acts (gather to)</text>
      <text x="50" y="174">· l2_acts (combine in)</text>
      <text x="50" y="196">sym_buffer_ptrs[8]:</text>
      <text x="50" y="214">指向 rank 1-7 同名 buffer</text>
    </g>
    <!-- 7 remote ranks -->
    <g font-family="sans-serif" font-size="10.5">
      <rect x="260" y="50" width="110" height="44" rx="4" fill="#fde2e4" stroke="#b85450"/>
      <text x="315" y="68" text-anchor="middle" font-weight="700" fill="#4a1515">Rank 1</text>
      <text x="315" y="84" text-anchor="middle" fill="#4a1515">x / x_sf / topk</text>
      <rect x="260" y="106" width="110" height="44" rx="4" fill="#fde2e4" stroke="#b85450"/>
      <text x="315" y="124" text-anchor="middle" font-weight="700" fill="#4a1515">Rank 2</text>
      <rect x="260" y="162" width="110" height="44" rx="4" fill="#fde2e4" stroke="#b85450"/>
      <text x="315" y="180" text-anchor="middle" font-weight="700" fill="#4a1515">Rank 3</text>
      <text x="315" y="228" text-anchor="middle" fill="#666">…</text>
      <rect x="260" y="244" width="110" height="44" rx="4" fill="#fde2e4" stroke="#b85450"/>
      <text x="315" y="262" text-anchor="middle" font-weight="700" fill="#4a1515">Rank 7</text>
    </g>
    <!-- NVLink arrows -->
    <g stroke="#4a6fd3" stroke-width="2" fill="none">
      <line x1="180" y1="80"  x2="258" y2="72"  marker-end="url(#arrn)"/>
      <line x1="180" y1="120" x2="258" y2="128" marker-end="url(#arrn)"/>
      <line x1="180" y1="160" x2="258" y2="184" marker-end="url(#arrn)"/>
      <line x1="180" y1="240" x2="258" y2="266" marker-end="url(#arrn)"/>
    </g>
    <text x="225" y="68" font-size="10" fill="#1f3a6f">TMA pull</text>

    <!-- description -->
    <rect x="430" y="50" width="540" height="230" rx="6" fill="#fff2cc" stroke="#e0b300"/>
    <text x="440" y="72" font-weight="700" fill="#5a3f00">为什么是 PULL 而不是 PUSH？</text>
    <g fill="#5a3f00" font-size="10.5">
      <text x="440" y="96">① 接收端最清楚 "我要哪些 token" —— 直接按 expert 计数读，无需远端协作</text>
      <text x="440" y="116">② NVLink TMA pull 可写 SMEM (transaction barrier 天然支持)</text>
      <text x="440" y="136">③ PUSH 要求发送端先做 expert 分组，等价于提前一次 expert counting</text>
      <text x="440" y="160" font-weight="700">symmetric memory 的核心</text>
      <text x="440" y="180">· 所有 rank 的 buffer 偏移相同 → 只用一个 <tspan font-family="monospace">rank_idx</tspan> 就能寻址</text>
      <text x="440" y="200">· <tspan font-family="monospace">torch.distributed._symmetric_memory</tspan> 通过 <tspan font-family="monospace">rendezvous</tspan> 注册</text>
      <text x="440" y="220">· 8 GPU NVLink5 bi-direction 峰值 ~900 GB/s</text>
      <text x="440" y="244" font-weight="700">时序：</text>
      <text x="440" y="262">barrier_0 → count expert → barrier_1 → pull token → barrier_2 → …</text>
    </g>
  </g>
</svg>