<svg viewBox="0 0 1000 340" xmlns="http://www.w3.org/2000/svg">
  <text x="500" y="22" text-anchor="middle" font-family="sans-serif" font-weight="700" font-size="14" fill="#1f3a6f">六类同步原语，各司其职</text>
  <g font-family="sans-serif" font-size="11">
    <!-- mbarrier SMEM -->
    <rect x="20"  y="50" width="220" height="120" rx="6" fill="#d5e8d4" stroke="#5fa55f"/>
    <text x="130" y="72" text-anchor="middle" font-weight="700" font-size="13" fill="#1f5d1f">mbarrier (SMEM)</text>
    <g fill="#333" font-size="10.5">
      <text x="28" y="94">scope: CTA / cluster</text>
      <text x="28" y="112">lat: 100-200 cycles</text>
      <text x="28" y="130">用途: TMA↔MMA↔Epi</text>
      <text x="28" y="148">特性: phase bit + tx count</text>
      <text x="28" y="164">实例: full_/empty_/tmem_/</text>
    </g>
    <!-- Named bar -->
    <rect x="260" y="50" width="220" height="120" rx="6" fill="#e1f0ff" stroke="#4a6fd3"/>
    <text x="370" y="72" text-anchor="middle" font-weight="700" font-size="13" fill="#1f3a6f">Named bar (bar.sync)</text>
    <g fill="#333" font-size="10.5">
      <text x="268" y="94">scope: CTA</text>
      <text x="268" y="112">lat: ~40 cycles</text>
      <text x="268" y="130">用途: warp 间 WG barrier</text>
      <text x="268" y="148">特性: 16 个独立 id</text>
      <text x="268" y="164">实例: id=0/1/14/15</text>
    </g>
    <!-- TMEM barrier -->
    <rect x="500" y="50" width="220" height="120" rx="6" fill="#fff2cc" stroke="#e0b300"/>
    <text x="610" y="72" text-anchor="middle" font-weight="700" font-size="13" fill="#5a3f00">tcgen05.commit</text>
    <g fill="#333" font-size="10.5">
      <text x="508" y="94">scope: CTA (UMMA issuer)</text>
      <text x="508" y="112">lat: ~数百 cycles</text>
      <text x="508" y="130">用途: UMMA → Epi (TMEM)</text>
      <text x="508" y="148">特性: 异步 arrive</text>
      <text x="508" y="164">实例: tmem_full_barriers</text>
    </g>
    <!-- grid sync -->
    <rect x="20"  y="190" width="220" height="130" rx="6" fill="#fde2e4" stroke="#b85450"/>
    <text x="130" y="212" text-anchor="middle" font-weight="700" font-size="13" fill="#4a1515">grid_sync (atomic)</text>
    <g fill="#333" font-size="10.5">
      <text x="28" y="234">scope: grid-wide</text>
      <text x="28" y="252">lat: 1-10 µs</text>
      <text x="28" y="270">用途: cross-CTA 数据依赖</text>
      <text x="28" y="288">特性: bit31-flip + ld.acq</text>
      <text x="28" y="306">实例: l1→l2 · post-L2 · combine</text>
    </g>
    <!-- NVLink barrier -->
    <rect x="260" y="190" width="220" height="130" rx="6" fill="#f8d4e8" stroke="#a33ea1"/>
    <text x="370" y="212" text-anchor="middle" font-weight="700" font-size="13" fill="#4a1a48">nvlink_barrier</text>
    <g fill="#333" font-size="10.5">
      <text x="268" y="234">scope: EP ranks</text>
      <text x="268" y="252">lat: 2-8 µs</text>
      <text x="268" y="270">用途: dispatch / combine</text>
      <text x="268" y="288">特性: symm 上 atomic 计数</text>
      <text x="268" y="306">实例: 3 次 / kernel</text>
    </g>
    <!-- per-block -->
    <rect x="500" y="190" width="220" height="130" rx="6" fill="#ffe0b2" stroke="#d27d00"/>
    <text x="610" y="212" text-anchor="middle" font-weight="700" font-size="13" fill="#6b3e00">per-block arrival</text>
    <g fill="#333" font-size="10.5">
      <text x="508" y="234">scope: CTA 之间</text>
      <text x="508" y="252">lat: ~1 µs (spin)</text>
      <text x="508" y="270">用途: Dispatch → TMA-A</text>
      <text x="508" y="288">          L1 → L2</text>
      <text x="508" y="306">实例: l1_arrival_count / mask</text>
    </g>
    <!-- cluster sync -->
    <rect x="740" y="50" width="240" height="270" rx="6" fill="#f6f8fa" stroke="#333"/>
    <text x="860" y="72" text-anchor="middle" font-weight="700" font-size="13">死锁预防的三道防线</text>
    <g font-size="10.5" fill="#333">
      <text x="748" y="96">1) <tspan font-weight="700">init_count=4</tspan> 不是 2</text>
      <text x="760" y="112">→ 冷启动时 MMA 可以超发</text>
      <text x="760" y="128">   但不会被 empty 阻塞</text>
      <text x="748" y="152">2) <tspan font-weight="700">named bar id=1</tspan></text>
      <text x="760" y="168">   (<tspan font-family="monospace">kDispatchWithEpi</tspan>)</text>
      <text x="760" y="184">   让 Dispatch 与 Epilogue</text>
      <text x="760" y="200">   在 wave 结束处会合</text>
      <text x="748" y="224">3) <tspan font-weight="700">bit31 flip</tspan> 抗 ABA</text>
      <text x="760" y="240">   grid_sync 可多轮复用</text>
      <text x="760" y="256">   同一个 counter 无需重置</text>
    </g>
  </g>
</svg>