<svg style="width:100%;height:auto;background:#fffefb;border:1px solid #d9b860;border-radius:4px;font-family:-apple-system,sans-serif;" viewbox="0 0 1280 740" xmlns="http://www.w3.org/2000/svg">
<defs>
<marker id="arrk" markerheight="7" markerwidth="7" orient="auto" refx="9" refy="5" viewbox="0 0 10 10"><path d="M0,0 L10,5 L0,10 z" fill="#222"></path></marker>
<marker id="arrkr" markerheight="6" markerwidth="6" orient="auto" refx="9" refy="5" viewbox="0 0 10 10"><path d="M0,0 L10,5 L0,10 z" fill="#888"></path></marker>
</defs>
<!-- Legend -->
<g font-size="11">
<rect fill="#fff8d5" height="14" stroke="#e0b300" stroke-width="1.5" width="20" x="20" y="14"></rect>
<text x="46" y="25">kernel</text>
<rect fill="#dae8fc" height="14" stroke="#6c8ebf" width="20" x="100" y="14"></rect>
<text x="126" y="25">intermediate / weight</text>
<rect fill="#dae8fc" height="14" stroke="#b85450" stroke-width="2" width="20" x="265" y="14"></rect>
<text fill="#b85450" font-weight="600" x="291" y="25">cached for backward</text>
<rect fill="#e1d5e7" height="14" stroke="#9673a6" stroke-width="2" width="20" x="455" y="14"></rect>
<text fill="#5a3475" font-weight="600" x="481" y="25">output</text>
</g>
<!-- ============ FORWARD ============ -->
<text fill="#444" font-size="14" font-weight="700" x="20" y="64">Forward pass · 6 kernels</text>
<!-- π input above Gather -->
<text fill="#b85450" font-size="13" font-style="italic" font-weight="700" text-anchor="middle" x="135" y="78">π</text>
<line marker-end="url(#arrk)" stroke="#222" stroke-width="1.3" x1="135" x2="135" y1="84" y2="100"></line>
<!-- W₁ -->
<text font-size="13" font-style="italic" text-anchor="middle" x="365" y="78">W₁</text>
<line marker-end="url(#arrk)" stroke="#222" stroke-width="1.3" x1="365" x2="365" y1="84" y2="100"></line>
<!-- W₂ -->
<text font-size="13" font-style="italic" text-anchor="middle" x="755" y="78">W₂</text>
<line marker-end="url(#arrk)" stroke="#222" stroke-width="1.3" x1="755" x2="755" y1="84" y2="100"></line>
<!-- π for scatter -->
<text fill="#b85450" font-size="13" font-style="italic" font-weight="700" text-anchor="middle" x="945" y="78">π</text>
<line marker-end="url(#arrk)" stroke="#222" stroke-width="1.3" x1="945" x2="945" y1="84" y2="100"></line>
<!-- π, S for aggregation -->
<text font-size="13" text-anchor="middle" x="1115" y="78"><tspan fill="#b85450" font-style="italic" font-weight="700">π</tspan>, <tspan fill="#b85450" font-style="italic" font-weight="700">S</tspan></text>
<line marker-end="url(#arrk)" stroke="#222" stroke-width="1.3" x1="1115" x2="1115" y1="84" y2="100"></line>
<!-- X (input, cached red) -->
<rect fill="#dae8fc" height="40" stroke="#b85450" stroke-width="2" width="55" x="10" y="125"></rect>
<text fill="#b85450" font-size="14" font-style="italic" font-weight="700" text-anchor="middle" x="38" y="150">X</text>
<text fill="#b85450" font-size="9" font-weight="700" text-anchor="middle" x="38" y="183">cached</text>
<line marker-end="url(#arrk)" stroke="#222" stroke-width="1.3" x1="65" x2="80" y1="145" y2="145"></line>
<!-- Gather kernel -->
<rect fill="#fff8d5" height="90" rx="6" stroke="#e0b300" stroke-width="1.5" width="110" x="80" y="100"></rect>
<text font-size="12" font-weight="600" text-anchor="middle" x="135" y="148">Gather</text>
<line marker-end="url(#arrk)" stroke="#222" stroke-width="1.3" x1="190" x2="205" y1="145" y2="145"></line>
<!-- X̃ (cached) -->
<rect fill="#dae8fc" height="40" stroke="#b85450" stroke-width="2" width="70" x="205" y="125"></rect>
<text fill="#b85450" font-size="14" font-style="italic" font-weight="700" text-anchor="middle" x="240" y="150">X̃</text>
<text fill="#b85450" font-size="9" font-weight="700" text-anchor="middle" x="240" y="183">cached · [TK,d] 2GB</text>
<line marker-end="url(#arrk)" stroke="#222" stroke-width="1.3" x1="275" x2="290" y1="145" y2="145"></line>
<!-- Up-proj GEMM kernel -->
<rect fill="#fff8d5" height="90" rx="6" stroke="#e0b300" stroke-width="1.5" width="150" x="290" y="100"></rect>
<text font-size="12" font-weight="600" text-anchor="middle" x="365" y="142">Up-proj</text>
<text fill="#7a4e00" font-size="11" font-style="italic" text-anchor="middle" x="365" y="158">Varlen-M Grouped GEMM</text>
<line marker-end="url(#arrk)" stroke="#222" stroke-width="1.3" x1="440" x2="455" y1="145" y2="145"></line>
<!-- H (cached) -->
<rect fill="#dae8fc" height="40" stroke="#b85450" stroke-width="2" width="60" x="455" y="125"></rect>
<text fill="#b85450" font-size="14" font-style="italic" font-weight="700" text-anchor="middle" x="485" y="150">H</text>
<text fill="#b85450" font-size="9" font-weight="700" text-anchor="middle" x="485" y="183">cached · 1.5GB</text>
<line marker-end="url(#arrk)" stroke="#222" stroke-width="1.3" x1="515" x2="530" y1="145" y2="145"></line>
<!-- Act func kernel -->
<rect fill="#fff8d5" height="90" rx="6" stroke="#e0b300" stroke-width="1.5" width="100" x="530" y="100"></rect>
<text font-size="12" font-weight="600" text-anchor="middle" x="580" y="148">Act func</text>
<line marker-end="url(#arrk)" stroke="#222" stroke-width="1.3" x1="630" x2="645" y1="145" y2="145"></line>
<!-- A (cached) -->
<rect fill="#dae8fc" height="40" stroke="#b85450" stroke-width="2" width="60" x="645" y="125"></rect>
<text fill="#b85450" font-size="14" font-style="italic" font-weight="700" text-anchor="middle" x="675" y="150">A</text>
<text fill="#b85450" font-size="9" font-weight="700" text-anchor="middle" x="675" y="183">cached · 768MB</text>
<line stroke="none" x1="705" x2="680" y1="145" y2="145"></line>
<line marker-end="url(#arrk)" stroke="#222" stroke-width="1.3" x1="705" x2="720" y1="145" y2="145"></line>
<!-- Down-proj GEMM kernel -->
<rect fill="#fff8d5" height="90" rx="6" stroke="#e0b300" stroke-width="1.5" width="150" x="720" y="100"></rect>
<text font-size="12" font-weight="600" text-anchor="middle" x="795" y="142">Down-proj</text>
<text fill="#7a4e00" font-size="11" font-style="italic" text-anchor="middle" x="795" y="158">Varlen-M Grouped GEMM</text>
<line marker-end="url(#arrk)" stroke="#222" stroke-width="1.3" x1="870" x2="885" y1="145" y2="145"></line>
<!-- Y (cached) -->
<rect fill="#dae8fc" height="40" stroke="#b85450" stroke-width="2" width="60" x="885" y="125"></rect>
<text fill="#b85450" font-size="14" font-style="italic" font-weight="700" text-anchor="middle" x="915" y="150">Y</text>
<text fill="#b85450" font-size="9" font-weight="700" text-anchor="middle" x="915" y="183">cached · 2GB ⚠</text>
<line marker-end="url(#arrk)" stroke="#222" stroke-width="1.3" x1="945" x2="960" y1="145" y2="145"></line>
<!-- Scatter kernel -->
<rect fill="#fff8d5" height="90" rx="6" stroke="#e0b300" stroke-width="1.5" width="100" x="960" y="100"></rect>
<text font-size="12" font-weight="600" text-anchor="middle" x="1010" y="148">Scatter</text>
<line marker-end="url(#arrk)" stroke="#222" stroke-width="1.3" x1="1060" x2="1075" y1="145" y2="145"></line>
<!-- Ỹ (cached) -->
<rect fill="#dae8fc" height="40" stroke="#b85450" stroke-width="2" width="60" x="1075" y="125"></rect>
<text fill="#b85450" font-size="14" font-style="italic" font-weight="700" text-anchor="middle" x="1105" y="150">Ỹ</text>
<text fill="#b85450" font-size="9" font-weight="700" text-anchor="middle" x="1105" y="183">cached · 2GB</text>
<line marker-end="url(#arrk)" stroke="#222" stroke-width="1.3" x1="1135" x2="1150" y1="145" y2="145"></line>
<!-- Aggregation kernel -->
<rect fill="#fff8d5" height="90" rx="6" stroke="#e0b300" stroke-width="1.5" width="100" x="1150" y="100"></rect>
<text font-size="12" font-weight="600" text-anchor="middle" x="1200" y="142">Each token</text>
<text fill="#7a4e00" font-size="11" text-anchor="middle" x="1200" y="156">sums weighted</text>
<text fill="#7a4e00" font-size="11" text-anchor="middle" x="1200" y="170">expert outputs</text>
<line marker-end="url(#arrk)" stroke="#222" stroke-width="1.3" x1="1200" x2="1200" y1="190" y2="205"></line>
<!-- O (output, purple) -->
<rect fill="#e1d5e7" height="40" stroke="#9673a6" stroke-width="2" width="60" x="1170" y="205"></rect>
<text fill="#5a3475" font-size="14" font-style="italic" font-weight="700" text-anchor="middle" x="1200" y="230">O</text>
<text fill="#5a3475" font-size="9" font-weight="700" text-anchor="middle" x="1200" y="262">output</text>
<!-- Forward summary -->
<text fill="#b85450" font-size="12" font-weight="700" text-anchor="middle" x="640" y="310">⚠ 5 个 cached O(TKd) 张量：X̃ + H + A + Y + Ỹ ≈ 8.3 GB / 层</text>
<!-- Divider -->
<line stroke="#999" stroke-dasharray="4,4" stroke-width="0.5" x1="20" x2="1260" y1="335" y2="335"></line>
<!-- ============ BACKWARD ACT GRAD ============ -->
<text fill="#444" font-size="14" font-weight="700" x="20" y="365">Backward pass — activation gradient · 6 kernels (right → left)</text>
<!-- W₂ above down-proj act grad -->
<text font-size="13" font-style="italic" text-anchor="middle" x="755" y="380">W₂</text>
<line marker-end="url(#arrk)" stroke="#222" stroke-width="1.3" x1="755" x2="755" y1="386" y2="402"></line>
<!-- W₁ above up-proj act grad -->
<text font-size="13" font-style="italic" text-anchor="middle" x="365" y="380">W₁</text>
<line marker-end="url(#arrk)" stroke="#222" stroke-width="1.3" x1="365" x2="365" y1="386" y2="402"></line>
<!-- π,S above aggregation back -->
<text font-size="13" text-anchor="middle" x="1115" y="380"><tspan fill="#b85450" font-style="italic" font-weight="700">π</tspan>, <tspan fill="#b85450" font-style="italic" font-weight="700">S</tspan></text>
<line marker-end="url(#arrk)" stroke="#222" stroke-width="1.3" x1="1115" x2="1115" y1="386" y2="402"></line>
<!-- π above scatter back -->
<text fill="#b85450" font-size="13" font-style="italic" font-weight="700" text-anchor="middle" x="945" y="380">π</text>
<line marker-end="url(#arrk)" stroke="#222" stroke-width="1.3" x1="945" x2="945" y1="386" y2="402"></line>
<!-- π above gather back -->
<text fill="#b85450" font-size="13" font-style="italic" font-weight="700" text-anchor="middle" x="135" y="380">π</text>
<line marker-end="url(#arrk)" stroke="#222" stroke-width="1.3" x1="135" x2="135" y1="386" y2="402"></line>
<!-- dO (input from right) -->
<rect fill="#dae8fc" height="40" stroke="#6c8ebf" width="55" x="1255" y="425"></rect>
<text font-size="14" font-style="italic" text-anchor="middle" x="1282" y="450">dO</text>
<line stroke="none" x1="1255" x2="1250" y1="445" y2="445"></line>
<line stroke="#222" stroke-width="1.3" x1="1255" x2="1250" y1="445" y2="445"></line>
<!-- arrow dO → aggregation back (going left) -->
<line stroke="#222" x1="1255" x2="1250" y1="445" y2="445"></line>
<line stroke="#222" x1="1250" x2="1265" y1="445" y2="445"></line>
<line x1="1250" x2="1250" y1="445" y2="445"></line>
<line marker-end="url(#arrk)" stroke="#222" stroke-width="1.3" x1="1255" x2="1250" y1="445" y2="445"></line>
<!-- Aggregation back kernel -->
<rect fill="#fff8d5" height="80" rx="6" stroke="#e0b300" stroke-width="1.5" width="100" x="1150" y="402"></rect>
<text font-size="11" font-weight="600" text-anchor="middle" x="1200" y="437">Aggregation</text>
<text font-size="11" font-weight="600" text-anchor="middle" x="1200" y="453">backward</text>
<line marker-end="url(#arrk)" stroke="#222" stroke-width="1.3" x1="1150" x2="1135" y1="442" y2="442"></line>
<!-- dỸ -->
<rect fill="#dae8fc" height="40" stroke="#6c8ebf" width="60" x="1075" y="422"></rect>
<text font-size="13" font-style="italic" text-anchor="middle" x="1105" y="447">dỸ</text>
<line marker-end="url(#arrk)" stroke="#222" stroke-width="1.3" x1="1075" x2="1060" y1="442" y2="442"></line>
<!-- Scatter back kernel -->
<rect fill="#fff8d5" height="80" rx="6" stroke="#e0b300" stroke-width="1.5" width="100" x="960" y="402"></rect>
<text font-size="11" font-weight="600" text-anchor="middle" x="1010" y="437">Scatter</text>
<text font-size="11" font-weight="600" text-anchor="middle" x="1010" y="453">backward</text>
<line marker-end="url(#arrk)" stroke="#222" stroke-width="1.3" x1="960" x2="945" y1="442" y2="442"></line>
<!-- dY -->
<rect fill="#dae8fc" height="40" stroke="#6c8ebf" width="60" x="885" y="422"></rect>
<text font-size="13" font-style="italic" text-anchor="middle" x="915" y="447">dY</text>
<line marker-end="url(#arrk)" stroke="#222" stroke-width="1.3" x1="885" x2="870" y1="442" y2="442"></line>
<!-- Down-proj act grad kernel -->
<rect fill="#fff8d5" height="80" rx="6" stroke="#e0b300" stroke-width="1.5" width="150" x="720" y="402"></rect>
<text font-size="11" font-weight="600" text-anchor="middle" x="795" y="432">Down-proj act grad</text>
<text fill="#7a4e00" font-size="10.5" font-style="italic" text-anchor="middle" x="795" y="450">Varlen-M Grouped GEMM</text>
<line marker-end="url(#arrk)" stroke="#222" stroke-width="1.3" x1="720" x2="705" y1="442" y2="442"></line>
<!-- dA -->
<rect fill="#dae8fc" height="40" stroke="#6c8ebf" width="60" x="645" y="422"></rect>
<text font-size="13" font-style="italic" text-anchor="middle" x="675" y="447">dA</text>
<line marker-end="url(#arrk)" stroke="#222" stroke-width="1.3" x1="645" x2="630" y1="442" y2="442"></line>
<!-- dAct func kernel (uses cached H) -->
<rect fill="#fff8d5" height="80" rx="6" stroke="#e0b300" stroke-width="1.5" width="100" x="530" y="402"></rect>
<text font-size="11" font-weight="600" text-anchor="middle" x="580" y="432">dAct func</text>
<text fill="#b85450" font-size="9" text-anchor="middle" x="580" y="450">uses cached H</text>
<line marker-end="url(#arrk)" stroke="#222" stroke-width="1.3" x1="530" x2="515" y1="442" y2="442"></line>
<!-- Cache arrow from H → dAct -->
<line fill="none" stroke="#888" stroke-dasharray="3,3" stroke-width="1" x1="485" x2="485" y1="165" y2="200"></line>
<line fill="none" stroke="#888" stroke-dasharray="3,3" stroke-width="1" x1="485" x2="565" y1="200" y2="200"></line>
<line fill="none" marker-end="url(#arrkr)" stroke="#888" stroke-dasharray="3,3" stroke-width="1" x1="565" x2="565" y1="200" y2="402"></line>
<!-- dH -->
<rect fill="#dae8fc" height="40" stroke="#6c8ebf" width="60" x="455" y="422"></rect>
<text font-size="13" font-style="italic" text-anchor="middle" x="485" y="447">dH</text>
<line marker-end="url(#arrk)" stroke="#222" stroke-width="1.3" x1="455" x2="440" y1="442" y2="442"></line>
<!-- Up-proj act grad kernel -->
<rect fill="#fff8d5" height="80" rx="6" stroke="#e0b300" stroke-width="1.5" width="150" x="290" y="402"></rect>
<text font-size="11" font-weight="600" text-anchor="middle" x="365" y="432">Up-proj act grad</text>
<text fill="#7a4e00" font-size="10.5" font-style="italic" text-anchor="middle" x="365" y="450">Varlen-M Grouped GEMM</text>
<line marker-end="url(#arrk)" stroke="#222" stroke-width="1.3" x1="290" x2="275" y1="442" y2="442"></line>
<!-- dX̃ -->
<rect fill="#dae8fc" height="40" stroke="#6c8ebf" width="70" x="205" y="422"></rect>
<text font-size="13" font-style="italic" text-anchor="middle" x="240" y="447">dX̃</text>
<line marker-end="url(#arrk)" stroke="#222" stroke-width="1.3" x1="205" x2="190" y1="442" y2="442"></line>
<!-- Gather back / Aggregation kernel -->
<rect fill="#fff8d5" height="80" rx="6" stroke="#e0b300" stroke-width="1.5" width="110" x="80" y="402"></rect>
<text font-size="11" font-weight="600" text-anchor="middle" x="135" y="432">Aggregation</text>
<text font-size="11" font-weight="600" text-anchor="middle" x="135" y="450">(gather back)</text>
<line marker-end="url(#arrk)" stroke="#222" stroke-width="1.3" x1="80" x2="65" y1="442" y2="442"></line>
<!-- dX (output, purple) -->
<rect fill="#e1d5e7" height="40" stroke="#9673a6" stroke-width="2" width="55" x="10" y="422"></rect>
<text fill="#5a3475" font-size="13" font-style="italic" font-weight="700" text-anchor="middle" x="38" y="447">dX</text>
<text fill="#5a3475" font-size="9" font-weight="700" text-anchor="middle" x="38" y="478">output</text>
<!-- Divider -->
<line stroke="#999" stroke-dasharray="4,4" stroke-width="0.5" x1="20" x2="1260" y1="510" y2="510"></line>
<!-- ============ BACKWARD WEIGHT GRAD + dS ============ -->
<text fill="#444" font-size="14" font-weight="700" x="20" y="540">Backward pass — weight gradient + dS · 3 kernels（每个都依赖一个 cached O(TKd) 张量）</text>
<!-- dW₁ kernel: uses dH + cached X̃ -->
<rect fill="#fff8d5" height="80" rx="6" stroke="#e0b300" stroke-width="1.5" width="170" x="180" y="565"></rect>
<text font-size="11" font-weight="600" text-anchor="middle" x="265" y="595">Up-proj weight grad</text>
<text fill="#7a4e00" font-size="10.5" font-style="italic" text-anchor="middle" x="265" y="613">Varlen-K Grouped GEMM</text>
<text fill="#b85450" font-size="9" font-weight="600" text-anchor="middle" x="265" y="630">需 cached X̃ + dH</text>
<!-- arrow down to output -->
<line marker-end="url(#arrk)" stroke="#222" stroke-width="1.3" x1="265" x2="265" y1="645" y2="660"></line>
<!-- input from dH -->
<line fill="none" stroke="#888" stroke-dasharray="3,3" stroke-width="1" x1="485" x2="485" y1="462" y2="540"></line>
<line fill="none" stroke="#888" stroke-dasharray="3,3" stroke-width="1" x1="485" x2="305" y1="540" y2="540"></line>
<line fill="none" marker-end="url(#arrkr)" stroke="#888" stroke-dasharray="3,3" stroke-width="1" x1="305" x2="305" y1="540" y2="565"></line>
<!-- input from cached X̃ -->
<line fill="none" stroke="#888" stroke-dasharray="3,3" stroke-width="1" x1="240" x2="240" y1="165" y2="220"></line>
<line fill="none" marker-end="url(#arrkr)" stroke="#888" stroke-dasharray="3,3" stroke-width="1" x1="240" x2="240" y1="220" y2="565"></line>
<!-- dW₁ output -->
<rect fill="#e1d5e7" height="40" stroke="#9673a6" stroke-width="2" width="80" x="225" y="660"></rect>
<text fill="#5a3475" font-size="14" font-style="italic" font-weight="700" text-anchor="middle" x="265" y="685">dW₁</text>
<text fill="#5a3475" font-size="9" font-weight="700" text-anchor="middle" x="265" y="717">output</text>
<!-- dW₂ kernel: uses dY + cached A -->
<rect fill="#fff8d5" height="80" rx="6" stroke="#e0b300" stroke-width="1.5" width="170" x="610" y="565"></rect>
<text font-size="11" font-weight="600" text-anchor="middle" x="695" y="595">Down-proj weight grad</text>
<text fill="#7a4e00" font-size="10.5" font-style="italic" text-anchor="middle" x="695" y="613">Varlen-K Grouped GEMM</text>
<text fill="#b85450" font-size="9" font-weight="600" text-anchor="middle" x="695" y="630">需 cached A + dY</text>
<line marker-end="url(#arrk)" stroke="#222" stroke-width="1.3" x1="695" x2="695" y1="645" y2="660"></line>
<!-- input from dY -->
<line fill="none" stroke="#888" stroke-dasharray="3,3" stroke-width="1" x1="915" x2="915" y1="462" y2="540"></line>
<line fill="none" stroke="#888" stroke-dasharray="3,3" stroke-width="1" x1="915" x2="735" y1="540" y2="540"></line>
<line fill="none" marker-end="url(#arrkr)" stroke="#888" stroke-dasharray="3,3" stroke-width="1" x1="735" x2="735" y1="540" y2="565"></line>
<!-- input from cached A -->
<line fill="none" stroke="#888" stroke-dasharray="3,3" stroke-width="1" x1="675" x2="675" y1="165" y2="220"></line>
<line fill="none" marker-end="url(#arrkr)" stroke="#888" stroke-dasharray="3,3" stroke-width="1" x1="675" x2="675" y1="220" y2="565"></line>
<!-- dW₂ output -->
<rect fill="#e1d5e7" height="40" stroke="#9673a6" stroke-width="2" width="80" x="655" y="660"></rect>
<text fill="#5a3475" font-size="14" font-style="italic" font-weight="700" text-anchor="middle" x="695" y="685">dW₂</text>
<text fill="#5a3475" font-size="9" font-weight="700" text-anchor="middle" x="695" y="717">output</text>
<!-- dS kernel: uses dO + cached Y (the painful one!) -->
<rect fill="#fff8d5" height="80" rx="6" stroke="#b85450" stroke-width="2.5" width="180" x="1010" y="565"></rect>
<text fill="#b85450" font-size="11" font-weight="700" text-anchor="middle" x="1100" y="595">dS = ⟨dO, Y⟩</text>
<text fill="#b85450" font-size="10.5" font-style="italic" text-anchor="middle" x="1100" y="613">row-wise inner product</text>
<text fill="#b85450" font-size="9" font-weight="700" text-anchor="middle" x="1100" y="630">⚠ MUST cache Y (2GB)</text>
<line marker-end="url(#arrk)" stroke="#222" stroke-width="1.3" x1="1100" x2="1100" y1="645" y2="660"></line>
<!-- input from cached Y -->
<line fill="none" stroke="#b85450" stroke-dasharray="4,3" stroke-width="1.5" x1="915" x2="915" y1="165" y2="220"></line>
<line fill="none" stroke="#b85450" stroke-dasharray="4,3" stroke-width="1.5" x1="915" x2="1015" y1="220" y2="220"></line>
<line fill="none" marker-end="url(#arrkr)" stroke="#b85450" stroke-dasharray="4,3" stroke-width="1.5" x1="1015" x2="1015" y1="220" y2="565"></line>
<!-- input from dO -->
<line fill="none" stroke="#888" stroke-dasharray="3,3" stroke-width="1" x1="1282" x2="1282" y1="465" y2="540"></line>
<line fill="none" stroke="#888" stroke-dasharray="3,3" stroke-width="1" x1="1282" x2="1185" y1="540" y2="540"></line>
<line fill="none" marker-end="url(#arrkr)" stroke="#888" stroke-dasharray="3,3" stroke-width="1" x1="1185" x2="1185" y1="540" y2="565"></line>
<!-- dS output -->
<rect fill="#e1d5e7" height="40" stroke="#9673a6" stroke-width="2" width="80" x="1060" y="660"></rect>
<text fill="#5a3475" font-size="14" font-style="italic" font-weight="700" text-anchor="middle" x="1100" y="685">dS</text>
<text fill="#5a3475" font-size="9" font-weight="700" text-anchor="middle" x="1100" y="717">output</text>
</svg>