<svg style="width:100%;height:auto;background:#fafffa;border:1px solid #5fa55f;border-radius:4px;font-family:-apple-system,sans-serif;" viewbox="0 0 1280 740" xmlns="http://www.w3.org/2000/svg">
<defs>
<marker id="arrs" markerheight="7" markerwidth="7" orient="auto" refx="9" refy="5" viewbox="0 0 10 10"><path d="M0,0 L10,5 L0,10 z" fill="#222"></path></marker>
<marker id="arrsr" markerheight="6" markerwidth="6" orient="auto" refx="9" refy="5" viewbox="0 0 10 10"><path d="M0,0 L10,5 L0,10 z" fill="#888"></path></marker>
</defs>
<!-- Legend -->
<g font-size="11">
<rect fill="#fff8d5" height="14" stroke="#e0b300" stroke-width="1.5" width="20" x="20" y="14"></rect>
<text x="46" y="25">kernel</text>
<rect fill="#dae8fc" height="14" stroke="#6c8ebf" width="20" x="100" y="14"></rect>
<text x="126" y="25">intermediate / weight</text>
<rect fill="#dae8fc" height="14" stroke="#b85450" stroke-width="2" width="20" x="265" y="14"></rect>
<text fill="#b85450" font-weight="600" x="291" y="25">cached for backward</text>
<rect fill="#e1d5e7" height="14" stroke="#9673a6" stroke-width="2" width="20" x="455" y="14"></rect>
<text fill="#5a3475" font-weight="600" x="481" y="25">output</text>
</g>
<!-- ============ FORWARD ============ -->
<text fill="#444" font-size="14" font-weight="700" x="20" y="64">Forward pass · 3 kernels</text>
<!-- Inputs above kernels -->
<text font-size="13" text-anchor="middle" x="290" y="78"><tspan font-style="italic">W₁</tspan>, <tspan fill="#b85450" font-style="italic" font-weight="700">π</tspan></text>
<line marker-end="url(#arrs)" stroke="#222" stroke-width="1.3" x1="290" x2="290" y1="84" y2="100"></line>
<text font-size="13" font-style="italic" text-anchor="middle" x="700" y="78">W₂</text>
<line marker-end="url(#arrs)" stroke="#222" stroke-width="1.3" x1="700" x2="700" y1="84" y2="100"></line>
<text font-size="13" text-anchor="middle" x="1090" y="78"><tspan fill="#b85450" font-style="italic" font-weight="700">π</tspan>, <tspan fill="#b85450" font-style="italic" font-weight="700">S</tspan></text>
<line marker-end="url(#arrs)" stroke="#222" stroke-width="1.3" x1="1090" x2="1090" y1="84" y2="100"></line>
<!-- X (cached input) -->
<rect fill="#dae8fc" height="40" stroke="#b85450" stroke-width="2" width="60" x="40" y="135"></rect>
<text fill="#b85450" font-size="14" font-style="italic" font-weight="700" text-anchor="middle" x="70" y="160">X</text>
<text fill="#b85450" font-size="9" font-weight="700" text-anchor="middle" x="70" y="193">cached · [T,d]</text>
<line marker-end="url(#arrs)" stroke="#222" stroke-width="1.3" x1="100" x2="115" y1="155" y2="155"></line>
<!-- Up-proj kernel (large yellow box containing GEMM + Act func) -->
<rect fill="#fff8d5" height="125" rx="6" stroke="#e0b300" stroke-width="1.5" width="350" x="115" y="100"></rect>
<text fill="#7a4e00" font-size="12" font-weight="700" text-anchor="middle" x="290" y="120">Up-proj</text>
<!-- Inner: Varlen-M Grouped GEMM box -->
<rect fill="#ffffff" height="50" stroke="#7a4e00" stroke-width="0.8" width="120" x="135" y="135"></rect>
<text font-size="10.5" font-style="italic" text-anchor="middle" x="195" y="156">Varlen-M</text>
<text font-size="10.5" font-style="italic" text-anchor="middle" x="195" y="170">Grouped GEMM</text>
<line marker-end="url(#arrs)" stroke="#222" stroke-width="1.2" x1="255" x2="280" y1="160" y2="160"></line>
<!-- H output of inner GEMM, cached -->
<rect fill="#dae8fc" height="40" stroke="#b85450" stroke-width="2" width="50" x="280" y="140"></rect>
<text fill="#b85450" font-size="13" font-style="italic" font-weight="700" text-anchor="middle" x="305" y="165">H</text>
<line marker-end="url(#arrs)" stroke="#222" stroke-width="1.2" x1="330" x2="350" y1="160" y2="160"></line>
<!-- Inner: Act func box -->
<rect fill="#ffffff" height="50" stroke="#7a4e00" stroke-width="0.8" width="100" x="350" y="135"></rect>
<text font-size="11" font-style="italic" text-anchor="middle" x="400" y="165">Act func</text>
<!-- H cached marker below -->
<text fill="#b85450" font-size="9" font-weight="700" text-anchor="middle" x="305" y="200">cached · 1.5GB ★</text>
<!-- arrow Up-proj kernel → A intermediate -->
<line marker-end="url(#arrs)" stroke="#222" stroke-width="1.3" x1="465" x2="490" y1="155" y2="155"></line>
<!-- A intermediate -->
<rect fill="#dae8fc" height="40" stroke="#6c8ebf" width="55" x="490" y="135"></rect>
<text font-size="14" font-style="italic" text-anchor="middle" x="518" y="160">A</text>
<line marker-end="url(#arrs)" stroke="#222" stroke-width="1.3" x1="545" x2="565" y1="155" y2="155"></line>
<!-- Down-proj kernel -->
<rect fill="#fff8d5" height="125" rx="6" stroke="#e0b300" stroke-width="1.5" width="270" x="565" y="100"></rect>
<text fill="#7a4e00" font-size="12" font-weight="700" text-anchor="middle" x="700" y="120">Down-proj</text>
<!-- Inner: Varlen-M Grouped GEMM -->
<rect fill="#ffffff" height="50" stroke="#7a4e00" stroke-width="0.8" width="200" x="600" y="135"></rect>
<text font-size="10.5" font-style="italic" text-anchor="middle" x="700" y="156">Varlen-M</text>
<text font-size="10.5" font-style="italic" text-anchor="middle" x="700" y="170">Grouped GEMM</text>
<line marker-end="url(#arrs)" stroke="#222" stroke-width="1.3" x1="835" x2="855" y1="155" y2="155"></line>
<!-- Y intermediate -->
<rect fill="#dae8fc" height="40" stroke="#6c8ebf" width="55" x="855" y="135"></rect>
<text font-size="14" font-style="italic" text-anchor="middle" x="883" y="160">Y</text>
<line marker-end="url(#arrs)" stroke="#222" stroke-width="1.3" x1="910" x2="930" y1="155" y2="155"></line>
<!-- Expert aggregation kernel -->
<rect fill="#fff8d5" height="125" rx="6" stroke="#e0b300" stroke-width="1.5" width="290" x="930" y="100"></rect>
<text fill="#7a4e00" font-size="12" font-weight="700" text-anchor="middle" x="1075" y="120">Expert aggregation</text>
<rect fill="#ffffff" height="50" stroke="#7a4e00" stroke-width="0.8" width="250" x="950" y="135"></rect>
<text font-size="10.5" font-style="italic" text-anchor="middle" x="1075" y="156">Each token gathers</text>
<text font-size="10.5" font-style="italic" text-anchor="middle" x="1075" y="170">and sums expert outputs</text>
<line marker-end="url(#arrs)" stroke="#222" stroke-width="1.3" x1="1220" x2="1240" y1="155" y2="155"></line>
<!-- O (output, purple) -->
<rect fill="#e1d5e7" height="40" stroke="#9673a6" stroke-width="2" width="35" x="1240" y="135"></rect>
<text fill="#5a3475" font-size="14" font-style="italic" font-weight="700" text-anchor="middle" x="1257" y="160">O</text>
<text fill="#5a3475" font-size="9" font-weight="700" text-anchor="middle" x="1257" y="193">output</text>
<!-- Forward summary -->
<text fill="#1f5d1f" font-size="12" font-weight="700" text-anchor="middle" x="640" y="280">✓ 仅 X 与 H 被 cache（1.8 GB / 层）；A、Y 在 kernel 内 ephemeral，不写 HBM</text>
<!-- Divider -->
<line stroke="#999" stroke-dasharray="4,4" stroke-width="0.5" x1="20" x2="1260" y1="305" y2="305"></line>
<!-- ============ BACKWARD ============ -->
<text fill="#444" font-size="14" font-weight="700" x="20" y="335">Backward pass · 5 kernels</text>
<!-- Inputs above -->
<text font-size="13" text-anchor="middle" x="985" y="350"><tspan font-style="italic">W₂</tspan>, <tspan fill="#b85450" font-style="italic" font-weight="700">H</tspan></text>
<text fill="#b85450" font-size="9" text-anchor="middle" x="985" y="368">(cached H)</text>
<line marker-end="url(#arrs)" stroke="#222" stroke-width="1.3" x1="985" x2="985" y1="372" y2="388"></line>
<text font-size="13" font-style="italic" text-anchor="middle" x="495" y="350">W₁</text>
<line marker-end="url(#arrs)" stroke="#222" stroke-width="1.3" x1="495" x2="495" y1="356" y2="388"></line>
<text fill="#b85450" font-size="13" font-style="italic" font-weight="700" text-anchor="middle" x="180" y="350">π</text>
<line marker-end="url(#arrs)" stroke="#222" stroke-width="1.3" x1="180" x2="180" y1="356" y2="388"></line>
<!-- dO input on right -->
<rect fill="#dae8fc" height="40" stroke="#6c8ebf" width="35" x="1240" y="408"></rect>
<text font-size="13" font-style="italic" text-anchor="middle" x="1257" y="433">dO</text>
<line marker-end="url(#arrs)" stroke="#222" stroke-width="1.3" x1="1240" x2="1230" y1="428" y2="428"></line>
<!-- ===== Down-proj act grad kernel (the dH kernel — gemm_dgated) ===== -->
<rect fill="#fff8d5" height="200" rx="6" stroke="#e0b300" stroke-width="2" width="380" x="850" y="388"></rect>
<text fill="#7a4e00" font-size="12" font-weight="700" text-anchor="middle" x="1040" y="408">Down-proj act grad — gemm_dgated (fused)</text>
<!-- Inner: Varlen-M Grouped GEMM (dA') -->
<rect fill="#ffffff" height="50" stroke="#7a4e00" stroke-width="0.8" width="135" x="1080" y="425"></rect>
<text font-size="10.5" font-style="italic" text-anchor="middle" x="1147" y="446">Varlen-M</text>
<text font-size="10.5" font-style="italic" text-anchor="middle" x="1147" y="460">Grouped GEMM</text>
<!-- dA' produced -->
<line marker-end="url(#arrs)" stroke="#222" stroke-width="1.2" x1="1080" x2="1060" y1="450" y2="450"></line>
<rect fill="#dae8fc" height="40" stroke="#6c8ebf" width="50" x="1010" y="430"></rect>
<text font-size="13" font-style="italic" text-anchor="middle" x="1035" y="455">dA′</text>
<!-- dAct func -->
<rect fill="#ffffff" height="50" stroke="#7a4e00" stroke-width="0.8" width="100" x="900" y="425"></rect>
<text font-size="11" font-style="italic" text-anchor="middle" x="950" y="455">dAct func</text>
<line marker-end="url(#arrs)" stroke="#222" stroke-width="1.2" x1="1010" x2="1000" y1="450" y2="450"></line>
<!-- A (recomputed, sum over n) -->
<rect fill="#dae8fc" height="40" stroke="#6c8ebf" width="50" x="1010" y="490"></rect>
<text font-size="13" font-style="italic" text-anchor="middle" x="1035" y="515">A</text>
<text fill="#666" font-size="9" text-anchor="middle" x="1035" y="544">sum over n</text>
<!-- arrow from dA' (top) and H input down to A -->
<line stroke="#222" stroke-dasharray="2,2" stroke-width="1" x1="1035" x2="1035" y1="470" y2="490"></line>
<!-- A' = s · A -->
<rect fill="#dae8fc" height="40" stroke="#6c8ebf" width="50" x="1085" y="490"></rect>
<text font-size="13" font-style="italic" text-anchor="middle" x="1110" y="515">A′</text>
<line marker-end="url(#arrs)" stroke="#222" stroke-width="1.2" x1="1060" x2="1085" y1="510" y2="510"></line>
<!-- ds path -->
<rect fill="#dae8fc" height="40" stroke="#6c8ebf" width="55" x="1160" y="490"></rect>
<text font-size="13" font-style="italic" text-anchor="middle" x="1187" y="515">dS</text>
<text fill="#666" font-size="9" text-anchor="middle" x="1187" y="544">⟨dA′, A⟩</text>
<!-- arrows for dA' → A and dA' → dS -->
<line stroke="#888" stroke-dasharray="3,2" stroke-width="0.8" x1="1035" x2="1035" y1="470" y2="490"></line>
<line marker-end="url(#arrsr)" stroke="#888" stroke-dasharray="3,2" stroke-width="0.8" x1="1060" x2="1187" y1="450" y2="490"></line>
<!-- S input below for A' = s·A -->
<text fill="#b85450" font-size="11" font-style="italic" font-weight="700" text-anchor="middle" x="1110" y="568">S</text>
<line marker-end="url(#arrs)" stroke="#222" stroke-width="1.3" x1="1110" x2="1110" y1="570" y2="535"></line>
<!-- dH output of kernel -->
<line stroke="#222" stroke-width="1.5" x1="900" x2="850" y1="450" y2="450"></line>
<line marker-end="url(#arrs)" stroke="#222" stroke-width="1.5" x1="850" x2="800" y1="450" y2="450"></line>
<!-- dH intermediate -->
<rect fill="#dae8fc" height="40" stroke="#6c8ebf" width="55" x="765" y="430"></rect>
<text font-size="13" font-style="italic" text-anchor="middle" x="793" y="455">dH</text>
<line marker-end="url(#arrs)" stroke="#222" stroke-width="1.5" x1="765" x2="700" y1="450" y2="450"></line>
<!-- ===== Up-proj act grad kernel ===== -->
<rect fill="#fff8d5" height="120" rx="6" stroke="#e0b300" stroke-width="1.5" width="320" x="380" y="388"></rect>
<text fill="#7a4e00" font-size="12" font-weight="700" text-anchor="middle" x="540" y="408">Up-proj act grad</text>
<rect fill="#ffffff" height="50" stroke="#7a4e00" stroke-width="0.8" width="220" x="430" y="425"></rect>
<text font-size="10.5" font-style="italic" text-anchor="middle" x="540" y="446">Varlen-M</text>
<text font-size="10.5" font-style="italic" text-anchor="middle" x="540" y="460">Grouped GEMM</text>
<line marker-end="url(#arrs)" stroke="#222" stroke-width="1.5" x1="380" x2="350" y1="450" y2="450"></line>
<!-- dX̃ -->
<rect fill="#dae8fc" height="40" stroke="#6c8ebf" width="55" x="295" y="430"></rect>
<text font-size="13" font-style="italic" text-anchor="middle" x="322" y="455">dX̃</text>
<line marker-end="url(#arrs)" stroke="#222" stroke-width="1.5" x1="295" x2="270" y1="450" y2="450"></line>
<!-- ===== Expert aggregation backward ===== -->
<rect fill="#fff8d5" height="120" rx="6" stroke="#e0b300" stroke-width="1.5" width="170" x="100" y="388"></rect>
<text fill="#7a4e00" font-size="12" font-weight="700" text-anchor="middle" x="185" y="408">Expert aggregation</text>
<rect fill="#ffffff" height="50" stroke="#7a4e00" stroke-width="0.8" width="140" x="115" y="425"></rect>
<text font-size="10.5" font-style="italic" text-anchor="middle" x="185" y="446">Each token gathers</text>
<text font-size="10.5" font-style="italic" text-anchor="middle" x="185" y="460">and sums</text>
<line marker-end="url(#arrs)" stroke="#222" stroke-width="1.5" x1="100" x2="80" y1="450" y2="450"></line>
<!-- dX (purple output) -->
<rect fill="#e1d5e7" height="40" stroke="#9673a6" stroke-width="2" width="40" x="40" y="430"></rect>
<text fill="#5a3475" font-size="13" font-style="italic" font-weight="700" text-anchor="middle" x="60" y="455">dX</text>
<text fill="#5a3475" font-size="9" font-weight="700" text-anchor="middle" x="60" y="488">output</text>
<!-- Divider -->
<line stroke="#999" stroke-dasharray="4,4" stroke-width="0.5" x1="20" x2="1260" y1="608" y2="608"></line>
<!-- ============ Backward weight grad ============ -->
<text fill="#444" font-size="14" font-weight="700" x="20" y="635">Backward weight grad · 2 kernels（A′ 直接来自 dH kernel，无需额外 cache）</text>
<!-- Up-proj weight grad kernel -->
<rect fill="#fff8d5" height="65" rx="6" stroke="#e0b300" stroke-width="1.5" width="200" x="320" y="650"></rect>
<text fill="#7a4e00" font-size="11" font-weight="700" text-anchor="middle" x="420" y="672">Up-proj weight grad</text>
<text font-size="10.5" font-style="italic" text-anchor="middle" x="420" y="690">Varlen-K Grouped GEMM</text>
<text fill="#1f5d1f" font-size="9" text-anchor="middle" x="420" y="708">cached X (256MB) + dH</text>
<!-- inputs to up-proj weight grad: π, X (cached), dH -->
<text font-size="11" x="270" y="640"><tspan fill="#b85450" font-style="italic" font-weight="700">π</tspan>, <tspan fill="#b85450" font-style="italic" font-weight="700">X</tspan>, <tspan font-style="italic">dH</tspan></text>
<line marker-end="url(#arrs)" stroke="#222" stroke-width="1.2" x1="295" x2="320" y1="643" y2="675"></line>
<!-- dW₁ output -->
<line marker-end="url(#arrs)" stroke="#222" stroke-width="1.3" x1="520" x2="540" y1="685" y2="685"></line>
<rect fill="#e1d5e7" height="40" stroke="#9673a6" stroke-width="2" width="60" x="540" y="665"></rect>
<text fill="#5a3475" font-size="14" font-style="italic" font-weight="700" text-anchor="middle" x="570" y="690">dW₁</text>
<text fill="#5a3475" font-size="9" font-weight="700" text-anchor="middle" x="570" y="722">output</text>
<!-- Down-proj weight grad kernel -->
<rect fill="#fff8d5" height="65" rx="6" stroke="#e0b300" stroke-width="1.5" width="220" x="780" y="650"></rect>
<text fill="#7a4e00" font-size="11" font-weight="700" text-anchor="middle" x="890" y="672">Down-proj weight grad</text>
<text font-size="10.5" font-style="italic" text-anchor="middle" x="890" y="690">Varlen-K Grouped GEMM</text>
<text fill="#1f5d1f" font-size="9" text-anchor="middle" x="890" y="708">用 A′（来自 dH kernel）+ dO</text>
<!-- inputs: dO, A', π -->
<text font-size="11" x="730" y="640"><tspan font-style="italic">dO</tspan>, <tspan font-style="italic">A′</tspan>, <tspan fill="#b85450" font-style="italic" font-weight="700">π</tspan></text>
<line marker-end="url(#arrs)" stroke="#222" stroke-width="1.2" x1="760" x2="780" y1="643" y2="675"></line>
<!-- dW₂ output -->
<line marker-end="url(#arrs)" stroke="#222" stroke-width="1.3" x1="1000" x2="1020" y1="685" y2="685"></line>
<rect fill="#e1d5e7" height="40" stroke="#9673a6" stroke-width="2" width="60" x="1020" y="665"></rect>
<text fill="#5a3475" font-size="14" font-style="italic" font-weight="700" text-anchor="middle" x="1050" y="690">dW₂</text>
<text fill="#5a3475" font-size="9" font-weight="700" text-anchor="middle" x="1050" y="722">output</text>
<!-- Footer -->
<text fill="#1f5d1f" font-size="12" font-weight="700" text-anchor="middle" x="640" y="730">合计 8 个 launched kernel（forward 3 + backward 5）；activation memory 与 K 解耦</text>
</svg>