<svg xmlns="http://www.w3.org/2000/svg" viewBox="0 0 1280 680">
  <defs>
    <marker id="arrow" viewBox="0 0 10 10" refX="9" refY="5" markerWidth="7" markerHeight="7" orient="auto-start-reverse">
      <path d="M0,0 L10,5 L0,10 z" fill="#4d5562"/>
    </marker>
    <style>
      text{font-family:Arial,Helvetica,sans-serif;fill:#1f2328}
      .title{font-size:30px;font-weight:700}
      .head{font-size:15px;font-weight:700}
      .body{font-size:12.5px}
      .noteHead{font-size:14px;font-weight:700}
      .noteText{font-size:12px}
      .box{stroke-width:2}
      .note{fill:#fff;stroke:#667085;stroke-width:1.4}
      .flow{stroke:#4d5562;stroke-width:2.2;fill:none;marker-end:url(#arrow)}
    </style>
  </defs>

  <rect width="1280" height="680" fill="#fff"/>
  <text x="40" y="54" class="title">SonicMoE optimization map from router to HBM</text>

  <g id="top-row">
    <rect x="40" y="105" width="220" height="145" rx="9" fill="#dae8fc" stroke="#6c8ebf" class="box"/>
    <text x="150" y="132" text-anchor="middle" class="head">Router / routing</text>
    <text x="150" y="160" text-anchor="middle" class="body">fused top-K sort</text>
    <text x="150" y="182" text-anchor="middle" class="body">top-K softmax</text>
    <text x="150" y="204" text-anchor="middle" class="body">token rounding</text>
    <text x="150" y="226" text-anchor="middle" class="body">custom router API</text>

    <rect x="280" y="105" width="220" height="145" rx="9" fill="#d5e8d4" stroke="#82b366" class="box"/>
    <text x="390" y="132" text-anchor="middle" class="head">GMEM to SMEM load</text>
    <text x="390" y="160" text-anchor="middle" class="body">gather on M dim</text>
    <text x="390" y="182" text-anchor="middle" class="body">gather on K dim</text>
    <text x="390" y="204" text-anchor="middle" class="body">cp.async / TMA gather</text>
    <text x="390" y="226" text-anchor="middle" class="body">relay warp for 2CTA</text>

    <rect x="520" y="105" width="220" height="145" rx="9" fill="#fff2cc" stroke="#d6b656" class="box"/>
    <text x="630" y="132" text-anchor="middle" class="head">Grouped GEMM</text>
    <text x="630" y="160" text-anchor="middle" class="body">varlen-M / varlen-K</text>
    <text x="630" y="182" text-anchor="middle" class="body">persistent scheduling</text>
    <text x="630" y="204" text-anchor="middle" class="body">UMMA + TMEM</text>
    <text x="630" y="226" text-anchor="middle" class="body">2CTA + CLC scheduler</text>

    <rect x="760" y="105" width="220" height="145" rx="9" fill="#e1d5e7" stroke="#9673a6" class="box"/>
    <text x="870" y="132" text-anchor="middle" class="head">Epilogue fusion</text>
    <text x="870" y="160" text-anchor="middle" class="body">SwiGLU / dSwiGLU</text>
    <text x="870" y="182" text-anchor="middle" class="body">dH / dS / A_S outputs</text>
    <text x="870" y="204" text-anchor="middle" class="body">async TMA load of H</text>
    <text x="870" y="226" text-anchor="middle" class="body">async TMA store</text>

    <rect x="1000" y="105" width="220" height="145" rx="9" fill="#f8cecc" stroke="#b85450" class="box"/>
    <text x="1110" y="132" text-anchor="middle" class="head">Output / aggregation</text>
    <text x="1110" y="160" text-anchor="middle" class="body">recycle transient Y</text>
    <text x="1110" y="182" text-anchor="middle" class="body">gather-and-sum</text>
    <text x="1110" y="204" text-anchor="middle" class="body">avoid atomics</text>
    <text x="1110" y="226" text-anchor="middle" class="body">avoid sync scatter</text>
  </g>

  <path d="M260 178 H280" class="flow"/>
  <path d="M500 178 H520" class="flow"/>
  <path d="M740 178 H760" class="flow"/>
  <path d="M980 178 H1000" class="flow"/>

  <g id="bottom-row">
    <rect x="40" y="330" width="220" height="125" rx="8" class="note"/>
    <text x="150" y="358" text-anchor="middle" class="noteHead">Router overhead</text>
    <text x="150" y="386" text-anchor="middle" class="noteText">top-K can dominate</text>
    <text x="150" y="407" text-anchor="middle" class="noteText">once GEMM is faster</text>
    <path d="M150 250 V330" class="flow"/>

    <rect x="280" y="330" width="220" height="125" rx="8" class="note"/>
    <text x="390" y="358" text-anchor="middle" class="noteHead">HBM traffic</text>
    <text x="390" y="386" text-anchor="middle" class="noteText">avoid O(TKd) padding</text>
    <text x="390" y="407" text-anchor="middle" class="noteText">keep X compact in L2</text>
    <path d="M390 250 V330" class="flow"/>

    <rect x="520" y="330" width="220" height="125" rx="8" class="note"/>
    <text x="630" y="358" text-anchor="middle" class="noteHead">Small GEMM tiles</text>
    <text x="630" y="386" text-anchor="middle" class="noteText">fine experts shrink tiles</text>
    <text x="630" y="407" text-anchor="middle" class="noteText">scheduler hides imbalance</text>
    <path d="M630 250 V330" class="flow"/>

    <rect x="760" y="330" width="220" height="125" rx="8" class="note"/>
    <text x="870" y="358" text-anchor="middle" class="noteHead">Heavy epilogue</text>
    <text x="870" y="386" text-anchor="middle" class="noteText">multi-output stores</text>
    <text x="870" y="407" text-anchor="middle" class="noteText">overlap with MMA</text>
    <path d="M870 250 V330" class="flow"/>

    <rect x="1000" y="330" width="220" height="125" rx="8" class="note"/>
    <text x="1110" y="358" text-anchor="middle" class="noteHead">Aggregation choice</text>
    <text x="1110" y="386" text-anchor="middle" class="noteText">deterministic reduce</text>
    <text x="1110" y="407" text-anchor="middle" class="noteText">avoid blocking next tile</text>
    <path d="M1110 250 V330" class="flow"/>
  </g>

  <rect x="90" y="535" width="1100" height="86" rx="8" class="note"/>
  <text x="640" y="566" text-anchor="middle" class="noteHead">Design rule: optimize the whole MoE workflow, not just one GEMM.</text>
  <text x="640" y="592" text-anchor="middle" class="noteText">Remove materialization, fuse load and epilogue, overlap memory traffic with MMA,</text>
  <text x="640" y="612" text-anchor="middle" class="noteText">and leave only the kernels that should remain separate.</text>
</svg>
