<svg width="100%" height="auto" viewBox="0 0 1000 460" xmlns="http://www.w3.org/2000/svg">
<defs><marker id="pf_ar" viewBox="0 0 10 10" refX="10" refY="5" markerWidth="7" markerHeight="7" orient="auto"><path d="M0,0 L10,5 L0,10 z" fill="#333"/></marker></defs>
<rect width="1000" height="460" fill="#fff"/>
<text x="500" y="24" font-family="sans-serif" font-size="16" font-weight="700" text-anchor="middle">vLLM Prefill Flow · DeepseekV4MLAAttention._forward_prefill()</text>
<g transform="translate(30,50)"><rect x="0" y="0" width="200" height="60" fill="#fff8e7" stroke="#e0b300" rx="4"/><text x="100" y="22" font-family="sans-serif" font-size="12" font-weight="700" text-anchor="middle">① reorder input</text><text x="100" y="40" font-family="monospace" font-size="10.5" text-anchor="middle">[decode | prefill] layout</text><text x="100" y="55" font-family="monospace" font-size="10.5" text-anchor="middle">q[:num_decode_tokens]…</text></g>
<g transform="translate(250,50)"><rect x="0" y="0" width="220" height="60" fill="#eef3ff" stroke="#4a6fd3" rx="4"/><text x="110" y="22" font-family="sans-serif" font-size="12" font-weight="700" text-anchor="middle">② Q LoRA &amp; KV LoRA</text><text x="110" y="40" font-family="monospace" font-size="10" text-anchor="middle">fused_wqa_wkv (aux stream)</text><text x="110" y="55" font-family="monospace" font-size="10" text-anchor="middle">fused_q_kv_rmsnorm</text></g>
<g transform="translate(490,50)"><rect x="0" y="0" width="230" height="60" fill="#fff4e0" stroke="#e0b300" rx="4"/><text x="115" y="22" font-family="sans-serif" font-size="12" font-weight="700" text-anchor="middle">③ DeepseekCompressor</text><text x="115" y="40" font-family="monospace" font-size="10" text-anchor="middle">produces C_a, C_b, Z_a, Z_b</text><text x="115" y="55" font-family="monospace" font-size="10" text-anchor="middle">fills CompressorStateCache</text></g>
<g transform="translate(740,50)"><rect x="0" y="0" width="230" height="60" fill="#f9eef8" stroke="#a33ea1" rx="4"/><text x="115" y="22" font-family="sans-serif" font-size="12" font-weight="700" text-anchor="middle">④ Fused Qnorm+RoPE+KV insert</text><text x="115" y="40" font-family="monospace" font-size="10" text-anchor="middle">fused_indexer_q_rope_quant</text><text x="115" y="55" font-family="monospace" font-size="10" text-anchor="middle">paged SWA cache + FP8 UE8M0</text></g>
<line x1="230" y1="80" x2="250" y2="80" stroke="#333" marker-end="url(#pf_ar)"/>
<line x1="470" y1="80" x2="490" y2="80" stroke="#333" marker-end="url(#pf_ar)"/>
<line x1="720" y1="80" x2="740" y2="80" stroke="#333" marker-end="url(#pf_ar)"/>
<g transform="translate(30,140)"><rect x="0" y="0" width="460" height="80" fill="#fff5f0" stroke="#b85450" rx="4"/><text x="230" y="22" font-family="sans-serif" font-size="12" font-weight="700" text-anchor="middle">⑤ Lightning Indexer · SparseAttnIndexer.forward()</text><text x="230" y="42" font-family="monospace" font-size="10.5" text-anchor="middle">deep_gemm.fp8_mqa_logits(q_I, K_I, w_I, ks, ke)</text><text x="230" y="58" font-family="monospace" font-size="10.5" text-anchor="middle">→ logits (q, n, h)</text><text x="230" y="74" font-family="monospace" font-size="10.5" text-anchor="middle">top-k selector (fused TileLang) → topk_indices_buffer</text></g>
<g transform="translate(520,140)"><rect x="0" y="0" width="450" height="80" fill="#f4faf4" stroke="#5fa55f" rx="4"/><text x="225" y="22" font-family="sans-serif" font-size="12" font-weight="700" text-anchor="middle">⑥ Gather + Combine Indices</text><text x="225" y="42" font-family="monospace" font-size="10.5" text-anchor="middle">dequantize_and_gather_k_cache (compressed + SWA)</text><text x="225" y="58" font-family="monospace" font-size="10.5" text-anchor="middle">combine_topk_swa_indices(topk ∪ window_size ∪ causal)</text><text x="225" y="74" font-family="monospace" font-size="10.5" text-anchor="middle">chunked by PREFILL_CHUNK_SIZE = 4 requests</text></g>
<line x1="490" y1="180" x2="520" y2="180" stroke="#333" marker-end="url(#pf_ar)"/>
<g transform="translate(180,236)"><rect x="0" y="0" width="640" height="76" fill="#eef7ee" stroke="#5fa55f" stroke-width="2" rx="4"/><text x="320" y="24" font-family="sans-serif" font-size="13" font-weight="700" text-anchor="middle">⑦ flash_mla_sparse_fwd(q, kv, indices, sm_scale, attn_sink, topk_length, out)</text><text x="320" y="42" font-family="monospace" font-size="11" text-anchor="middle">FlashMLA kernel (SM90/SM100) · FP8 KV · sparse over top-k ∪ window</text><text x="320" y="58" font-family="monospace" font-size="11" text-anchor="middle">partial RoPE(64 dims) + attention sink z′_h</text><text x="320" y="72" font-family="monospace" font-size="11" text-anchor="middle">output → [num_prefill_tokens, hidden]</text></g>
<g transform="translate(30,330)"><rect x="0" y="0" width="300" height="70" fill="#eef3ff" stroke="#4a6fd3" rx="4"/><text x="150" y="22" font-family="sans-serif" font-size="12" font-weight="700" text-anchor="middle">⑧ mhc_post → mhc_pre</text><text x="150" y="40" font-family="monospace" font-size="10.5" text-anchor="middle">torch.ops.vllm.mhc_post / mhc_pre</text><text x="150" y="58" font-family="monospace" font-size="10.5" text-anchor="middle">n_hc=4, Sinkhorn t_max=20</text></g>
<g transform="translate(360,330)"><rect x="0" y="0" width="300" height="70" fill="#f9eef8" stroke="#a33ea1" rx="4"/><text x="150" y="22" font-family="sans-serif" font-size="12" font-weight="700" text-anchor="middle">⑨ DeepseekV4MoE</text><text x="150" y="40" font-family="monospace" font-size="10.5" text-anchor="middle">SharedFusedMoE · gate (FP32) + top-6</text><text x="150" y="58" font-family="monospace" font-size="10.5" text-anchor="middle">Mxfp4MoEMethod (MegaMoE FP4)</text></g>
<g transform="translate(690,330)"><rect x="0" y="0" width="280" height="70" fill="#fff8e7" stroke="#e0b300" rx="4"/><text x="140" y="22" font-family="sans-serif" font-size="12" font-weight="700" text-anchor="middle">⑩ next layer / MTP head</text><text x="140" y="40" font-family="monospace" font-size="10.5" text-anchor="middle">interleave CSA ↔ HCA</text><text x="140" y="58" font-family="monospace" font-size="10.5" text-anchor="middle">depth-1 MTP for speculation</text></g>
<text x="500" y="440" font-family="monospace" font-size="11" text-anchor="middle" fill="#555">compressed path uses C4A/C128A KV cache · SWA-only layers skip ⑤⑥ and go straight to ⑦ with swa_indices</text>
</svg>