<svg viewbox="0 0 1000 460" xmlns="http://www.w3.org/2000/svg">
<defs><marker id="pf_ar" markerheight="7" markerwidth="7" orient="auto" refx="10" refy="5" viewbox="0 0 10 10"><path d="M0,0 L10,5 L0,10 z" fill="#333"></path></marker></defs>
<rect fill="#fff" height="460" width="1000"></rect>
<text font-family="sans-serif" font-size="16" font-weight="700" text-anchor="middle" x="500" y="24">vLLM Prefill Flow · DeepseekV4MLAAttention._forward_prefill()</text>
<g transform="translate(30,50)"><rect fill="#fff8e7" height="60" rx="4" stroke="#e0b300" width="200" x="0" y="0"></rect><text font-family="sans-serif" font-size="12" font-weight="700" text-anchor="middle" x="100" y="22">① reorder input</text><text font-family="monospace" font-size="10.5" text-anchor="middle" x="100" y="40">[decode | prefill] layout</text><text font-family="monospace" font-size="10.5" text-anchor="middle" x="100" y="55">q[:num_decode_tokens]…</text></g>
<g transform="translate(250,50)"><rect fill="#eef3ff" height="60" rx="4" stroke="#4a6fd3" width="220" x="0" y="0"></rect><text font-family="sans-serif" font-size="12" font-weight="700" text-anchor="middle" x="110" y="22">② Q LoRA &amp; KV LoRA</text><text font-family="monospace" font-size="10" text-anchor="middle" x="110" y="40">fused_wqa_wkv (aux stream)</text><text font-family="monospace" font-size="10" text-anchor="middle" x="110" y="55">fused_q_kv_rmsnorm</text></g>
<g transform="translate(490,50)"><rect fill="#fff4e0" height="60" rx="4" stroke="#e0b300" width="230" x="0" y="0"></rect><text font-family="sans-serif" font-size="12" font-weight="700" text-anchor="middle" x="115" y="22">③ DeepseekCompressor</text><text font-family="monospace" font-size="10" text-anchor="middle" x="115" y="40">produces C_a, C_b, Z_a, Z_b</text><text font-family="monospace" font-size="10" text-anchor="middle" x="115" y="55">fills CompressorStateCache</text></g>
<g transform="translate(740,50)"><rect fill="#f9eef8" height="60" rx="4" stroke="#a33ea1" width="230" x="0" y="0"></rect><text font-family="sans-serif" font-size="12" font-weight="700" text-anchor="middle" x="115" y="22">④ Fused Qnorm+RoPE+KV insert</text><text font-family="monospace" font-size="10" text-anchor="middle" x="115" y="40">fused_indexer_q_rope_quant</text><text font-family="monospace" font-size="10" text-anchor="middle" x="115" y="55">paged SWA cache + FP8 UE8M0</text></g>
<line marker-end="url(#pf_ar)" stroke="#333" x1="230" x2="250" y1="80" y2="80"></line>
<line marker-end="url(#pf_ar)" stroke="#333" x1="470" x2="490" y1="80" y2="80"></line>
<line marker-end="url(#pf_ar)" stroke="#333" x1="720" x2="740" y1="80" y2="80"></line>
<g transform="translate(30,140)"><rect fill="#fff5f0" height="80" rx="4" stroke="#b85450" width="460" x="0" y="0"></rect><text font-family="sans-serif" font-size="12" font-weight="700" text-anchor="middle" x="230" y="22">⑤ Lightning Indexer · SparseAttnIndexer.forward()</text><text font-family="monospace" font-size="10.5" text-anchor="middle" x="230" y="42">deep_gemm.fp8_mqa_logits(q_I, K_I, w_I, ks, ke)</text><text font-family="monospace" font-size="10.5" text-anchor="middle" x="230" y="58">→ logits (q, n, h)</text><text font-family="monospace" font-size="10.5" text-anchor="middle" x="230" y="74">top-k selector (fused TileLang) → topk_indices_buffer</text></g>
<g transform="translate(520,140)"><rect fill="#f4faf4" height="80" rx="4" stroke="#5fa55f" width="450" x="0" y="0"></rect><text font-family="sans-serif" font-size="12" font-weight="700" text-anchor="middle" x="225" y="22">⑥ Gather + Combine Indices</text><text font-family="monospace" font-size="10.5" text-anchor="middle" x="225" y="42">dequantize_and_gather_k_cache (compressed + SWA)</text><text font-family="monospace" font-size="10.5" text-anchor="middle" x="225" y="58">combine_topk_swa_indices(topk ∪ window_size ∪ causal)</text><text font-family="monospace" font-size="10.5" text-anchor="middle" x="225" y="74">chunked by PREFILL_CHUNK_SIZE = 4 requests</text></g>
<line marker-end="url(#pf_ar)" stroke="#333" x1="490" x2="520" y1="180" y2="180"></line>
<g transform="translate(180,236)"><rect fill="#eef7ee" height="76" rx="4" stroke="#5fa55f" stroke-width="2" width="640" x="0" y="0"></rect><text font-family="sans-serif" font-size="13" font-weight="700" text-anchor="middle" x="320" y="24">⑦ flash_mla_sparse_fwd(q, kv, indices, sm_scale, attn_sink, topk_length, out)</text><text font-family="monospace" font-size="11" text-anchor="middle" x="320" y="42">FlashMLA kernel (SM90/SM100) · FP8 KV · sparse over top-k ∪ window</text><text font-family="monospace" font-size="11" text-anchor="middle" x="320" y="58">partial RoPE(64 dims) + attention sink z′_h</text><text font-family="monospace" font-size="11" text-anchor="middle" x="320" y="72">output → [num_prefill_tokens, hidden]</text></g>
<g transform="translate(30,330)"><rect fill="#eef3ff" height="70" rx="4" stroke="#4a6fd3" width="300" x="0" y="0"></rect><text font-family="sans-serif" font-size="12" font-weight="700" text-anchor="middle" x="150" y="22">⑧ mhc_post → mhc_pre</text><text font-family="monospace" font-size="10.5" text-anchor="middle" x="150" y="40">torch.ops.vllm.mhc_post / mhc_pre</text><text font-family="monospace" font-size="10.5" text-anchor="middle" x="150" y="58">n_hc=4, Sinkhorn t_max=20</text></g>
<g transform="translate(360,330)"><rect fill="#f9eef8" height="70" rx="4" stroke="#a33ea1" width="300" x="0" y="0"></rect><text font-family="sans-serif" font-size="12" font-weight="700" text-anchor="middle" x="150" y="22">⑨ DeepseekV4MoE</text><text font-family="monospace" font-size="10.5" text-anchor="middle" x="150" y="40">SharedFusedMoE · gate (FP32) + top-6</text><text font-family="monospace" font-size="10.5" text-anchor="middle" x="150" y="58">Mxfp4MoEMethod (MegaMoE FP4)</text></g>
<g transform="translate(690,330)"><rect fill="#fff8e7" height="70" rx="4" stroke="#e0b300" width="280" x="0" y="0"></rect><text font-family="sans-serif" font-size="12" font-weight="700" text-anchor="middle" x="140" y="22">⑩ next layer / MTP head</text><text font-family="monospace" font-size="10.5" text-anchor="middle" x="140" y="40">interleave CSA ↔ HCA</text><text font-family="monospace" font-size="10.5" text-anchor="middle" x="140" y="58">depth-1 MTP for speculation</text></g>
<text fill="#555" font-family="monospace" font-size="11" text-anchor="middle" x="500" y="440">compressed path uses C4A/C128A KV cache · SWA-only layers skip ⑤⑥ and go straight to ⑦ with swa_indices</text>
</svg>