<svg width="100%" height="auto" viewBox="0 0 1100 540" xmlns="http://www.w3.org/2000/svg">
<defs><marker id="wf_ar" viewBox="0 0 10 10" refX="10" refY="5" markerWidth="7" markerHeight="7" orient="auto"><path d="M0,0 L10,5 L0,10 z" fill="#333"/></marker></defs>
<rect width="1100" height="540" fill="#fff"/>
<text x="550" y="24" font-family="sans-serif" font-size="16" font-weight="700" text-anchor="middle">DeepseekV4MultiHeadLatentAttentionWrapper.forward() · tensor shapes (V4-Pro)</text>

<!-- Input -->
<rect x="30" y="50" width="280" height="50" fill="#fff4e0" stroke="#e0b300" rx="4"/>
<text x="170" y="72" font-family="sans-serif" font-size="12" font-weight="700" text-anchor="middle">hidden_states</text>
<text x="170" y="90" font-family="monospace" font-size="11" text-anchor="middle">[T, 7168] · bf16</text>
<text x="170" y="112" font-family="monospace" font-size="10" text-anchor="middle" fill="#555">T = num_decode_tokens + num_prefill_tokens</text>

<!-- fused_wqa_wkv -->
<rect x="360" y="50" width="280" height="74" fill="#eef3ff" stroke="#4a6fd3" rx="4"/>
<text x="500" y="72" font-family="sans-serif" font-size="12" font-weight="700" text-anchor="middle">① fused_wqa_wkv (single GEMM)</text>
<text x="500" y="92" font-family="monospace" font-size="10.5" text-anchor="middle">[T, 7168] → [T, q_lora + head_dim]</text>
<text x="500" y="108" font-family="monospace" font-size="10.5" text-anchor="middle">q_lora=1536, head_dim=576</text>

<!-- split -->
<rect x="690" y="40" width="180" height="40" fill="#fff" stroke="#333" stroke-dasharray="3 2" rx="4"/>
<text x="780" y="58" font-family="monospace" font-size="10.5" text-anchor="middle">qr : [T, 1536]</text>
<text x="780" y="72" font-family="monospace" font-size="10.5" text-anchor="middle" fill="#555">Q LoRA latent c^Q</text>

<rect x="690" y="90" width="180" height="40" fill="#fff" stroke="#333" stroke-dasharray="3 2" rx="4"/>
<text x="780" y="108" font-family="monospace" font-size="10.5" text-anchor="middle">kv : [T, 576]</text>
<text x="780" y="122" font-family="monospace" font-size="10.5" text-anchor="middle" fill="#555">kv_lora + rope = 512 + 64</text>

<line x1="310" y1="75" x2="358" y2="75" stroke="#333" marker-end="url(#wf_ar)"/>
<line x1="640" y1="60" x2="688" y2="60" stroke="#333" marker-end="url(#wf_ar)"/>
<line x1="640" y1="110" x2="688" y2="110" stroke="#333" marker-end="url(#wf_ar)"/>

<!-- o_padded pre-allocation -->
<rect x="890" y="40" width="190" height="90" fill="#f9eef8" stroke="#a33ea1" rx="4"/>
<text x="985" y="62" font-family="sans-serif" font-size="12" font-weight="700" text-anchor="middle">pre-alloc o_padded</text>
<text x="985" y="80" font-family="monospace" font-size="10.5" text-anchor="middle">[T, 128, 576] · bf16</text>
<text x="985" y="100" font-family="monospace" font-size="10" text-anchor="middle" fill="#555">padded_heads=128 (FlashMLA)</text>
<text x="985" y="116" font-family="monospace" font-size="10" text-anchor="middle" fill="#555">actual n_local_heads ≤ 128</text>

<!-- deepseek_v4_attention custom op -->
<rect x="200" y="160" width="700" height="100" fill="#eef7ee" stroke="#5fa55f" stroke-width="2" rx="4"/>
<text x="550" y="182" font-family="sans-serif" font-size="13" font-weight="700" text-anchor="middle">② torch.ops.vllm.deepseek_v4_attention(hidden_states, qr, kv, positions, o_padded, layer_name)</text>
<text x="550" y="204" font-family="sans-serif" font-size="11" text-anchor="middle">internally: fused_q_kv_rmsnorm → wq_b → (indexer ‖ compressor ‖ qnorm+RoPE+KV-insert) → mla_attn</text>
<text x="550" y="222" font-family="monospace" font-size="11" text-anchor="middle">writes into o_padded[:T, :128, :576]</text>
<text x="550" y="242" font-family="sans-serif" font-size="10.5" text-anchor="middle" fill="#555">see Figure 15 / 16 for the internal tensor-shape walk</text>

<line x1="170" y1="125" x2="170" y2="210" stroke="#333" marker-end="url(#wf_ar)"/>
<line x1="780" y1="128" x2="780" y2="160" stroke="#333" marker-end="url(#wf_ar)"/>
<line x1="985" y1="130" x2="985" y2="160" stroke="#333" marker-end="url(#wf_ar)"/>

<!-- slice -->
<rect x="80" y="290" width="260" height="50" fill="#fff" stroke="#333" rx="4"/>
<text x="210" y="312" font-family="sans-serif" font-size="12" font-weight="700" text-anchor="middle">③ slice o_padded</text>
<text x="210" y="330" font-family="monospace" font-size="10.5" text-anchor="middle">o = o_padded[:, :n_h, :] → [T, n_h=128, 576]</text>

<!-- fused_inv_rope_fp8_quant -->
<rect x="360" y="290" width="280" height="74" fill="#fff5f0" stroke="#b85450" rx="4"/>
<text x="500" y="312" font-family="sans-serif" font-size="12" font-weight="700" text-anchor="middle">④ fused_inv_rope_fp8_quant</text>
<text x="500" y="332" font-family="monospace" font-size="10.5" text-anchor="middle">o_fp8  : [T, g=16, heads/g=8, 576/2]</text>
<text x="500" y="350" font-family="monospace" font-size="10.5" text-anchor="middle">o_scale: [T, g, …] 1 per 128 columns</text>

<!-- wo_a einsum -->
<rect x="670" y="290" width="280" height="90" fill="#fff4e0" stroke="#e0b300" rx="4"/>
<text x="810" y="312" font-family="sans-serif" font-size="12" font-weight="700" text-anchor="middle">⑤ deepseek_v4_fp8_einsum "bhr,hdr→bhd"</text>
<text x="810" y="332" font-family="monospace" font-size="10.5" text-anchor="middle">wo_a.weight      : [g=16, d_g=1024, ???]</text>
<text x="810" y="350" font-family="monospace" font-size="10.5" text-anchor="middle">wo_a.weight_scale</text>
<text x="810" y="366" font-family="monospace" font-size="10.5" text-anchor="middle">z (out)          : [T, 16, 1024] · bf16</text>

<line x1="340" y1="315" x2="358" y2="315" stroke="#333" marker-end="url(#wf_ar)"/>
<line x1="640" y1="315" x2="668" y2="315" stroke="#333" marker-end="url(#wf_ar)"/>
<line x1="550" y1="260" x2="500" y2="288" stroke="#333" marker-end="url(#wf_ar)"/>
<line x1="550" y1="260" x2="210" y2="288" stroke="#333" marker-end="url(#wf_ar)"/>

<!-- wo_b -->
<rect x="360" y="400" width="380" height="74" fill="#f4faf4" stroke="#5fa55f" rx="4"/>
<text x="550" y="422" font-family="sans-serif" font-size="12" font-weight="700" text-anchor="middle">⑥ wo_b(z.flatten(1))</text>
<text x="550" y="442" font-family="monospace" font-size="10.5" text-anchor="middle">input : [T, 16 × 1024] = [T, 16384] · bf16</text>
<text x="550" y="460" font-family="monospace" font-size="10.5" text-anchor="middle">output: [T, 7168] · bf16  → back to hidden</text>

<line x1="810" y1="380" x2="810" y2="438" stroke="#333" marker-end="url(#wf_ar)"/>
<line x1="810" y1="438" x2="738" y2="438" stroke="#333"/>

<text x="550" y="510" font-family="sans-serif" font-size="11.5" font-weight="700" text-anchor="middle" fill="#333">Key dims for V4-Pro</text>
<text x="550" y="525" font-family="monospace" font-size="10.5" text-anchor="middle" fill="#555">hidden=7168 · n_h=128 · head_dim=576 (nope=512+rope=64) · q_lora=1536 · kv_lora=512 · g=16 · d_g=1024 · o_lora=1024</text>
</svg>