<svg viewBox="0 0 1000 360" xmlns="http://www.w3.org/2000/svg">
<rect width="1000" height="360" fill="#fff"/>
<text x="500" y="24" font-family="sans-serif" font-size="15" font-weight="700" text-anchor="middle">1 M-token: FLOPs / KV-cache curves (reproduces Figure 1 right)</text>
<g transform="translate(40,40)">
<rect x="0" y="0" width="440" height="280" fill="#fafbfc" stroke="#d0d7de"/>
<text x="220" y="18" font-family="sans-serif" font-size="13" font-weight="600" text-anchor="middle">Single-token FLOPs (T)</text>
<line x1="40" y1="260" x2="420" y2="260" stroke="#333"/>
<line x1="40" y1="40"  x2="40"  y2="260" stroke="#333"/>
<text x="20" y="50" font-family="sans-serif" font-size="10" text-anchor="end">50</text>
<text x="20" y="150" font-family="sans-serif" font-size="10" text-anchor="end">25</text>
<text x="20" y="260" font-family="sans-serif" font-size="10" text-anchor="end">0</text>
<polyline points="40,255 120,245 200,215 280,175 360,115 420,55" fill="none" stroke="#b85450" stroke-width="2.5"/>
<text x="425" y="55" font-family="sans-serif" font-size="11" fill="#b85450">V3.2</text>
<polyline points="40,255 120,252 200,245 280,230 360,210 420,185" fill="none" stroke="#4a6fd3" stroke-width="2.5"/>
<text x="425" y="185" font-family="sans-serif" font-size="11" fill="#4a6fd3">V4-Pro (3.7× ↓)</text>
<polyline points="40,257 120,256 200,253 280,248 360,241 420,233" fill="none" stroke="#5fa55f" stroke-width="2.5"/>
<text x="425" y="233" font-family="sans-serif" font-size="11" fill="#5fa55f">V4-Flash (9.8× ↓)</text>
<text x="220" y="275" font-family="sans-serif" font-size="11" text-anchor="middle" fill="#555">Sequence length (K)  0 → 1024</text>
</g>
<g transform="translate(520,40)">
<rect x="0" y="0" width="440" height="280" fill="#fafbfc" stroke="#d0d7de"/>
<text x="220" y="18" font-family="sans-serif" font-size="13" font-weight="600" text-anchor="middle">Accumulated KV-cache (GB)</text>
<line x1="40" y1="260" x2="420" y2="260" stroke="#333"/>
<line x1="40" y1="40"  x2="40"  y2="260" stroke="#333"/>
<text x="20" y="50" font-family="sans-serif" font-size="10" text-anchor="end">50</text>
<text x="20" y="150" font-family="sans-serif" font-size="10" text-anchor="end">25</text>
<text x="20" y="260" font-family="sans-serif" font-size="10" text-anchor="end">0</text>
<polyline points="40,255 120,240 200,200 280,145 360,85 420,45" fill="none" stroke="#b85450" stroke-width="2.5"/>
<text x="425" y="45" font-family="sans-serif" font-size="11" fill="#b85450">V3.2</text>
<polyline points="40,257 120,254 200,247 280,235 360,220 420,205" fill="none" stroke="#4a6fd3" stroke-width="2.5"/>
<text x="425" y="205" font-family="sans-serif" font-size="11" fill="#4a6fd3">V4-Pro (9.5× ↓)</text>
<polyline points="40,258 120,257 200,255 280,252 360,248 420,244" fill="none" stroke="#5fa55f" stroke-width="2.5"/>
<text x="425" y="244" font-family="sans-serif" font-size="11" fill="#5fa55f">V4-Flash (13.7× ↓)</text>
<text x="220" y="275" font-family="sans-serif" font-size="11" text-anchor="middle" fill="#555">Sequence length (K)  0 → 1024</text>
</g>
<text x="500" y="350" font-family="monospace" font-size="11" text-anchor="middle" fill="#555">V4-Pro @1M: 27% FLOPs, 10% KV · V4-Flash @1M: 10% FLOPs, 7% KV — reproduced from Figure 1</text>
</svg>