<svg width="100%" height="auto" viewBox="0 0 1000 360" xmlns="http://www.w3.org/2000/svg">
<defs><marker id="mhc_ar" viewBox="0 0 10 10" refX="10" refY="5" markerWidth="7" markerHeight="7" orient="auto"><path d="M0,0 L10,5 L0,10 z" fill="#333"/></marker></defs>
<rect width="1000" height="360" fill="#fff"/>
<text x="500" y="24" font-family="sans-serif" font-size="16" font-weight="700" text-anchor="middle">mHC · Manifold-Constrained Hyper-Connections</text>
<g transform="translate(40,56)">
<text x="180" y="0" font-family="sans-serif" font-size="13" font-weight="600" text-anchor="middle">(a) Hyper-Connection (HC)</text>
<rect x="0" y="16" width="360" height="128" fill="#fff5f0" stroke="#b85450" rx="4"/>
<text x="180" y="50" font-family="sans-serif" font-size="12" text-anchor="middle">X_{l+1} = B_l · X_l + C_l · F_l(A_l · X_l)</text>
<text x="180" y="75" font-family="sans-serif" font-size="11" text-anchor="middle">unconstrained B_l → ‖B_l‖₂ unbounded</text>
<text x="180" y="95" font-family="sans-serif" font-size="11" text-anchor="middle" fill="#b85450">27B: signal amplified ≈3000×</text>
<text x="180" y="115" font-family="sans-serif" font-size="11" text-anchor="middle" fill="#b85450">loss spike around step 12k</text>
</g>
<g transform="translate(460,56)">
<text x="250" y="0" font-family="sans-serif" font-size="13" font-weight="600" text-anchor="middle">(b) Manifold-Constrained HC</text>
<rect x="0" y="16" width="500" height="128" fill="#f4faf4" stroke="#5fa55f" rx="4"/>
<text x="250" y="44" font-family="sans-serif" font-size="12" text-anchor="middle">B_l ∈ M := { M ≥ 0 : M·𝟙=𝟙, 𝟙ᵀM=𝟙ᵀ }   (Birkhoff polytope)</text>
<text x="250" y="68" font-family="sans-serif" font-size="12" text-anchor="middle">‖B_l‖₂ ≤ 1   ·   A_l, C_l via Sigmoid (bounded)</text>
<text x="250" y="90" font-family="sans-serif" font-size="11" text-anchor="middle">B_l = Sinkhorn-Knopp(exp(B̃_l), t_max=20)</text>
<text x="250" y="108" font-family="sans-serif" font-size="11" text-anchor="middle" fill="#1a3d1a">total gain ≈1.6× · deep stacks converge</text>
<text x="250" y="128" font-family="sans-serif" font-size="11" text-anchor="middle" fill="#1a3d1a">BBH 43.8 → 51.0 (vs HC 48.9)</text>
</g>
<text x="500" y="188" font-family="sans-serif" font-size="13" font-weight="600" text-anchor="middle">Sinkhorn-Knopp iteration (20 steps) · row + col normalize</text>
<g transform="translate(120,200)"><rect x="0" y="0" width="120" height="90" fill="#fff" stroke="#555"/><text x="60" y="50" font-family="monospace" font-size="14" text-anchor="middle">exp(B̃_l)</text><text x="60" y="110" font-family="sans-serif" font-size="10" text-anchor="middle">positive matrix</text></g>
<g transform="translate(320,200)"><rect x="0" y="0" width="120" height="90" fill="#fff" stroke="#555"/><text x="60" y="50" font-family="monospace" font-size="13" text-anchor="middle">T_r(T_c(·))</text><text x="60" y="110" font-family="sans-serif" font-size="10" text-anchor="middle">alternating norm.</text></g>
<g transform="translate(520,200)"><rect x="0" y="0" width="120" height="90" fill="#eef7ee" stroke="#5fa55f"/><text x="60" y="50" font-family="monospace" font-size="13" text-anchor="middle">B_l ∈ M</text><text x="60" y="110" font-family="sans-serif" font-size="10" text-anchor="middle">doubly stochastic</text></g>
<g transform="translate(720,200)"><rect x="0" y="0" width="180" height="90" fill="#fff4e0" stroke="#e0b300"/><text x="90" y="44" font-family="sans-serif" font-size="11" text-anchor="middle">non-expansive map</text><text x="90" y="62" font-family="sans-serif" font-size="11" text-anchor="middle">stable fwd + bwd</text><text x="90" y="80" font-family="sans-serif" font-size="11" text-anchor="middle">n_hc = 4 expansion</text></g>
<line x1="240" y1="245" x2="318" y2="245" stroke="#333" stroke-width="1.4" marker-end="url(#mhc_ar)"/>
<line x1="440" y1="245" x2="518" y2="245" stroke="#333" stroke-width="1.4" marker-end="url(#mhc_ar)"/>
<line x1="640" y1="245" x2="718" y2="245" stroke="#333" stroke-width="1.4" marker-end="url(#mhc_ar)"/>
</svg>