<svg viewBox="0 0 1100 360" xmlns="http://www.w3.org/2000/svg">
<rect width="1100" height="360" fill="#fff"/>
<text x="550" y="24" font-family="sans-serif" font-size="16" font-weight="700" text-anchor="middle">DSec · Agentic sandbox platform (Rust, 3FS-backed)</text>

<!-- Components -->
<rect x="30" y="56" width="1040" height="90" fill="#fff4e0" stroke="#e0b300" rx="4"/>
<text x="550" y="78" font-family="sans-serif" font-size="13" font-weight="700" text-anchor="middle">Three Rust services</text>
<g font-family="monospace" font-size="11">
  <text x="45"  y="102">Apiserver · HTTP gateway, auth, scheduling RPC</text>
  <text x="45"  y="120">Edge · per-host agent, exec/filesystem/TTY, integrates cgroups v2 + seccomp</text>
  <text x="45"  y="138">Watcher · cluster monitor, SLA signals, failure detection</text>
</g>

<!-- Substrates -->
<g font-family="sans-serif" font-size="11.5">
  <rect x="30"  y="170" width="250" height="170" fill="#eef3ff" stroke="#4a6fd3" rx="4"/>
  <text x="155" y="192" font-weight="700" text-anchor="middle">Function</text>
  <text x="45"  y="216">• stateless, dispatched to</text>
  <text x="45"  y="234">  pre-warmed container pool</text>
  <text x="45"  y="252">• zero cold-start for tool calls</text>
  <text x="45"  y="280" fill="#1a3a5c">• best for: one-shot tools, query</text>
  <text x="45"  y="298" fill="#1a3a5c">  classification, short code exec</text>

  <rect x="300" y="170" width="250" height="170" fill="#fff5f0" stroke="#b85450" rx="4"/>
  <text x="425" y="192" font-weight="700" text-anchor="middle">Container</text>
  <text x="315" y="216">• fully Docker-compatible</text>
  <text x="315" y="234">• EROFS on-demand layer load</text>
  <text x="315" y="252">• base + CoW overlay</text>
  <text x="315" y="280" fill="#b85450">• best for: dev environments,</text>
  <text x="315" y="298" fill="#b85450">  SWE-Bench-style rollouts</text>

  <rect x="570" y="170" width="250" height="170" fill="#f9eef8" stroke="#a33ea1" rx="4"/>
  <text x="695" y="192" font-weight="700" text-anchor="middle">microVM (Firecracker)</text>
  <text x="585" y="216">• VM isolation boundary</text>
  <text x="585" y="234">• overlaybd read-only base + CoW</text>
  <text x="585" y="252">• chainable snapshots</text>
  <text x="585" y="280" fill="#4a1a48">• best for: security-sensitive</text>
  <text x="585" y="298" fill="#4a1a48">  high-density sandboxes</text>

  <rect x="840" y="170" width="230" height="170" fill="#f4faf4" stroke="#5fa55f" rx="4"/>
  <text x="955" y="192" font-weight="700" text-anchor="middle">fullVM (QEMU)</text>
  <text x="855" y="216">• arbitrary guest OS</text>
  <text x="855" y="234">• heaviest but most flexible</text>
  <text x="855" y="262" fill="#1a3d1a">• best for: kernel drivers,</text>
  <text x="855" y="280" fill="#1a3d1a">  non-Linux guests, research</text>
</g>
</svg>