<svg viewBox="0 0 1100 360" xmlns="http://www.w3.org/2000/svg">
<rect width="1100" height="360" fill="#fff"/>
<text x="550" y="24" font-family="sans-serif" font-size="16" font-weight="700" text-anchor="middle">Layer interleave pattern · V4-Flash (L=43) vs V4-Pro (L=61)</text>

<!-- V4-Flash -->
<text x="30" y="66" font-family="sans-serif" font-size="13" font-weight="700" fill="#4a6fd3">V4-Flash · L = 43 (13 B active)</text>
<g transform="translate(30,80)">
  <!-- first 2 SWA -->
  <rect x="0" y="0" width="30" height="40" fill="#eef3ff" stroke="#4a6fd3"/>
  <rect x="30" y="0" width="30" height="40" fill="#eef3ff" stroke="#4a6fd3"/>
  <!-- alternating -->
  <g transform="translate(60,0)">
  <rect x="0"  y="0" width="30" height="40" fill="#fff5f0" stroke="#b85450"/>
  <rect x="30" y="0" width="30" height="40" fill="#f4faf4" stroke="#5fa55f"/>
  <rect x="60" y="0" width="30" height="40" fill="#fff5f0" stroke="#b85450"/>
  <rect x="90" y="0" width="30" height="40" fill="#f4faf4" stroke="#5fa55f"/>
  <rect x="120" y="0" width="30" height="40" fill="#fff5f0" stroke="#b85450"/>
  <rect x="150" y="0" width="30" height="40" fill="#f4faf4" stroke="#5fa55f"/>
  <rect x="180" y="0" width="30" height="40" fill="#fff5f0" stroke="#b85450"/>
  <rect x="210" y="0" width="30" height="40" fill="#f4faf4" stroke="#5fa55f"/>
  <rect x="240" y="0" width="30" height="40" fill="#fff5f0" stroke="#b85450"/>
  <rect x="270" y="0" width="30" height="40" fill="#f4faf4" stroke="#5fa55f"/>
  <!-- ... -->
  <rect x="300" y="0" width="120" height="40" fill="#fff" stroke="#333" stroke-dasharray="3 2"/>
  <text x="360" y="24" font-family="monospace" font-size="11" text-anchor="middle">… 交替到 L−1</text>
  </g>
</g>
<text x="45"   y="144" font-family="monospace" font-size="10" fill="#4a6fd3">SWA (pure)</text>
<text x="45"   y="158" font-family="monospace" font-size="10" fill="#4a6fd3">layer 0, 1</text>
<text x="115"  y="144" font-family="monospace" font-size="10" fill="#b85450">CSA (m=4)</text>
<text x="115"  y="158" font-family="monospace" font-size="10" fill="#b85450">layer 2, 4, 6, …</text>
<text x="210"  y="144" font-family="monospace" font-size="10" fill="#5fa55f">HCA (m'=128)</text>
<text x="210"  y="158" font-family="monospace" font-size="10" fill="#5fa55f">layer 3, 5, 7, …</text>

<!-- V4-Pro -->
<text x="30" y="200" font-family="sans-serif" font-size="13" font-weight="700" fill="#b85450">V4-Pro · L = 61 (49 B active)</text>
<g transform="translate(30,214)">
  <!-- first 2 HCA -->
  <rect x="0"  y="0" width="30" height="40" fill="#f4faf4" stroke="#5fa55f"/>
  <rect x="30" y="0" width="30" height="40" fill="#f4faf4" stroke="#5fa55f"/>
  <!-- alternating -->
  <g transform="translate(60,0)">
  <rect x="0"  y="0" width="30" height="40" fill="#fff5f0" stroke="#b85450"/>
  <rect x="30" y="0" width="30" height="40" fill="#f4faf4" stroke="#5fa55f"/>
  <rect x="60" y="0" width="30" height="40" fill="#fff5f0" stroke="#b85450"/>
  <rect x="90" y="0" width="30" height="40" fill="#f4faf4" stroke="#5fa55f"/>
  <rect x="120" y="0" width="30" height="40" fill="#fff5f0" stroke="#b85450"/>
  <rect x="150" y="0" width="30" height="40" fill="#f4faf4" stroke="#5fa55f"/>
  <rect x="180" y="0" width="30" height="40" fill="#fff5f0" stroke="#b85450"/>
  <rect x="210" y="0" width="30" height="40" fill="#f4faf4" stroke="#5fa55f"/>
  <rect x="240" y="0" width="30" height="40" fill="#fff5f0" stroke="#b85450"/>
  <rect x="270" y="0" width="30" height="40" fill="#f4faf4" stroke="#5fa55f"/>
  <rect x="300" y="0" width="120" height="40" fill="#fff" stroke="#333" stroke-dasharray="3 2"/>
  <text x="360" y="24" font-family="monospace" font-size="11" text-anchor="middle">… 交替到 L−1</text>
  </g>
</g>
<text x="45"   y="278" font-family="monospace" font-size="10" fill="#5fa55f">HCA (bootstrap)</text>
<text x="45"   y="292" font-family="monospace" font-size="10" fill="#5fa55f">layer 0, 1</text>
<text x="115"  y="278" font-family="monospace" font-size="10" fill="#b85450">CSA (m=4)</text>
<text x="115"  y="292" font-family="monospace" font-size="10" fill="#b85450">layer 2, 4, 6, …</text>
<text x="210"  y="278" font-family="monospace" font-size="10" fill="#5fa55f">HCA (m'=128)</text>
<text x="210"  y="292" font-family="monospace" font-size="10" fill="#5fa55f">layer 3, 5, 7, …</text>

<text x="30" y="330" font-family="monospace" font-size="11">每层都额外带 n_win=128 的 sliding-window 分支 (uncompressed SWA KV)</text>
<text x="30" y="348" font-family="monospace" font-size="11">Flash 前两层 SWA 更适合模型从短序列 warmup；Pro 前两层改为 HCA 以更早建立全局视野</text>
</svg>