<svg width="100%" height="auto" viewBox="0 0 1100 360" xmlns="http://www.w3.org/2000/svg">
<rect width="1100" height="360" fill="#fff"/>
<text x="550" y="24" font-family="sans-serif" font-size="15" font-weight="700" text-anchor="middle">Reasoning-effort vs quality · Pass@1 曲线（HLE / TerminalBench 2.0，论文 Figure 10）</text>
<!-- HLE -->
<g transform="translate(40,40)">
  <rect x="0" y="0" width="500" height="300" fill="#fafbfc" stroke="#d0d7de"/>
  <text x="250" y="18" font-family="sans-serif" font-size="13" font-weight="600" text-anchor="middle">HLE (Pass@1, %)</text>
  <line x1="50" y1="280" x2="480" y2="280" stroke="#333"/>
  <line x1="50" y1="40"  x2="50"  y2="280" stroke="#333"/>
  <text x="35" y="50"  font-family="sans-serif" font-size="10" text-anchor="end">40</text>
  <text x="35" y="160" font-family="sans-serif" font-size="10" text-anchor="end">20</text>
  <text x="35" y="280" font-family="sans-serif" font-size="10" text-anchor="end">0</text>
  <!-- Pro -->
  <polyline points="70,260 180,170 310,80 460,55" fill="none" stroke="#4a6fd3" stroke-width="2.5"/>
  <circle cx="70" cy="260" r="3.5" fill="#4a6fd3"/>
  <circle cx="180" cy="170" r="3.5" fill="#4a6fd3"/>
  <circle cx="310" cy="80" r="3.5" fill="#4a6fd3"/>
  <circle cx="460" cy="55" r="3.5" fill="#4a6fd3"/>
  <text x="470" y="55" font-family="sans-serif" font-size="11" fill="#4a6fd3">V4-Pro 37.7</text>
  <!-- Flash -->
  <polyline points="70,275 180,190 310,95 460,70" fill="none" stroke="#5fa55f" stroke-width="2.5"/>
  <circle cx="70" cy="275" r="3.5" fill="#5fa55f"/>
  <circle cx="180" cy="190" r="3.5" fill="#5fa55f"/>
  <circle cx="310" cy="95" r="3.5" fill="#5fa55f"/>
  <circle cx="460" cy="70" r="3.5" fill="#5fa55f"/>
  <text x="470" y="70" font-family="sans-serif" font-size="11" fill="#5fa55f">V4-Flash 34.8</text>
  <!-- V3.2 -->
  <polyline points="70,278 180,240 310,210 460,195" fill="none" stroke="#b85450" stroke-width="2.5" stroke-dasharray="4 3"/>
  <text x="470" y="195" font-family="sans-serif" font-size="11" fill="#b85450">V3.2</text>
  <text x="250" y="300" font-family="sans-serif" font-size="11" text-anchor="middle" fill="#555">Total tokens  20k → 80k</text>
  <text x="250" y="318" font-family="sans-serif" font-size="11" text-anchor="middle" fill="#555">Non-think → Think High → Max / Speciale</text>
</g>

<!-- Terminal Bench -->
<g transform="translate(580,40)">
  <rect x="0" y="0" width="480" height="300" fill="#fafbfc" stroke="#d0d7de"/>
  <text x="240" y="18" font-family="sans-serif" font-size="13" font-weight="600" text-anchor="middle">TerminalBench 2.0 (Pass@1, %)</text>
  <line x1="50" y1="280" x2="460" y2="280" stroke="#333"/>
  <line x1="50" y1="40"  x2="50"  y2="280" stroke="#333"/>
  <text x="35" y="50"  font-family="sans-serif" font-size="10" text-anchor="end">70</text>
  <text x="35" y="160" font-family="sans-serif" font-size="10" text-anchor="end">50</text>
  <text x="35" y="280" font-family="sans-serif" font-size="10" text-anchor="end">30</text>
  <!-- Pro -->
  <polyline points="70,130 240,80 440,50" fill="none" stroke="#4a6fd3" stroke-width="2.5"/>
  <circle cx="70" cy="130" r="3.5" fill="#4a6fd3"/>
  <circle cx="240" cy="80" r="3.5" fill="#4a6fd3"/>
  <circle cx="440" cy="50" r="3.5" fill="#4a6fd3"/>
  <text x="445" y="50" font-family="sans-serif" font-size="11" fill="#4a6fd3">V4-Pro 67.9</text>
  <!-- Flash -->
  <polyline points="70,205 240,150 440,140" fill="none" stroke="#5fa55f" stroke-width="2.5"/>
  <circle cx="70" cy="205" r="3.5" fill="#5fa55f"/>
  <circle cx="240" cy="150" r="3.5" fill="#5fa55f"/>
  <circle cx="440" cy="140" r="3.5" fill="#5fa55f"/>
  <text x="445" y="140" font-family="sans-serif" font-size="11" fill="#5fa55f">V4-Flash 56.9</text>
  <!-- V3.2 -->
  <polyline points="70,240 240,225 440,215" fill="none" stroke="#b85450" stroke-width="2.5" stroke-dasharray="4 3"/>
  <text x="445" y="215" font-family="sans-serif" font-size="11" fill="#b85450">V3.2</text>
  <text x="240" y="300" font-family="sans-serif" font-size="11" text-anchor="middle" fill="#555">None → Think High → Max</text>
  <text x="240" y="318" font-family="sans-serif" font-size="11" text-anchor="middle" fill="#555">(reasoning effort, left → right)</text>
</g>
</svg>