<svg width="100%" height="auto" viewBox="0 0 1100 620" xmlns="http://www.w3.org/2000/svg" font-family="system-ui, -apple-system, 'Segoe UI', 'PingFang SC', sans-serif">
<rect width="1100" height="620" fill="#fff"/>
<text x="550" y="26" font-size="16" font-weight="700" text-anchor="middle" fill="#111827">C / B 阈值地图 · 4 个代表性 GPU 在 V4-Pro MoE 上的位置</text>
<text x="550" y="46" font-size="11" text-anchor="middle" fill="#6b7280">阈值 = 2·d_intermediate = 6144 FLOPs/Byte · 横轴：FP8 dense compute · 纵轴：NVLink per-direction BW</text>
<text x="550" y="64" font-size="10" text-anchor="middle" fill="#9ca3af" font-style="italic">公式：required_BW (GB/s) = compute (PFLOPs) × 1024 / 6.144 · 紫色虚线即为这条等式曲线</text>

<g transform="translate(80,90)">
  <rect x="0" y="0" width="940" height="400" fill="#fafbfc" stroke="#d0d7de"/>

  <!-- Above-threshold (green tint) -->
  <polygon points="60,360 60,40 612,40" fill="#f4faf4" opacity="0.55"/>
  <!-- Below-threshold (red tint) -->
  <polygon points="60,360 612,40 900,40 900,360" fill="#fff5f0" opacity="0.55"/>

  <!-- Axes -->
  <line x1="60" y1="360" x2="900" y2="360" stroke="#333"/>
  <line x1="60" y1="40"  x2="60"  y2="360" stroke="#333"/>

  <!-- X grid + labels -->
  <line x1="175" y1="40" x2="175" y2="360" stroke="#e5e7eb" stroke-width="0.7"/>
  <line x1="290" y1="40" x2="290" y2="360" stroke="#e5e7eb" stroke-width="0.7"/>
  <line x1="405" y1="40" x2="405" y2="360" stroke="#e5e7eb" stroke-width="0.7"/>
  <line x1="520" y1="40" x2="520" y2="360" stroke="#e5e7eb" stroke-width="0.7"/>
  <line x1="635" y1="40" x2="635" y2="360" stroke="#e5e7eb" stroke-width="0.7"/>
  <line x1="750" y1="40" x2="750" y2="360" stroke="#e5e7eb" stroke-width="0.7"/>
  <line x1="865" y1="40" x2="865" y2="360" stroke="#e5e7eb" stroke-width="0.7"/>
  <text x="60"  y="380" font-size="10" text-anchor="middle" fill="#555">0</text>
  <text x="175" y="380" font-size="10" text-anchor="middle" fill="#555">5</text>
  <text x="290" y="380" font-size="10" text-anchor="middle" fill="#555">10</text>
  <text x="405" y="380" font-size="10" text-anchor="middle" fill="#555">15</text>
  <text x="520" y="380" font-size="10" text-anchor="middle" fill="#555">20</text>
  <text x="635" y="380" font-size="10" text-anchor="middle" fill="#555">25</text>
  <text x="750" y="380" font-size="10" text-anchor="middle" fill="#555">30</text>
  <text x="865" y="380" font-size="10" text-anchor="middle" fill="#555">35</text>
  <text x="480" y="402" font-size="11.5" fill="#333" text-anchor="middle" font-weight="600">peak compute (PFLOPs · FP8 dense)</text>

  <!-- Y grid + labels -->
  <line x1="60" y1="299" x2="900" y2="299" stroke="#e5e7eb" stroke-width="0.7"/>
  <line x1="60" y1="235" x2="900" y2="235" stroke="#e5e7eb" stroke-width="0.7"/>
  <line x1="60" y1="171" x2="900" y2="171" stroke="#e5e7eb" stroke-width="0.7"/>
  <line x1="60" y1="107" x2="900" y2="107" stroke="#e5e7eb" stroke-width="0.7"/>
  <line x1="60" y1="43"  x2="900" y2="43"  stroke="#e5e7eb" stroke-width="0.7"/>
  <text x="50" y="363" font-size="10" text-anchor="end" fill="#555">0</text>
  <text x="50" y="303" font-size="10" text-anchor="end" fill="#555">800</text>
  <text x="50" y="239" font-size="10" text-anchor="end" fill="#555">1600</text>
  <text x="50" y="175" font-size="10" text-anchor="end" fill="#555">2400</text>
  <text x="50" y="111" font-size="10" text-anchor="end" fill="#555">3200</text>
  <text x="50" y="47"  font-size="10" text-anchor="end" fill="#555">4000</text>
  <text x="-110" y="200" font-size="11.5" fill="#333" font-weight="600" transform="rotate(-90 -110 200)">NVLink BW (GB/s · per direction)</text>

  <!-- Threshold line -->
  <line x1="60" y1="360" x2="612" y2="40" stroke="#a33ea1" stroke-width="2.2" stroke-dasharray="6 4"/>
  <text x="500" y="195" font-size="12" font-weight="700" fill="#a33ea1" transform="rotate(-30 500 195)">阈值线 · C/B = 6144 FLOPs/B</text>

  <!-- Region labels -->
  <text x="160" y="115" font-size="13" fill="#1a3d1a" font-weight="700">✓ BW 余裕区</text>
  <text x="160" y="135" font-size="10.5" fill="#1a3d1a">通信完全可藏 (compute-bound)</text>

  <text x="690" y="305" font-size="13" fill="#7a2f2b" font-weight="700">⚠ BW 不足区</text>
  <text x="690" y="325" font-size="10.5" fill="#7a2f2b">通信成瓶颈 (comm-bound)</text>

  <!-- ===  4 GPU points only  === -->

  <!-- 1) H100 / H200: 1.979P, 450 GB/s -->
  <!-- x = 60 + (1.979/40)*920 = 105.5; y = 360 - (450/4000)*320 = 324 -->
  <circle cx="106" cy="324" r="9" fill="#4a6fd3" stroke="#fff" stroke-width="2"/>
  <text x="120" y="316" font-size="12" fill="#1a2d55" font-weight="700">H100 / H200</text>
  <text x="120" y="332" font-size="10.5" fill="#1a2d55">1.98 PFLOPs · 450 GB/s · NVLink 4</text>
  <text x="120" y="348" font-size="11" fill="#1a3d1a" font-weight="600">余量 1.36×</text>

  <!-- 2) B200: 4.5P, 900 GB/s -->
  <!-- x = 60 + (4.5/40)*920 = 163.5; y = 360 - (900/4000)*320 = 288 -->
  <circle cx="164" cy="288" r="9" fill="#4a6fd3" stroke="#fff" stroke-width="2"/>
  <text x="178" y="262" font-size="12" fill="#1a2d55" font-weight="700">B200</text>
  <text x="178" y="278" font-size="10.5" fill="#1a2d55">4.5 PFLOPs · 900 GB/s · NVLink 5</text>
  <text x="178" y="294" font-size="11" fill="#1a3d1a" font-weight="600">余量 1.20×</text>

  <!-- 3) B300: SAME as B200 — overlap with yellow ring + arrow annotation -->
  <circle cx="164" cy="288" r="14" fill="none" stroke="#e0b300" stroke-width="3"/>
  <line x1="178" y1="320" x2="200" y2="350" stroke="#7a4e00" stroke-width="1.5" stroke-dasharray="3 2"/>
  <text x="205" y="345" font-size="11" fill="#7a4e00" font-weight="700">B300 与 B200 重合</text>
  <text x="205" y="358" font-size="10" fill="#7a4e00">(同 FP8 4.5P / 同 900 GB/s)</text>
  <text x="205" y="370" font-size="10" fill="#7a4e00" font-style="italic">B300 升级集中在 FP4 与 显存</text>

  <!-- 4) Rubin Ultra: 35P, 3600 GB/s -->
  <!-- x = 60 + (35/40)*920 = 865; y = 360 - (3600/4000)*320 = 72 -->
  <circle cx="865" cy="72" r="11" fill="#b85450" stroke="#fff" stroke-width="2"/>
  <text x="853" y="60" font-size="12" fill="#7a2f2b" font-weight="700" text-anchor="end">Rubin Ultra (next-next gen)</text>
  <text x="853" y="76" font-size="10.5" fill="#7a2f2b" text-anchor="end">35 PFLOPs · 3600 GB/s · NVLink 7</text>
  <text x="853" y="92" font-size="11" fill="#7a2f2b" font-weight="600" text-anchor="end">余量 0.62×（穿过阈值，BW 不足）</text>

  <!-- Threshold required for Rubin Ultra -->
  <line x1="865" y1="72" x2="865" y2="42" stroke="#a33ea1" stroke-width="1.2" stroke-dasharray="2 2"/>
  <circle cx="865" cy="42" r="4" fill="#a33ea1" stroke="#fff" stroke-width="1.5"/>
  <text x="853" y="38" font-size="9.5" fill="#a33ea1" text-anchor="end" font-weight="600">阈值要求: 5833 GB/s</text>

  <!-- Trajectory: H → B → Rubin -->
  <polyline points="106,324 164,288 865,72" fill="none" stroke="#9ca3af" stroke-width="1.4" stroke-dasharray="4 3"/>
  <text x="500" y="180" font-size="11" fill="#6b7280" font-style="italic" transform="rotate(-22 500 180)">代际算力轨迹（同比例外推）</text>
</g>

<!-- Take-away -->
<rect x="60" y="516" width="980" height="92" rx="8" fill="#f9fafb" stroke="#e5e7eb"/>
<text x="80"  y="536" font-size="11.5" fill="#333">• <b>H100/H200/B200/B300 都在 BW 余裕区</b>：V4-Pro MoE 的通信可以完全藏在计算之下，NVLink 不是瓶颈。</text>
<text x="80"  y="554" font-size="11.5" fill="#333">• <b>B200 与 B300 在本图上是同一个点</b>（FP8 4.5P / NVLink 900 GB/s 都不变）；B300 升级在 FP4 (+50%) 与 HBM (180→288 GB)，对 V4 MoE 的 C/B 故事不变。</text>
<text x="80"  y="572" font-size="11.5" fill="#333">• <b>Rubin Ultra（next-next gen）首次穿过紫色阈值线</b>：FP8 涨 7.8×（4.5 → 35P）但 NVLink 只涨 4×（900 → 3600 GB/s）→ 余量从 1.20× 跌到 0.62×。</text>
<text x="80"  y="590" font-size="11.5" fill="#333">• 论文 §3.1.2 ① 真正预言的时刻：<b>「单卡 compute 增速 ≫ NVLink 增速」</b>，从 Rubin 代起按 C/B 阈值重新平衡硬件设计成为必需。</text>
</svg>