<svg width="100%" height="auto" viewBox="0 0 1100 460" xmlns="http://www.w3.org/2000/svg" font-family="system-ui, -apple-system, 'Segoe UI', 'PingFang SC', sans-serif">
<defs><marker id="pp_ar" viewBox="0 0 10 10" refX="9" refY="5" markerWidth="6" markerHeight="6" orient="auto"><path d="M0,0 L10,5 L0,10 z" fill="#4b5563"/></marker></defs>
<rect width="1100" height="460" fill="#fff"/>
<text x="550" y="26" font-size="16" font-weight="700" text-anchor="middle" fill="#111827">Pull vs Push 通信原语 · 时序对比</text>

<!-- PULL panel -->
<g transform="translate(40,60)">
  <text x="250" y="0" font-size="13" font-weight="700" text-anchor="middle" fill="#1a3d1a">(a) Pull · V4 当前选择</text>
  <rect x="0" y="14" width="500" height="320" rx="8" fill="#f4faf4" stroke="#5fa55f"/>
  <!-- Lanes -->
  <text x="60"  y="50" font-size="11" font-weight="700" fill="#1a3d1a">GPU_send</text>
  <text x="60"  y="120" font-size="11" font-weight="700" fill="#1a3d1a">NVLink</text>
  <text x="60"  y="190" font-size="11" font-weight="700" fill="#1a3d1a">GPU_recv</text>
  <line x1="120" y1="42" x2="500" y2="42" stroke="#9ca3af" stroke-width="0.5"/>
  <line x1="120" y1="112" x2="500" y2="112" stroke="#9ca3af" stroke-width="0.5"/>
  <line x1="120" y1="182" x2="500" y2="182" stroke="#9ca3af" stroke-width="0.5"/>

  <!-- send: prepare buffer -->
  <rect x="125" y="32" width="80" height="20" rx="3" fill="#fff5f0" stroke="#b85450"/>
  <text x="165" y="46" font-size="9.5" text-anchor="middle">prep buf</text>

  <!-- send: barrier signal -->
  <rect x="208" y="32" width="40" height="20" rx="3" fill="#fff4e0" stroke="#e0b300"/>
  <text x="228" y="46" font-size="9" text-anchor="middle">barrier</text>

  <!-- recv: read request -->
  <rect x="125" y="174" width="50" height="20" rx="3" fill="#eef3ff" stroke="#4a6fd3"/>
  <text x="150" y="188" font-size="9" text-anchor="middle">poll rdy</text>
  <rect x="178" y="174" width="60" height="20" rx="3" fill="#eef3ff" stroke="#4a6fd3"/>
  <text x="208" y="188" font-size="9" text-anchor="middle">RDMA read</text>

  <!-- NVLink data: read req then payload -->
  <rect x="180" y="104" width="20" height="14" rx="2" fill="#a33ea1" opacity="0.6"/>
  <text x="190" y="100" font-size="8" text-anchor="middle" fill="#4a1a48">req</text>
  <rect x="205" y="104" width="180" height="14" rx="2" fill="#5fa55f" opacity="0.6"/>
  <text x="295" y="100" font-size="9" text-anchor="middle" fill="#1a3d1a">payload (bulk)</text>

  <!-- recv consume -->
  <rect x="395" y="174" width="80" height="20" rx="3" fill="#f4faf4" stroke="#5fa55f"/>
  <text x="435" y="188" font-size="9" text-anchor="middle">enqueue GEMM</text>

  <!-- Notes -->
  <text x="20" y="240" font-size="10.5" fill="#1a3d1a">+ 仅一次 round-trip：read req → payload</text>
  <text x="20" y="256" font-size="10.5" fill="#1a3d1a">+ 接收方主导时序 → 不需要 sender 通知</text>
  <text x="20" y="276" font-size="10.5" fill="#7a4e00">~ 接收方需轮询 ready 标志（~ns 级开销）</text>
  <text x="20" y="296" font-size="10.5" fill="#7a4e00">~ 适合 fine-grained wave (RDMA latency 主导)</text>
  <text x="20" y="320" font-size="11" font-weight="700" fill="#1a3d1a">总开销 ≈ RDMA RTT (亚 μs)</text>
</g>

<!-- PUSH panel -->
<g transform="translate(580,60)">
  <text x="250" y="0" font-size="13" font-weight="700" text-anchor="middle" fill="#7a2f2b">(b) Push · 当前不可用</text>
  <rect x="0" y="14" width="500" height="320" rx="8" fill="#fff5f0" stroke="#b85450"/>

  <text x="60"  y="50" font-size="11" font-weight="700" fill="#7a2f2b">GPU_send</text>
  <text x="60"  y="120" font-size="11" font-weight="700" fill="#7a2f2b">NVLink</text>
  <text x="60"  y="190" font-size="11" font-weight="700" fill="#7a2f2b">GPU_recv</text>
  <line x1="120" y1="42" x2="500" y2="42" stroke="#9ca3af" stroke-width="0.5"/>
  <line x1="120" y1="112" x2="500" y2="112" stroke="#9ca3af" stroke-width="0.5"/>
  <line x1="120" y1="182" x2="500" y2="182" stroke="#9ca3af" stroke-width="0.5"/>

  <!-- send: write + signal per packet -->
  <rect x="125" y="32" width="60" height="20" rx="3" fill="#fff5f0" stroke="#b85450"/>
  <text x="155" y="46" font-size="9" text-anchor="middle">RDMA write</text>
  <rect x="188" y="32" width="20" height="20" rx="3" fill="#a33ea1"/>
  <text x="198" y="46" font-size="9" text-anchor="middle" fill="#fff">sig</text>
  <rect x="211" y="32" width="60" height="20" rx="3" fill="#fff5f0" stroke="#b85450"/>
  <text x="241" y="46" font-size="9" text-anchor="middle">RDMA write</text>
  <rect x="274" y="32" width="20" height="20" rx="3" fill="#a33ea1"/>
  <text x="284" y="46" font-size="9" text-anchor="middle" fill="#fff">sig</text>
  <rect x="297" y="32" width="60" height="20" rx="3" fill="#fff5f0" stroke="#b85450"/>
  <text x="327" y="46" font-size="9" text-anchor="middle">RDMA write</text>
  <rect x="360" y="32" width="20" height="20" rx="3" fill="#a33ea1"/>
  <text x="370" y="46" font-size="9" text-anchor="middle" fill="#fff">sig</text>

  <!-- NVLink: payload + doorbell flush -->
  <rect x="125" y="104" width="60" height="14" rx="2" fill="#5fa55f" opacity="0.5"/>
  <text x="155" y="100" font-size="8" text-anchor="middle">pkt</text>
  <rect x="188" y="104" width="20" height="14" rx="2" fill="#a33ea1"/>
  <text x="198" y="100" font-size="8" text-anchor="middle" fill="#fff">db</text>
  <rect x="211" y="104" width="60" height="14" rx="2" fill="#5fa55f" opacity="0.5"/>
  <text x="241" y="100" font-size="8" text-anchor="middle">pkt</text>
  <rect x="274" y="104" width="20" height="14" rx="2" fill="#a33ea1"/>
  <text x="284" y="100" font-size="8" text-anchor="middle" fill="#fff">db</text>
  <rect x="297" y="104" width="60" height="14" rx="2" fill="#5fa55f" opacity="0.5"/>
  <text x="327" y="100" font-size="8" text-anchor="middle">pkt</text>
  <rect x="360" y="104" width="20" height="14" rx="2" fill="#a33ea1"/>
  <text x="370" y="100" font-size="8" text-anchor="middle" fill="#fff">db</text>

  <!-- recv: handlers -->
  <rect x="160" y="174" width="35" height="20" rx="3" fill="#eef3ff" stroke="#4a6fd3"/>
  <text x="178" y="188" font-size="9" text-anchor="middle">irq</text>
  <rect x="245" y="174" width="35" height="20" rx="3" fill="#eef3ff" stroke="#4a6fd3"/>
  <text x="263" y="188" font-size="9" text-anchor="middle">irq</text>
  <rect x="330" y="174" width="35" height="20" rx="3" fill="#eef3ff" stroke="#4a6fd3"/>
  <text x="348" y="188" font-size="9" text-anchor="middle">irq</text>

  <text x="20" y="240" font-size="10.5" fill="#7a2f2b">– 每个 fine-grained packet 都要写 doorbell</text>
  <text x="20" y="256" font-size="10.5" fill="#7a2f2b">– 当前硬件 doorbell 写延迟 ~ 0.5 – 1 μs</text>
  <text x="20" y="276" font-size="10.5" fill="#7a2f2b">– wave 内若有 100 个 packet ⇒ 50 – 100 μs overhead</text>
  <text x="20" y="296" font-size="10.5" fill="#1a3d1a">+ 未来若 signaling &lt; 100 ns，push 重新可用</text>
  <text x="20" y="320" font-size="11" font-weight="700" fill="#7a2f2b">总开销 ≈ N · doorbell 延迟（>> pull）</text>
</g>

<text x="550" y="430" font-size="10.5" text-anchor="middle" fill="#6b7280" font-style="italic">论文 §3.1 ③：硬件若把 cross-GPU signaling 做到亚 100 ns，push 模式将允许更细粒度的 wave overlap，逼近 1.92× 理论上限。</text>
<text x="550" y="448" font-size="10.5" text-anchor="middle" fill="#6b7280">绿色 = 数据传输；紫色 = 通知 / signaling；橙色 = barrier；蓝色 = 接收端处理</text>
</svg>