<svg viewBox="0 0 1100 460" xmlns="http://www.w3.org/2000/svg" font-family="system-ui, -apple-system, 'Segoe UI', 'PingFang SC', sans-serif">
<defs><marker id="sw_ar" viewBox="0 0 10 10" refX="9" refY="5" markerWidth="6" markerHeight="6" orient="auto"><path d="M0,0 L10,5 L0,10 z" fill="#4b5563"/></marker></defs>
<rect width="1100" height="460" fill="#fff"/>
<text x="550" y="26" font-size="16" font-weight="700" text-anchor="middle" fill="#111827">Activation 重构：用无 exp/div 的激活替代 SwiGLU</text>

<!-- LEFT: SwiGLU current -->
<g transform="translate(40,60)">
  <rect x="0" y="0" width="500" height="380" rx="10" fill="#fff5f0" stroke="#b85450" stroke-width="1.3"/>
  <text x="250" y="22" font-size="13" font-weight="700" text-anchor="middle" fill="#7a2f2b">SwiGLU (current V4)</text>

  <!-- input -->
  <rect x="200" y="44" width="100" height="28" rx="6" fill="#fff" stroke="#333"/>
  <text x="250" y="62" font-size="10" text-anchor="middle" font-family="monospace">x : [h=7168]</text>

  <!-- W_gate / W_up parallel -->
  <rect x="60" y="94" width="160" height="36" rx="6" fill="#eef3ff" stroke="#4a6fd3"/>
  <text x="140" y="108" font-size="10.5" text-anchor="middle" font-weight="700">W_gate · x</text>
  <text x="140" y="123" font-size="9.5" text-anchor="middle" font-family="monospace">[h, d=3072] · [h] = [d]</text>

  <rect x="280" y="94" width="160" height="36" rx="6" fill="#eef3ff" stroke="#4a6fd3"/>
  <text x="360" y="108" font-size="10.5" text-anchor="middle" font-weight="700">W_up · x</text>
  <text x="360" y="123" font-size="9.5" text-anchor="middle" font-family="monospace">[h, d=3072] · [h] = [d]</text>

  <!-- silu -->
  <rect x="60" y="148" width="160" height="34" rx="6" fill="#fff4e0" stroke="#e0b300"/>
  <text x="140" y="162" font-size="10.5" text-anchor="middle" font-weight="700">silu = x · σ(x)</text>
  <text x="140" y="177" font-size="9" text-anchor="middle" fill="#7a4e00">SFU: exp + division ⚠️</text>

  <!-- mul -->
  <rect x="160" y="200" width="180" height="28" rx="6" fill="#f9eef8" stroke="#a33ea1"/>
  <text x="250" y="218" font-size="10.5" text-anchor="middle">silu(gate) ⊙ up : [d]</text>

  <!-- W_down -->
  <rect x="160" y="248" width="180" height="36" rx="6" fill="#eef3ff" stroke="#4a6fd3"/>
  <text x="250" y="262" font-size="10.5" text-anchor="middle" font-weight="700">W_down · mid</text>
  <text x="250" y="277" font-size="9.5" text-anchor="middle" font-family="monospace">[d, h] · [d] = [h]</text>

  <line x1="250" y1="72" x2="140" y2="92" stroke="#4b5563" marker-end="url(#sw_ar)"/>
  <line x1="250" y1="72" x2="360" y2="92" stroke="#4b5563" marker-end="url(#sw_ar)"/>
  <line x1="140" y1="130" x2="140" y2="146" stroke="#4b5563" marker-end="url(#sw_ar)"/>
  <line x1="360" y1="130" x2="320" y2="200" stroke="#4b5563" marker-end="url(#sw_ar)"/>
  <line x1="140" y1="182" x2="180" y2="200" stroke="#4b5563" marker-end="url(#sw_ar)"/>
  <line x1="250" y1="228" x2="250" y2="246" stroke="#4b5563" marker-end="url(#sw_ar)"/>

  <!-- Cost -->
  <line x1="20" y1="304" x2="480" y2="304" stroke="#e8c3bf"/>
  <text x="250" y="324" font-size="11" font-weight="700" text-anchor="middle" fill="#7a2f2b">代价</text>
  <text x="30" y="342" font-size="10" font-family="monospace">params  P = 3·h·d  = 3 × 7168 × 3072 = 66.06 M / expert</text>
  <text x="30" y="358" font-size="10" font-family="monospace">FLOPs   V_comp = 6·h·d = 132 M / token-expert</text>
  <text x="30" y="374" font-size="10" font-family="monospace">comm    V_comm = 3·h  = 21,504 B / token-expert</text>
  <text x="30" y="390" font-size="10" font-weight="700" font-family="monospace" fill="#7a2f2b">阈值    V_comp/V_comm = 2d = 6144 FLOPs/B</text>
</g>

<!-- RIGHT: no-gate -->
<g transform="translate(580,60)">
  <rect x="0" y="0" width="500" height="380" rx="10" fill="#f4faf4" stroke="#5fa55f" stroke-width="1.3"/>
  <text x="250" y="22" font-size="13" font-weight="700" text-anchor="middle" fill="#1a5c1a">提议: no-gate + 简单激活 (e.g. ReLU²)</text>

  <rect x="200" y="44" width="100" height="28" rx="6" fill="#fff" stroke="#333"/>
  <text x="250" y="62" font-size="10" text-anchor="middle" font-family="monospace">x : [h=7168]</text>

  <!-- W_up only -->
  <rect x="160" y="94" width="180" height="36" rx="6" fill="#eef3ff" stroke="#4a6fd3"/>
  <text x="250" y="108" font-size="10.5" text-anchor="middle" font-weight="700">W_up · x</text>
  <text x="250" y="123" font-size="9.5" text-anchor="middle" font-family="monospace">[h, d_new=4608] · [h] = [d_new]</text>

  <!-- ReLU² -->
  <rect x="160" y="148" width="180" height="34" rx="6" fill="#fff4e0" stroke="#e0b300"/>
  <text x="250" y="162" font-size="10.5" text-anchor="middle" font-weight="700">ReLU(x)²  (no exp/div)</text>
  <text x="250" y="177" font-size="9" text-anchor="middle" fill="#1a5c1a">cheap element-wise ✓</text>

  <!-- W_down -->
  <rect x="160" y="200" width="180" height="36" rx="6" fill="#eef3ff" stroke="#4a6fd3"/>
  <text x="250" y="214" font-size="10.5" text-anchor="middle" font-weight="700">W_down · act</text>
  <text x="250" y="229" font-size="9.5" text-anchor="middle" font-family="monospace">[d_new, h] · [d_new] = [h]</text>

  <line x1="250" y1="72" x2="250" y2="92" stroke="#4b5563" marker-end="url(#sw_ar)"/>
  <line x1="250" y1="130" x2="250" y2="146" stroke="#4b5563" marker-end="url(#sw_ar)"/>
  <line x1="250" y1="182" x2="250" y2="198" stroke="#4b5563" marker-end="url(#sw_ar)"/>

  <!-- Cost -->
  <line x1="20" y1="252" x2="480" y2="252" stroke="#c9e5c9"/>
  <text x="250" y="272" font-size="11" font-weight="700" text-anchor="middle" fill="#1a5c1a">收益（同样 param P=66 M/expert）</text>
  <text x="30" y="290" font-size="10" font-family="monospace">d_new = (3/2) · d_old = 4608</text>
  <text x="30" y="306" font-size="10" font-family="monospace">params  P = 2·h·d_new = 66.06 M ✓ 不变</text>
  <text x="30" y="322" font-size="10" font-family="monospace">FLOPs   V_comp = 4·h·d_new = 132 M ✓ 不变</text>
  <text x="30" y="338" font-size="10" font-family="monospace">comm    V_comm = 3·h = 21,504 B ✓ 不变</text>
  <text x="30" y="354" font-size="10" font-weight="700" font-family="monospace" fill="#1a5c1a">阈值    2·d_new = 9216 FLOPs/B  ↑ 50%</text>
  <text x="30" y="376" font-size="10" fill="#1a5c1a">+ 取消 SFU 路径（exp/div）：post-GEMM 段直接缩短</text>
  <text x="30" y="392" font-size="10" fill="#1a5c1a">+ 阈值更高 → 同 hardware C/B 下 BW 余量更大</text>
</g>
</svg>