<svg width="100%" height="auto" viewBox="0 0 1000 420" xmlns="http://www.w3.org/2000/svg">
<defs><marker id="csa_ar" viewBox="0 0 10 10" refX="10" refY="5" markerWidth="7" markerHeight="7" orient="auto"><path d="M0,0 L10,5 L0,10 z" fill="#333"/></marker></defs>
<rect width="1000" height="420" fill="#fff"/>
<text x="500" y="26" font-family="sans-serif" font-size="16" font-weight="700" text-anchor="middle">CSA · Compressed Sparse Attention  (paper Figure 3)</text>
<text x="30" y="72" font-family="sans-serif" font-size="12" font-weight="600">Hidden States of KV tokens</text>
<g transform="translate(30,80)">
<rect x="0"   y="0" width="28" height="28" fill="#eef3ff" stroke="#4a6fd3"/>
<rect x="30"  y="0" width="28" height="28" fill="#eef3ff" stroke="#4a6fd3"/>
<rect x="60"  y="0" width="28" height="28" fill="#eef3ff" stroke="#4a6fd3"/>
<rect x="90"  y="0" width="28" height="28" fill="#eef3ff" stroke="#4a6fd3"/>
<rect x="120" y="0" width="28" height="28" fill="#eef3ff" stroke="#4a6fd3"/>
<rect x="150" y="0" width="28" height="28" fill="#eef3ff" stroke="#4a6fd3"/>
<rect x="180" y="0" width="28" height="28" fill="#eef3ff" stroke="#4a6fd3"/>
<rect x="210" y="0" width="28" height="28" fill="#eef3ff" stroke="#4a6fd3"/>
<text x="125" y="45" font-family="monospace" font-size="10" text-anchor="middle">8 original tokens → 2 compressed entries (m=4)</text>
</g>
<rect x="290" y="72" width="180" height="40" fill="#fff4e0" stroke="#e0b300" rx="4"/>
<text x="380" y="90" font-family="sans-serif" font-size="12" font-weight="600" text-anchor="middle">Token-Level Compressor</text>
<text x="380" y="106" font-family="sans-serif" font-size="11" text-anchor="middle">Softmax(Z+B)⊙C  ·  overlapping m</text>
<g transform="translate(510,80)">
<rect x="0"   y="0" width="46" height="28" fill="#f4faf4" stroke="#5fa55f"/><text x="23"  y="18" font-family="monospace" font-size="10" text-anchor="middle">C_0</text>
<rect x="50"  y="0" width="46" height="28" fill="#f4faf4" stroke="#5fa55f"/><text x="73"  y="18" font-family="monospace" font-size="10" text-anchor="middle">C_1</text>
<rect x="100" y="0" width="46" height="28" fill="#f4faf4" stroke="#5fa55f"/><text x="123" y="18" font-family="monospace" font-size="10" text-anchor="middle">C_2</text>
<rect x="150" y="0" width="46" height="28" fill="#f4faf4" stroke="#5fa55f"/><text x="173" y="18" font-family="monospace" font-size="10" text-anchor="middle">…</text>
<rect x="200" y="0" width="46" height="28" fill="#f4faf4" stroke="#5fa55f"/><text x="223" y="18" font-family="monospace" font-size="10" text-anchor="middle">C_n/m</text>
</g>
<line x1="240" y1="94" x2="290" y2="92" stroke="#333" marker-end="url(#csa_ar)"/>
<line x1="472" y1="92" x2="508" y2="92" stroke="#333" marker-end="url(#csa_ar)"/>
<rect x="70" y="170" width="230" height="86" fill="#fff5f0" stroke="#b85450" rx="4"/>
<text x="185" y="192" font-family="sans-serif" font-size="13" font-weight="700" text-anchor="middle">Lightning Indexer</text>
<text x="185" y="210" font-family="sans-serif" font-size="11" text-anchor="middle">indexer queries q^I (64 heads, FP4)</text>
<text x="185" y="226" font-family="sans-serif" font-size="11" text-anchor="middle">K^I compressed  ·  score I_ts</text>
<text x="185" y="244" font-family="sans-serif" font-size="11" text-anchor="middle">I = Σ_h w_h · ReLU(q_h · K^I)</text>
<rect x="340" y="170" width="160" height="86" fill="#f9eef8" stroke="#a33ea1" rx="4"/>
<text x="420" y="196" font-family="sans-serif" font-size="13" font-weight="700" text-anchor="middle">Top-k Selector</text>
<text x="420" y="215" font-family="sans-serif" font-size="11" text-anchor="middle">k = 512 (Flash)</text>
<text x="420" y="232" font-family="sans-serif" font-size="11" text-anchor="middle">k = 1024 (Pro)</text>
<text x="420" y="249" font-family="sans-serif" font-size="11" text-anchor="middle">BF16 score path</text>
<rect x="540" y="170" width="230" height="86" fill="#eef7ee" stroke="#5fa55f" rx="4"/>
<text x="655" y="192" font-family="sans-serif" font-size="13" font-weight="700" text-anchor="middle">Shared-KV MQA Core Attn</text>
<text x="655" y="210" font-family="sans-serif" font-size="11" text-anchor="middle">q_t,i (n_h heads) vs selected C_s</text>
<text x="655" y="226" font-family="sans-serif" font-size="11" text-anchor="middle">partial RoPE (last 64 dims)</text>
<text x="655" y="244" font-family="sans-serif" font-size="11" text-anchor="middle">attention sink + QK RMSNorm</text>
<rect x="820" y="170" width="150" height="86" fill="#fff4e0" stroke="#e0b300" rx="4"/>
<text x="895" y="192" font-family="sans-serif" font-size="13" font-weight="700" text-anchor="middle">Grouped Output</text>
<text x="895" y="210" font-family="sans-serif" font-size="11" text-anchor="middle">split n_h into g groups</text>
<text x="895" y="226" font-family="sans-serif" font-size="11" text-anchor="middle">project to d_g per group</text>
<text x="895" y="244" font-family="sans-serif" font-size="11" text-anchor="middle">concat → d</text>
<line x1="300" y1="213" x2="340" y2="213" stroke="#333" marker-end="url(#csa_ar)"/>
<line x1="500" y1="213" x2="540" y2="213" stroke="#333" marker-end="url(#csa_ar)"/>
<line x1="770" y1="213" x2="820" y2="213" stroke="#333" marker-end="url(#csa_ar)"/>
<rect x="70" y="280" width="400" height="40" fill="#eef3ff" stroke="#4a6fd3" stroke-dasharray="4 3" rx="4"/>
<text x="270" y="305" font-family="sans-serif" font-size="12" text-anchor="middle">+ Sliding Window branch (n_win = 128 uncompressed K,V)</text>
<rect x="820" y="280" width="150" height="40" fill="#fff" stroke="#333" rx="4"/>
<text x="895" y="305" font-family="monospace" font-size="11" text-anchor="middle">query token h_t</text>
<line x1="895" y1="280" x2="895" y2="256" stroke="#333" marker-end="url(#csa_ar)"/>
<text x="500" y="360" font-family="monospace" font-size="11" text-anchor="middle" fill="#555">CSA compresses seq-length to 1/m then DSA reads top-k compressed entries per query</text>
<text x="500" y="378" font-family="monospace" font-size="11" text-anchor="middle" fill="#555">complexity O(L·k) instead of O(L²), where k ≪ L/m</text>
</svg>