<svg viewBox="0 0 1200 380" xmlns="http://www.w3.org/2000/svg" font-family="system-ui, -apple-system, 'Segoe UI', 'PingFang SC', sans-serif">
<rect width="1200" height="380" fill="#fff"/>
<text x="600" y="26" font-size="16" font-weight="700" text-anchor="middle" fill="#111827">FP4 (E2M1) vs INT4 · 4-bit format 表征空间对比</text>
<text x="600" y="46" font-size="11" text-anchor="middle" fill="#6b7280">同样 4 个 bit · 不同的值分布与误差特性</text>

<!-- INT4 number line: uniform spacing -->
<g transform="translate(60,80)">
  <text x="0" y="0" font-size="13" font-weight="700" fill="#1a2d55">INT4 (signed) · 16 个均匀间隔的整数点</text>
  <line x1="20" y1="40" x2="1080" y2="40" stroke="#333" stroke-width="1.5"/>
  <circle cx="20" cy="40" r="6" fill="#4a6fd3"/><text x="20" y="68" font-size="10" text-anchor="middle" fill="#1a2d55">-7</text><circle cx="90" cy="40" r="6" fill="#4a6fd3"/><text x="90" y="68" font-size="10" text-anchor="middle" fill="#1a2d55">-6</text><circle cx="160" cy="40" r="6" fill="#4a6fd3"/><text x="160" y="68" font-size="10" text-anchor="middle" fill="#1a2d55">-5</text><circle cx="230" cy="40" r="6" fill="#4a6fd3"/><text x="230" y="68" font-size="10" text-anchor="middle" fill="#1a2d55">-4</text><circle cx="300" cy="40" r="6" fill="#4a6fd3"/><text x="300" y="68" font-size="10" text-anchor="middle" fill="#1a2d55">-3</text><circle cx="370" cy="40" r="6" fill="#4a6fd3"/><text x="370" y="68" font-size="10" text-anchor="middle" fill="#1a2d55">-2</text><circle cx="440" cy="40" r="6" fill="#4a6fd3"/><text x="440" y="68" font-size="10" text-anchor="middle" fill="#1a2d55">-1</text><circle cx="510" cy="40" r="6" fill="#4a6fd3"/><text x="510" y="68" font-size="10" text-anchor="middle" fill="#1a2d55">0</text><circle cx="580" cy="40" r="6" fill="#4a6fd3"/><text x="580" y="68" font-size="10" text-anchor="middle" fill="#1a2d55">1</text><circle cx="650" cy="40" r="6" fill="#4a6fd3"/><text x="650" y="68" font-size="10" text-anchor="middle" fill="#1a2d55">2</text><circle cx="720" cy="40" r="6" fill="#4a6fd3"/><text x="720" y="68" font-size="10" text-anchor="middle" fill="#1a2d55">3</text><circle cx="790" cy="40" r="6" fill="#4a6fd3"/><text x="790" y="68" font-size="10" text-anchor="middle" fill="#1a2d55">4</text><circle cx="860" cy="40" r="6" fill="#4a6fd3"/><text x="860" y="68" font-size="10" text-anchor="middle" fill="#1a2d55">5</text><circle cx="930" cy="40" r="6" fill="#4a6fd3"/><text x="930" y="68" font-size="10" text-anchor="middle" fill="#1a2d55">6</text><circle cx="1000" cy="40" r="6" fill="#4a6fd3"/><text x="1000" y="68" font-size="10" text-anchor="middle" fill="#1a2d55">7</text><circle cx="1070" cy="40" r="6" fill="#4a6fd3"/><text x="1070" y="68" font-size="10" text-anchor="middle" fill="#1a2d55">8</text>
  <text x="540" y="100" font-size="10.5" fill="#555" text-anchor="middle" font-style="italic">均匀间距 · 量化误差恒定 = 1/2 · scale</text>
  <text x="540" y="116" font-size="10.5" fill="#555" text-anchor="middle">动态范围 ≈ 14× scale (从 -7 到 +7)</text>
</g>

<!-- FP4 (E2M1) number line: log-spaced -->
<g transform="translate(60,220)">
  <text x="0" y="0" font-size="13" font-weight="700" fill="#1a5c1a">FP4 (E2M1) · 16 个对数分布的浮点点</text>
  <line x1="20" y1="40" x2="1080" y2="40" stroke="#333" stroke-width="1.5"/>
  <circle cx="60" cy="40" r="6" fill="#5fa55f"/><text x="60" y="68" font-size="10" text-anchor="middle" fill="#1a5c1a">-6</text><circle cx="140" cy="40" r="6" fill="#5fa55f"/><text x="140" y="68" font-size="10" text-anchor="middle" fill="#1a5c1a">-4</text><circle cx="200" cy="40" r="6" fill="#5fa55f"/><text x="200" y="68" font-size="10" text-anchor="middle" fill="#1a5c1a">-3</text><circle cx="260" cy="40" r="6" fill="#5fa55f"/><text x="260" y="68" font-size="10" text-anchor="middle" fill="#1a5c1a">-2</text><circle cx="300" cy="40" r="6" fill="#5fa55f"/><text x="300" y="68" font-size="10" text-anchor="middle" fill="#1a5c1a">-1.5</text><circle cx="340" cy="40" r="6" fill="#5fa55f"/><text x="340" y="68" font-size="10" text-anchor="middle" fill="#1a5c1a">-1</text><circle cx="380" cy="40" r="6" fill="#5fa55f"/><text x="380" y="68" font-size="10" text-anchor="middle" fill="#1a5c1a">-0.5</text><circle cx="480" cy="40" r="6" fill="#5fa55f"/><text x="480" y="68" font-size="10" text-anchor="middle" fill="#1a5c1a">-0</text><circle cx="520" cy="40" r="6" fill="#5fa55f"/><text x="520" y="68" font-size="10" text-anchor="middle" fill="#1a5c1a">+0</text><circle cx="620" cy="40" r="6" fill="#5fa55f"/><text x="620" y="68" font-size="10" text-anchor="middle" fill="#1a5c1a">+0.5</text><circle cx="660" cy="40" r="6" fill="#5fa55f"/><text x="660" y="68" font-size="10" text-anchor="middle" fill="#1a5c1a">+1</text><circle cx="700" cy="40" r="6" fill="#5fa55f"/><text x="700" y="68" font-size="10" text-anchor="middle" fill="#1a5c1a">+1.5</text><circle cx="740" cy="40" r="6" fill="#5fa55f"/><text x="740" y="68" font-size="10" text-anchor="middle" fill="#1a5c1a">+2</text><circle cx="800" cy="40" r="6" fill="#5fa55f"/><text x="800" y="68" font-size="10" text-anchor="middle" fill="#1a5c1a">+3</text><circle cx="860" cy="40" r="6" fill="#5fa55f"/><text x="860" y="68" font-size="10" text-anchor="middle" fill="#1a5c1a">+4</text><circle cx="940" cy="40" r="6" fill="#5fa55f"/><text x="940" y="68" font-size="10" text-anchor="middle" fill="#1a5c1a">+6</text>
  <text x="540" y="100" font-size="10.5" fill="#555" text-anchor="middle" font-style="italic">log 间距 · 小值密、大值疏 · 适合 long-tail / outlier 分布</text>
  <text x="540" y="116" font-size="10.5" fill="#555" text-anchor="middle">动态范围 ≈ 12× scale，但<b>能直接命中 outlier 的指数尺度</b></text>
</g>

<text x="60" y="358" font-size="10.5" fill="#666">• MoE expert 权重通常呈 long-tail 分布（少数大值 + 大量小值）→ FP4 表征更贴合</text>
<text x="60" y="374" font-size="10.5" fill="#666">• 经过 LayerNorm 后的「集中分布」激活 → INT4 表征更贴合（量化误差均匀小）</text>
</svg>