<svg width="100%" height="auto" viewBox="0 0 1200 660" xmlns="http://www.w3.org/2000/svg" font-family="system-ui, -apple-system, 'Segoe UI', 'PingFang SC', sans-serif">
<defs><marker id="ste_ar" viewBox="0 0 10 10" refX="9" refY="5" markerWidth="6" markerHeight="6" orient="auto"><path d="M0,0 L10,5 L0,10 z" fill="#4b5563"/></marker></defs>
<rect width="1200" height="660" fill="#fff"/>
<text x="600" y="26" font-size="16" font-weight="700" text-anchor="middle" fill="#111827">为什么需要 STE，为什么 NVFP4 又不需要 · 数学对比</text>
<text x="600" y="46" font-size="11" text-anchor="middle" fill="#6b7280">核心：round() 导数为 0 → 梯度消失 → 用 STE 假装是恒等 · NVFP4 用随机 rounding 让 round 期望就是恒等</text>

<!-- LEFT: Deterministic + STE -->
<g transform="translate(40,72)">
  <rect x="0" y="0" width="540" height="560" rx="10" fill="#fff5f0" stroke="#b85450" stroke-width="1.4"/>
  <text x="270" y="26" font-size="14" font-weight="700" text-anchor="middle" fill="#7a2f2b">确定性 round + STE</text>
  <text x="270" y="46" font-size="10.5" text-anchor="middle" fill="#7a2f2b" font-style="italic">V4 MXFP4 / LMSYS INT4 / 经典 QAT</text>

  <!-- Forward path -->
  <text x="20" y="76" font-size="12" font-weight="700" fill="#7a2f2b">[前向] round-to-nearest</text>
  <rect x="40" y="92" width="460" height="40" rx="6" fill="#fff" stroke="#333"/>
  <text x="270" y="116" font-size="14" text-anchor="middle" fill="#111">Q(x) = round(x · scale) / scale</text>
  <text x="270" y="148" font-size="11" text-anchor="middle" fill="#7a2f2b">每步固定地把 x 投到最近的可表示点</text>

  <!-- Step plot -->
  <g transform="translate(60,176)">
    <rect x="0" y="0" width="200" height="120" fill="#fff" stroke="#9ca3af"/>
    <line x1="20" y1="100" x2="180" y2="100" stroke="#333"/>
    <line x1="20" y1="20" x2="20" y2="100" stroke="#333"/>
    <text x="20" y="115" font-size="9" text-anchor="middle" fill="#555">x</text>
    <text x="14" y="22" font-size="9" text-anchor="end" fill="#555">Q(x)</text>
    <!-- step function -->
    <path d="M 20,100 L 50,100 L 50,80 L 80,80 L 80,60 L 110,60 L 110,40 L 140,40 L 140,20 L 180,20" fill="none" stroke="#b85450" stroke-width="2"/>
    <text x="100" y="135" font-size="10" text-anchor="middle" fill="#7a2f2b">阶梯函数 · 平台导数 = 0</text>
  </g>

  <!-- Derivative plot -->
  <g transform="translate(280,176)">
    <rect x="0" y="0" width="200" height="120" fill="#fff" stroke="#9ca3af"/>
    <line x1="20" y1="100" x2="180" y2="100" stroke="#333"/>
    <line x1="20" y1="20" x2="20" y2="100" stroke="#333"/>
    <text x="20" y="115" font-size="9" text-anchor="middle" fill="#555">x</text>
    <text x="14" y="22" font-size="9" text-anchor="end" fill="#555">dQ/dx</text>
    <line x1="20" y1="100" x2="180" y2="100" stroke="#b85450" stroke-width="2"/>
    <line x1="50" y1="100" x2="50" y2="20" stroke="#b85450" stroke-width="1.5"/>
    <line x1="80" y1="100" x2="80" y2="20" stroke="#b85450" stroke-width="1.5"/>
    <line x1="110" y1="100" x2="110" y2="20" stroke="#b85450" stroke-width="1.5"/>
    <line x1="140" y1="100" x2="140" y2="20" stroke="#b85450" stroke-width="1.5"/>
    <text x="100" y="135" font-size="10" text-anchor="middle" fill="#7a2f2b">几乎处处 = 0 · 边界为 δ</text>
  </g>

  <!-- Backward problem -->
  <text x="20" y="324" font-size="12" font-weight="700" fill="#7a2f2b">[反向] 梯度消失！</text>
  <rect x="40" y="338" width="460" height="60" rx="6" fill="#fff" stroke="#333"/>
  <text x="270" y="360" font-size="11.5" text-anchor="middle" fill="#7a2f2b">∂L/∂W_master = ∂L/∂W_q · ∂W_q/∂W_master</text>
  <text x="270" y="380" font-size="11.5" text-anchor="middle" fill="#b85450" font-weight="700">∂W_q/∂W_master ≈ 0 (a.e.) → 梯度被零乘掉</text>

  <!-- STE patch -->
  <text x="20" y="424" font-size="12" font-weight="700" fill="#7a2f2b">[STE 补丁] 假装是恒等</text>
  <rect x="40" y="438" width="460" height="86" rx="6" fill="#fff5f0" stroke="#b85450" stroke-width="2"/>
  <text x="270" y="460" font-size="13" font-weight="700" text-anchor="middle" fill="#7a2f2b">∂W_q/∂W_master := 1</text>
  <text x="270" y="478" font-size="11" text-anchor="middle" fill="#7a2f2b">⇒ ∂L/∂W_master = ∂L/∂W_q   (直接透传)</text>
  <text x="270" y="498" font-size="10.5" text-anchor="middle" fill="#7a2f2b" font-style="italic">数学上是错的（round 导数明明是 0）</text>
  <text x="270" y="514" font-size="10.5" text-anchor="middle" fill="#7a2f2b" font-style="italic">实际可行：单步偏差小、多步平均近零</text>
</g>

<!-- RIGHT: Stochastic rounding (no STE) -->
<g transform="translate(620,72)">
  <rect x="0" y="0" width="540" height="560" rx="10" fill="#f4faf4" stroke="#5fa55f" stroke-width="1.4"/>
  <text x="270" y="26" font-size="14" font-weight="700" text-anchor="middle" fill="#1a5c1a">随机 rounding · 不需要 STE</text>
  <text x="270" y="46" font-size="10.5" text-anchor="middle" fill="#1a5c1a" font-style="italic">NVFP4 (NVIDIA Blackwell 预训练 recipe)</text>

  <text x="20" y="76" font-size="12" font-weight="700" fill="#1a5c1a">[前向 (gradient 路径)] stochastic rounding</text>
  <rect x="40" y="92" width="460" height="60" rx="6" fill="#fff" stroke="#333"/>
  <text x="270" y="114" font-size="13" text-anchor="middle" fill="#111">stoch_round(x) = ⌊x⌋ w.p. (⌈x⌉ - x)</text>
  <text x="270" y="134" font-size="13" text-anchor="middle" fill="#111">                 ⌈x⌉ w.p. (x - ⌊x⌋)</text>

  <!-- key property -->
  <rect x="40" y="166" width="460" height="50" rx="6" fill="#f4faf4" stroke="#5fa55f" stroke-width="2"/>
  <text x="270" y="188" font-size="13" font-weight="700" text-anchor="middle" fill="#1a5c1a">关键性质：E[ stoch_round(x) ] = x</text>
  <text x="270" y="206" font-size="11" text-anchor="middle" fill="#1a5c1a">即「期望意义上的恒等函数」（unbiased estimator）</text>

  <!-- Distribution plot -->
  <g transform="translate(60,232)">
    <rect x="0" y="0" width="200" height="100" fill="#fff" stroke="#9ca3af"/>
    <line x1="20" y1="80" x2="180" y2="80" stroke="#333"/>
    <line x1="20" y1="20" x2="20" y2="80" stroke="#333"/>
    <!-- input x marked between two grid points -->
    <line x1="60" y1="80" x2="60" y2="20" stroke="#9ca3af" stroke-dasharray="2 2"/>
    <line x1="120" y1="80" x2="120" y2="20" stroke="#9ca3af" stroke-dasharray="2 2"/>
    <text x="60" y="92" font-size="9" text-anchor="middle" fill="#555">⌊x⌋</text>
    <text x="120" y="92" font-size="9" text-anchor="middle" fill="#555">⌈x⌉</text>
    <line x1="80" y1="78" x2="80" y2="40" stroke="#5fa55f" stroke-width="2"/>
    <text x="80" y="35" font-size="9" text-anchor="middle" fill="#1a5c1a">x</text>
    <!-- prob bars -->
    <rect x="55" y="52" width="10" height="28" fill="#5fa55f" opacity="0.7"/>
    <text x="60" y="48" font-size="8" text-anchor="middle" fill="#1a5c1a">66%</text>
    <rect x="115" y="64" width="10" height="16" fill="#5fa55f" opacity="0.7"/>
    <text x="120" y="60" font-size="8" text-anchor="middle" fill="#1a5c1a">33%</text>
  </g>
  <g transform="translate(280,232)">
    <text x="0" y="20" font-size="11" fill="#1a5c1a" font-weight="700">直观：</text>
    <text x="0" y="38" font-size="10" fill="#1a5c1a">x = 0.66 → 以 66% 概率舍到 0，</text>
    <text x="0" y="54" font-size="10" fill="#1a5c1a">      以 33% 概率舍到 1</text>
    <text x="0" y="76" font-size="10" fill="#1a5c1a">期望 = 0×0.66 + 1×0.33 ≈ 0.33</text>
    <text x="0" y="92" font-size="10" fill="#7a4e00" font-weight="700">… 等等？！</text>
    <text x="0" y="108" font-size="9" fill="#1a5c1a">注：上图为离散网格示意，</text>
    <text x="0" y="122" font-size="9" fill="#1a5c1a">实际是 ⌊⌉ 的概率应反过来。</text>
  </g>

  <!-- Backward derivation -->
  <text x="20" y="360" font-size="12" font-weight="700" fill="#1a5c1a">[反向] 梯度自然通过</text>
  <rect x="40" y="374" width="460" height="120" rx="6" fill="#fff" stroke="#333"/>
  <text x="270" y="394" font-size="11" text-anchor="middle" fill="#111">把 stoch_round 写成 W_q = W_master + ε  (E[ε]=0)</text>
  <text x="270" y="414" font-size="11" text-anchor="middle" fill="#111">y = matmul(W_q, x) = matmul(W_master + ε, x)</text>
  <text x="270" y="434" font-size="11" text-anchor="middle" fill="#1a5c1a" font-weight="700">∂L/∂W_master = ∂L/∂y · x  +  E[∂ε/∂W_master · …]</text>
  <text x="270" y="454" font-size="11" text-anchor="middle" fill="#1a5c1a" font-weight="700">                = ∂L/∂y · x  (噪声项期望 = 0)</text>
  <text x="270" y="478" font-size="10.5" text-anchor="middle" fill="#1a5c1a" font-style="italic">无需任何「假定 ∂Q/∂x = 1」的作弊</text>

  <text x="20" y="518" font-size="11.5" font-weight="700" fill="#1a5c1a">⇒ STE 在 NVFP4 体系下「不必要、有时反而损害精度」</text>
  <text x="20" y="536" font-size="10" fill="#1a5c1a" font-style="italic">— NVIDIA Nemotron QAD blog</text>
</g>
</svg>